  0
SECTION
  2
HEADER
  9
$ACADVER
  1
AC1009
  9
$INSUNITS
 70
     1
  0
ENDSEC
  0
SECTION
  2
TABLES
  0
TABLE
  2
LAYER
 70
     8
  0
LAYER
  2
0
 62
     7
 70
0
  6
CONTINUOUS
  0
LAYER
  2
1
 62
     1
 70
0
  6
CONTINUOUS
  0
LAYER
  2
2
 62
     2
 70
0
  6
CONTINUOUS
  0
LAYER
  2
3
 62
     3
 70
0
  6
CONTINUOUS
  0
LAYER
  2
4
 62
     4
 70
0
  6
CONTINUOUS
  0
LAYER
  2
5
 62
     5
 70
0
  6
CONTINUOUS
  0
LAYER
  2
6
 62
     6
 70
0
  6
CONTINUOUS
  0
LAYER
  2
7
 62
     7
 70
0
  6
CONTINUOUS
  0
ENDTAB
  0
TABLE
  2
STYLE
 70
     1
  0
STYLE
 70
     0
  2
STANDARD
  3
TXT
 40
0.00
 41
1.00
 42
1.00
 50
0.00
 71
     0
  0
ENDTAB
  0
ENDSEC
  0
SECTION
  2
BLOCKS
  0
BLOCK
  8
0
  2
EPAD
 70
0
 10
0.0
 20
0.0
  0
POLYLINE
  8
0
 66
1
 70
1
 40
0.5
 41
0.5
  0
VERTEX
  8
0
 10
-0.25
 20
0.0
 42
1.0
  0
VERTEX
  8
0
 10
0.25
 20
0.0
 42
1.0
  0
SEQEND
  8
0
  0
ENDBLK
  8
0
  0
BLOCK
  8
0
  2
RPAD
 70
0
 10
0.0
 20
0.0
  0
TRACE
  8
0
 10
-0.5
 20
-0.5
 11
-0.5
 21
0.5
 12
0.5
 22
-0.5
 13
0.5
 23
0.5
  0
ENDBLK
  8
0
  0
ENDSEC
0
SECTION
2
ENTITIES
0
POLYLINE
8
0
66
1
40
0.060000
41
0.060000
0
VERTEX
8
0
10
2.690000
20
1.890000
0
VERTEX
8
0
10
-3.760000
20
1.890000
0
SEQEND
8
0
0
POLYLINE
8
0
66
1
40
0.060000
41
0.060000
0
VERTEX
8
0
10
-3.810000
20
1.890000
0
VERTEX
8
0
10
-3.760000
20
1.890000
0
SEQEND
8
0
0
POLYLINE
8
0
66
1
40
0.060000
41
0.060000
0
VERTEX
8
0
10
-3.860000
20
1.890000
0
VERTEX
8
0
10
-3.810000
20
1.890000
0
SEQEND
8
0
0
POLYLINE
8
0
66
1
40
0.060000
41
0.060000
0
VERTEX
8
0
10
-3.910000
20
1.890000
0
VERTEX
8
0
10
-3.860000
20
1.890000
0
SEQEND
8
0
0
POLYLINE
8
0
66
1
40
0.060000
41
0.060000
0
VERTEX
8
0
10
-3.960000
20
1.890000
0
VERTEX
8
0
10
-3.910000
20
1.890000
0
SEQEND
8
0
0
POLYLINE
8
0
66
1
40
0.060000
41
0.060000
0
VERTEX
8
0
10
-4.010000
20
1.890000
0
VERTEX
8
0
10
-3.960000
20
1.890000
0
SEQEND
8
0
0
POLYLINE
8
0
66
1
40
0.060000
41
0.060000
0
VERTEX
8
0
10
-4.060000
20
1.890000
0
VERTEX
8
0
10
-4.010000
20
1.890000
0
SEQEND
8
0
0
POLYLINE
8
0
66
1
40
0.060000
41
0.060000
0
VERTEX
8
0
10
-4.110000
20
1.890000
0
VERTEX
8
0
10
-4.060000
20
1.890000
0
SEQEND
8
0
0
POLYLINE
8
0
66
1
40
0.060000
41
0.060000
0
VERTEX
8
0
10
-4.460000
20
1.890000
0
VERTEX
8
0
10
-4.110000
20
1.890000
0
SEQEND
8
0
0
POLYLINE
8
0
66
1
40
0.060000
41
0.060000
0
VERTEX
8
0
10
-4.510000
20
1.890000
0
VERTEX
8
0
10
-4.460000
20
1.890000
0
SEQEND
8
0
0
POLYLINE
8
0
66
1
40
0.060000
41
0.060000
0
VERTEX
8
0
10
-4.560000
20
1.890000
0
VERTEX
8
0
10
-4.510000
20
1.890000
0
SEQEND
8
0
0
POLYLINE
8
0
66
1
40
0.060000
41
0.060000
0
VERTEX
8
0
10
-4.610000
20
1.890000
0
VERTEX
8
0
10
-4.560000
20
1.890000
0
SEQEND
8
0
0
POLYLINE
8
0
66
1
40
0.060000
41
0.060000
0
VERTEX
8
0
10
-4.660000
20
1.890000
0
VERTEX
8
0
10
-4.610000
20
1.890000
0
SEQEND
8
0
0
POLYLINE
8
0
66
1
40
0.060000
41
0.060000
0
VERTEX
8
0
10
-4.710000
20
1.890000
0
VERTEX
8
0
10
-4.660000
20
1.890000
0
SEQEND
8
0
0
POLYLINE
8
0
66
1
40
0.060000
41
0.060000
0
VERTEX
8
0
10
-4.760000
20
1.890000
0
VERTEX
8
0
10
-4.710000
20
1.890000
0
SEQEND
8
0
0
POLYLINE
8
0
66
1
40
0.060000
41
0.060000
0
VERTEX
8
0
10
-4.810000
20
1.890000
0
VERTEX
8
0
10
-4.760000
20
1.890000
0
SEQEND
8
0
0
POLYLINE
8
0
66
1
40
0.060000
41
0.060000
0
VERTEX
8
0
10
-5.080000
20
1.890000
0
VERTEX
8
0
10
-4.810000
20
1.890000
0
SEQEND
8
0
0
POLYLINE
8
0
66
1
40
0.016000
41
0.016000
0
VERTEX
8
0
10
4.700000
20
-1.600000
0
VERTEX
8
0
10
4.700000
20
-1.700000
0
SEQEND
8
0
0
POLYLINE
8
0
66
1
40
0.016000
41
0.016000
0
VERTEX
8
0
10
4.700000
20
-1.800000
0
VERTEX
8
0
10
4.700000
20
-1.700000
0
SEQEND
8
0
0
POLYLINE
8
0
66
1
40
0.016000
41
0.016000
0
VERTEX
8
0
10
4.200000
20
-2.100000
0
VERTEX
8
0
10
4.100000
20
-2.100000
0
VERTEX
8
0
10
4.100000
20
-1.700000
0
VERTEX
8
0
10
4.700000
20
-1.700000
0
VERTEX
8
0
10
5.600000
20
-1.700000
0
VERTEX
8
0
10
5.600000
20
-1.800000
0
SEQEND
8
0
0
POLYLINE
8
0
66
1
40
0.016000
41
0.016000
0
VERTEX
8
0
10
4.200000
20
-2.500000
0
VERTEX
8
0
10
4.100000
20
-2.500000
0
SEQEND
8
0
0
POLYLINE
8
0
66
1
40
0.016000
41
0.016000
0
VERTEX
8
0
10
3.700000
20
-2.500000
0
VERTEX
8
0
10
3.600000
20
-2.500000
0
VERTEX
8
0
10
3.600000
20
-2.600000
0
SEQEND
8
0
0
POLYLINE
8
0
66
1
40
0.016000
41
0.016000
0
VERTEX
8
0
10
-4.800000
20
2.220000
0
VERTEX
8
0
10
-4.800000
20
1.920000
0
VERTEX
8
0
10
-4.810000
20
1.920000
0
VERTEX
8
0
10
-4.810000
20
1.890000
0
SEQEND
8
0
0
TEXT
8
0
10
-4.818000
20
2.100000
40
0.080000
41
1.000000
50
90.000000
1
1
0
POLYLINE
8
0
66
1
40
0.016000
41
0.016000
0
VERTEX
8
0
10
-4.750000
20
2.220000
0
VERTEX
8
0
10
-4.750000
20
1.920000
0
VERTEX
8
0
10
-4.760000
20
1.920000
0
VERTEX
8
0
10
-4.760000
20
1.890000
0
SEQEND
8
0
0
TEXT
8
0
10
-4.768000
20
2.100000
40
0.080000
41
1.000000
50
90.000000
1
2
0
POLYLINE
8
0
66
1
40
0.016000
41
0.016000
0
VERTEX
8
0
10
-4.700000
20
2.220000
0
VERTEX
8
0
10
-4.700000
20
1.920000
0
VERTEX
8
0
10
-4.710000
20
1.920000
0
VERTEX
8
0
10
-4.710000
20
1.890000
0
SEQEND
8
0
0
TEXT
8
0
10
-4.718000
20
2.100000
40
0.080000
41
1.000000
50
90.000000
1
3
0
POLYLINE
8
0
66
1
40
0.016000
41
0.016000
0
VERTEX
8
0
10
-4.650000
20
2.220000
0
VERTEX
8
0
10
-4.650000
20
1.920000
0
VERTEX
8
0
10
-4.660000
20
1.920000
0
VERTEX
8
0
10
-4.660000
20
1.890000
0
SEQEND
8
0
0
TEXT
8
0
10
-4.668000
20
2.100000
40
0.080000
41
1.000000
50
90.000000
1
4
0
POLYLINE
8
0
66
1
40
0.016000
41
0.016000
0
VERTEX
8
0
10
-4.600000
20
2.220000
0
VERTEX
8
0
10
-4.600000
20
1.920000
0
VERTEX
8
0
10
-4.610000
20
1.920000
0
VERTEX
8
0
10
-4.610000
20
1.890000
0
SEQEND
8
0
0
TEXT
8
0
10
-4.618000
20
2.100000
40
0.080000
41
1.000000
50
90.000000
1
5
0
POLYLINE
8
0
66
1
40
0.016000
41
0.016000
0
VERTEX
8
0
10
-4.550000
20
2.220000
0
VERTEX
8
0
10
-4.550000
20
1.920000
0
VERTEX
8
0
10
-4.560000
20
1.920000
0
VERTEX
8
0
10
-4.560000
20
1.890000
0
SEQEND
8
0
0
TEXT
8
0
10
-4.568000
20
2.100000
40
0.080000
41
1.000000
50
90.000000
1
6
0
POLYLINE
8
0
66
1
40
0.016000
41
0.016000
0
VERTEX
8
0
10
-4.500000
20
2.220000
0
VERTEX
8
0
10
-4.500000
20
1.920000
0
VERTEX
8
0
10
-4.510000
20
1.920000
0
VERTEX
8
0
10
-4.510000
20
1.890000
0
SEQEND
8
0
0
TEXT
8
0
10
-4.518000
20
2.100000
40
0.080000
41
1.000000
50
90.000000
1
7
0
POLYLINE
8
0
66
1
40
0.016000
41
0.016000
0
VERTEX
8
0
10
-4.450000
20
2.220000
0
VERTEX
8
0
10
-4.450000
20
1.920000
0
VERTEX
8
0
10
-4.460000
20
1.920000
0
VERTEX
8
0
10
-4.460000
20
1.890000
0
SEQEND
8
0
0
TEXT
8
0
10
-4.468000
20
2.100000
40
0.080000
41
1.000000
50
90.000000
1
8
0
POLYLINE
8
0
66
1
40
0.016000
41
0.016000
0
VERTEX
8
0
10
-4.100000
20
2.220000
0
VERTEX
8
0
10
-4.100000
20
1.920000
0
VERTEX
8
0
10
-4.110000
20
1.920000
0
VERTEX
8
0
10
-4.110000
20
1.890000
0
SEQEND
8
0
0
TEXT
8
0
10
-4.118000
20
2.100000
40
0.080000
41
1.000000
50
90.000000
1
9
0
POLYLINE
8
0
66
1
40
0.016000
41
0.016000
0
VERTEX
8
0
10
-4.050000
20
2.220000
0
VERTEX
8
0
10
-4.050000
20
1.920000
0
VERTEX
8
0
10
-4.060000
20
1.920000
0
VERTEX
8
0
10
-4.060000
20
1.890000
0
SEQEND
8
0
0
TEXT
8
0
10
-4.068000
20
2.100000
40
0.080000
41
1.000000
50
90.000000
1
10
0
POLYLINE
8
0
66
1
40
0.016000
41
0.016000
0
VERTEX
8
0
10
-4.000000
20
2.220000
0
VERTEX
8
0
10
-4.000000
20
1.920000
0
VERTEX
8
0
10
-4.010000
20
1.920000
0
VERTEX
8
0
10
-4.010000
20
1.890000
0
SEQEND
8
0
0
TEXT
8
0
10
-4.018000
20
2.100000
40
0.080000
41
1.000000
50
90.000000
1
11
0
POLYLINE
8
0
66
1
40
0.016000
41
0.016000
0
VERTEX
8
0
10
-3.950000
20
2.220000
0
VERTEX
8
0
10
-3.950000
20
1.920000
0
VERTEX
8
0
10
-3.960000
20
1.920000
0
VERTEX
8
0
10
-3.960000
20
1.890000
0
SEQEND
8
0
0
TEXT
8
0
10
-3.968000
20
2.100000
40
0.080000
41
1.000000
50
90.000000
1
12
0
POLYLINE
8
0
66
1
40
0.016000
41
0.016000
0
VERTEX
8
0
10
-3.900000
20
2.220000
0
VERTEX
8
0
10
-3.900000
20
1.920000
0
VERTEX
8
0
10
-3.910000
20
1.920000
0
VERTEX
8
0
10
-3.910000
20
1.890000
0
SEQEND
8
0
0
TEXT
8
0
10
-3.918000
20
2.100000
40
0.080000
41
1.000000
50
90.000000
1
13
0
POLYLINE
8
0
66
1
40
0.016000
41
0.016000
0
VERTEX
8
0
10
-3.850000
20
2.220000
0
VERTEX
8
0
10
-3.850000
20
1.920000
0
VERTEX
8
0
10
-3.860000
20
1.920000
0
VERTEX
8
0
10
-3.860000
20
1.890000
0
SEQEND
8
0
0
TEXT
8
0
10
-3.868000
20
2.100000
40
0.080000
41
1.000000
50
90.000000
1
14
0
POLYLINE
8
0
66
1
40
0.016000
41
0.016000
0
VERTEX
8
0
10
-3.800000
20
2.220000
0
VERTEX
8
0
10
-3.800000
20
1.920000
0
VERTEX
8
0
10
-3.810000
20
1.920000
0
VERTEX
8
0
10
-3.810000
20
1.890000
0
SEQEND
8
0
0
TEXT
8
0
10
-3.818000
20
2.100000
40
0.080000
41
1.000000
50
90.000000
1
15
0
POLYLINE
8
0
66
1
40
0.016000
41
0.016000
0
VERTEX
8
0
10
-3.750000
20
2.220000
0
VERTEX
8
0
10
-3.750000
20
1.920000
0
VERTEX
8
0
10
-3.760000
20
1.920000
0
VERTEX
8
0
10
-3.760000
20
1.890000
0
SEQEND
8
0
0
TEXT
8
0
10
-3.768000
20
2.100000
40
0.080000
41
1.000000
50
90.000000
1
16
0
POLYLINE
8
0
66
1
40
0.016000
41
0.016000
0
VERTEX
8
0
10
-1.780000
20
2.230000
0
VERTEX
8
0
10
-1.780000
20
1.930000
0
VERTEX
8
0
10
-1.790000
20
1.930000
0
VERTEX
8
0
10
-1.790000
20
1.900000
0
SEQEND
8
0
0
TEXT
8
0
10
-1.798000
20
2.100000
40
0.080000
41
1.000000
50
90.000000
1
17
0
POLYLINE
8
0
66
1
40
0.016000
41
0.016000
0
VERTEX
8
0
10
-1.730000
20
2.230000
0
VERTEX
8
0
10
-1.730000
20
1.930000
0
VERTEX
8
0
10
-1.740000
20
1.930000
0
VERTEX
8
0
10
-1.740000
20
1.900000
0
SEQEND
8
0
0
TEXT
8
0
10
-1.748000
20
2.100000
40
0.080000
41
1.000000
50
90.000000
1
18
0
POLYLINE
8
0
66
1
40
0.016000
41
0.016000
0
VERTEX
8
0
10
-1.680000
20
2.230000
0
VERTEX
8
0
10
-1.680000
20
1.930000
0
VERTEX
8
0
10
-1.690000
20
1.930000
0
VERTEX
8
0
10
-1.690000
20
1.900000
0
SEQEND
8
0
0
TEXT
8
0
10
-1.698000
20
2.100000
40
0.080000
41
1.000000
50
90.000000
1
19
0
POLYLINE
8
0
66
1
40
0.016000
41
0.016000
0
VERTEX
8
0
10
-1.630000
20
2.230000
0
VERTEX
8
0
10
-1.630000
20
1.930000
0
VERTEX
8
0
10
-1.640000
20
1.930000
0
VERTEX
8
0
10
-1.640000
20
1.900000
0
SEQEND
8
0
0
TEXT
8
0
10
-1.648000
20
2.100000
40
0.080000
41
1.000000
50
90.000000
1
20
0
POLYLINE
8
0
66
1
40
0.016000
41
0.016000
0
VERTEX
8
0
10
-1.580000
20
2.230000
0
VERTEX
8
0
10
-1.580000
20
1.930000
0
VERTEX
8
0
10
-1.590000
20
1.930000
0
VERTEX
8
0
10
-1.590000
20
1.900000
0
SEQEND
8
0
0
TEXT
8
0
10
-1.598000
20
2.100000
40
0.080000
41
1.000000
50
90.000000
1
21
0
POLYLINE
8
0
66
1
40
0.016000
41
0.016000
0
VERTEX
8
0
10
-1.530000
20
2.230000
0
VERTEX
8
0
10
-1.530000
20
1.930000
0
VERTEX
8
0
10
-1.540000
20
1.930000
0
VERTEX
8
0
10
-1.540000
20
1.900000
0
SEQEND
8
0
0
TEXT
8
0
10
-1.548000
20
2.100000
40
0.080000
41
1.000000
50
90.000000
1
22
0
POLYLINE
8
0
66
1
40
0.016000
41
0.016000
0
VERTEX
8
0
10
-1.480000
20
2.230000
0
VERTEX
8
0
10
-1.480000
20
1.930000
0
VERTEX
8
0
10
-1.490000
20
1.930000
0
VERTEX
8
0
10
-1.490000
20
1.900000
0
SEQEND
8
0
0
TEXT
8
0
10
-1.498000
20
2.100000
40
0.080000
41
1.000000
50
90.000000
1
23
0
POLYLINE
8
0
66
1
40
0.016000
41
0.016000
0
VERTEX
8
0
10
-1.430000
20
2.230000
0
VERTEX
8
0
10
-1.430000
20
1.930000
0
VERTEX
8
0
10
-1.440000
20
1.930000
0
VERTEX
8
0
10
-1.440000
20
1.900000
0
SEQEND
8
0
0
TEXT
8
0
10
-1.448000
20
2.100000
40
0.080000
41
1.000000
50
90.000000
1
24
0
POLYLINE
8
0
66
1
40
0.016000
41
0.016000
0
VERTEX
8
0
10
-1.080000
20
2.230000
0
VERTEX
8
0
10
-1.080000
20
1.930000
0
VERTEX
8
0
10
-1.090000
20
1.930000
0
VERTEX
8
0
10
-1.090000
20
1.900000
0
SEQEND
8
0
0
TEXT
8
0
10
-1.098000
20
2.100000
40
0.080000
41
1.000000
50
90.000000
1
25
0
POLYLINE
8
0
66
1
40
0.016000
41
0.016000
0
VERTEX
8
0
10
-1.030000
20
2.230000
0
VERTEX
8
0
10
-1.030000
20
1.930000
0
VERTEX
8
0
10
-1.040000
20
1.930000
0
VERTEX
8
0
10
-1.040000
20
1.900000
0
SEQEND
8
0
0
TEXT
8
0
10
-1.048000
20
2.100000
40
0.080000
41
1.000000
50
90.000000
1
26
0
POLYLINE
8
0
66
1
40
0.016000
41
0.016000
0
VERTEX
8
0
10
-0.980000
20
2.230000
0
VERTEX
8
0
10
-0.980000
20
1.930000
0
VERTEX
8
0
10
-0.990000
20
1.930000
0
VERTEX
8
0
10
-0.990000
20
1.900000
0
SEQEND
8
0
0
TEXT
8
0
10
-0.998000
20
2.100000
40
0.080000
41
1.000000
50
90.000000
1
27
0
POLYLINE
8
0
66
1
40
0.016000
41
0.016000
0
VERTEX
8
0
10
-0.930000
20
2.230000
0
VERTEX
8
0
10
-0.930000
20
1.930000
0
VERTEX
8
0
10
-0.940000
20
1.930000
0
VERTEX
8
0
10
-0.940000
20
1.900000
0
SEQEND
8
0
0
TEXT
8
0
10
-0.948000
20
2.100000
40
0.080000
41
1.000000
50
90.000000
1
28
0
POLYLINE
8
0
66
1
40
0.016000
41
0.016000
0
VERTEX
8
0
10
-0.880000
20
2.230000
0
VERTEX
8
0
10
-0.880000
20
1.930000
0
VERTEX
8
0
10
-0.890000
20
1.930000
0
VERTEX
8
0
10
-0.890000
20
1.900000
0
SEQEND
8
0
0
TEXT
8
0
10
-0.898000
20
2.100000
40
0.080000
41
1.000000
50
90.000000
1
29
0
POLYLINE
8
0
66
1
40
0.016000
41
0.016000
0
VERTEX
8
0
10
-0.830000
20
2.230000
0
VERTEX
8
0
10
-0.830000
20
1.930000
0
VERTEX
8
0
10
-0.840000
20
1.930000
0
VERTEX
8
0
10
-0.840000
20
1.900000
0
SEQEND
8
0
0
TEXT
8
0
10
-0.848000
20
2.100000
40
0.080000
41
1.000000
50
90.000000
1
30
0
POLYLINE
8
0
66
1
40
0.016000
41
0.016000
0
VERTEX
8
0
10
-0.780000
20
2.230000
0
VERTEX
8
0
10
-0.780000
20
1.930000
0
VERTEX
8
0
10
-0.790000
20
1.930000
0
VERTEX
8
0
10
-0.790000
20
1.900000
0
SEQEND
8
0
0
TEXT
8
0
10
-0.798000
20
2.100000
40
0.080000
41
1.000000
50
90.000000
1
31
0
POLYLINE
8
0
66
1
40
0.016000
41
0.016000
0
VERTEX
8
0
10
-0.730000
20
2.230000
0
VERTEX
8
0
10
-0.730000
20
1.930000
0
VERTEX
8
0
10
-0.740000
20
1.930000
0
VERTEX
8
0
10
-0.740000
20
1.900000
0
SEQEND
8
0
0
TEXT
8
0
10
-0.748000
20
2.100000
40
0.080000
41
1.000000
50
90.000000
1
32
0
POLYLINE
8
0
66
1
40
0.016000
41
0.016000
0
VERTEX
8
0
10
1.240000
20
2.230000
0
VERTEX
8
0
10
1.240000
20
1.930000
0
VERTEX
8
0
10
1.230000
20
1.930000
0
VERTEX
8
0
10
1.230000
20
1.900000
0
SEQEND
8
0
0
TEXT
8
0
10
1.222000
20
2.100000
40
0.080000
41
1.000000
50
90.000000
1
33
0
POLYLINE
8
0
66
1
40
0.016000
41
0.016000
0
VERTEX
8
0
10
1.290000
20
2.230000
0
VERTEX
8
0
10
1.290000
20
1.930000
0
VERTEX
8
0
10
1.280000
20
1.930000
0
VERTEX
8
0
10
1.280000
20
1.900000
0
SEQEND
8
0
0
TEXT
8
0
10
1.272000
20
2.100000
40
0.080000
41
1.000000
50
90.000000
1
34
0
POLYLINE
8
0
66
1
40
0.016000
41
0.016000
0
VERTEX
8
0
10
1.340000
20
2.230000
0
VERTEX
8
0
10
1.340000
20
1.930000
0
VERTEX
8
0
10
1.330000
20
1.930000
0
VERTEX
8
0
10
1.330000
20
1.900000
0
SEQEND
8
0
0
TEXT
8
0
10
1.322000
20
2.100000
40
0.080000
41
1.000000
50
90.000000
1
35
0
POLYLINE
8
0
66
1
40
0.016000
41
0.016000
0
VERTEX
8
0
10
1.390000
20
2.230000
0
VERTEX
8
0
10
1.390000
20
1.930000
0
VERTEX
8
0
10
1.380000
20
1.930000
0
VERTEX
8
0
10
1.380000
20
1.900000
0
SEQEND
8
0
0
TEXT
8
0
10
1.372000
20
2.100000
40
0.080000
41
1.000000
50
90.000000
1
36
0
POLYLINE
8
0
66
1
40
0.016000
41
0.016000
0
VERTEX
8
0
10
1.440000
20
2.230000
0
VERTEX
8
0
10
1.440000
20
1.930000
0
VERTEX
8
0
10
1.430000
20
1.930000
0
VERTEX
8
0
10
1.430000
20
1.900000
0
SEQEND
8
0
0
TEXT
8
0
10
1.422000
20
2.100000
40
0.080000
41
1.000000
50
90.000000
1
37
0
POLYLINE
8
0
66
1
40
0.016000
41
0.016000
0
VERTEX
8
0
10
1.490000
20
2.230000
0
VERTEX
8
0
10
1.490000
20
1.930000
0
VERTEX
8
0
10
1.480000
20
1.930000
0
VERTEX
8
0
10
1.480000
20
1.900000
0
SEQEND
8
0
0
TEXT
8
0
10
1.472000
20
2.100000
40
0.080000
41
1.000000
50
90.000000
1
38
0
POLYLINE
8
0
66
1
40
0.016000
41
0.016000
0
VERTEX
8
0
10
1.540000
20
2.230000
0
VERTEX
8
0
10
1.540000
20
1.930000
0
VERTEX
8
0
10
1.530000
20
1.930000
0
VERTEX
8
0
10
1.530000
20
1.900000
0
SEQEND
8
0
0
TEXT
8
0
10
1.522000
20
2.100000
40
0.080000
41
1.000000
50
90.000000
1
39
0
POLYLINE
8
0
66
1
40
0.016000
41
0.016000
0
VERTEX
8
0
10
1.590000
20
2.230000
0
VERTEX
8
0
10
1.590000
20
1.930000
0
VERTEX
8
0
10
1.580000
20
1.930000
0
VERTEX
8
0
10
1.580000
20
1.900000
0
SEQEND
8
0
0
TEXT
8
0
10
1.572000
20
2.100000
40
0.080000
41
1.000000
50
90.000000
1
40
0
POLYLINE
8
0
66
1
40
0.016000
41
0.016000
0
VERTEX
8
0
10
1.940000
20
2.230000
0
VERTEX
8
0
10
1.940000
20
1.930000
0
VERTEX
8
0
10
1.930000
20
1.930000
0
VERTEX
8
0
10
1.930000
20
1.900000
0
SEQEND
8
0
0
TEXT
8
0
10
1.922000
20
2.100000
40
0.080000
41
1.000000
50
90.000000
1
41
0
POLYLINE
8
0
66
1
40
0.016000
41
0.016000
0
VERTEX
8
0
10
1.990000
20
2.230000
0
VERTEX
8
0
10
1.990000
20
1.930000
0
VERTEX
8
0
10
1.980000
20
1.930000
0
VERTEX
8
0
10
1.980000
20
1.900000
0
SEQEND
8
0
0
TEXT
8
0
10
1.972000
20
2.100000
40
0.080000
41
1.000000
50
90.000000
1
42
0
POLYLINE
8
0
66
1
40
0.016000
41
0.016000
0
VERTEX
8
0
10
2.040000
20
2.230000
0
VERTEX
8
0
10
2.040000
20
1.930000
0
VERTEX
8
0
10
2.030000
20
1.930000
0
VERTEX
8
0
10
2.030000
20
1.900000
0
SEQEND
8
0
0
TEXT
8
0
10
2.022000
20
2.100000
40
0.080000
41
1.000000
50
90.000000
1
43
0
POLYLINE
8
0
66
1
40
0.016000
41
0.016000
0
VERTEX
8
0
10
2.090000
20
2.230000
0
VERTEX
8
0
10
2.090000
20
1.930000
0
VERTEX
8
0
10
2.080000
20
1.930000
0
VERTEX
8
0
10
2.080000
20
1.900000
0
SEQEND
8
0
0
TEXT
8
0
10
2.072000
20
2.100000
40
0.080000
41
1.000000
50
90.000000
1
44
0
POLYLINE
8
0
66
1
40
0.016000
41
0.016000
0
VERTEX
8
0
10
2.140000
20
2.230000
0
VERTEX
8
0
10
2.140000
20
1.930000
0
VERTEX
8
0
10
2.130000
20
1.930000
0
VERTEX
8
0
10
2.130000
20
1.900000
0
SEQEND
8
0
0
TEXT
8
0
10
2.122000
20
2.100000
40
0.080000
41
1.000000
50
90.000000
1
45
0
POLYLINE
8
0
66
1
40
0.016000
41
0.016000
0
VERTEX
8
0
10
2.190000
20
2.230000
0
VERTEX
8
0
10
2.190000
20
1.930000
0
VERTEX
8
0
10
2.180000
20
1.930000
0
VERTEX
8
0
10
2.180000
20
1.900000
0
SEQEND
8
0
0
TEXT
8
0
10
2.172000
20
2.100000
40
0.080000
41
1.000000
50
90.000000
1
46
0
POLYLINE
8
0
66
1
40
0.016000
41
0.016000
0
VERTEX
8
0
10
2.240000
20
2.230000
0
VERTEX
8
0
10
2.240000
20
1.930000
0
VERTEX
8
0
10
2.230000
20
1.930000
0
VERTEX
8
0
10
2.230000
20
1.900000
0
SEQEND
8
0
0
TEXT
8
0
10
2.222000
20
2.100000
40
0.080000
41
1.000000
50
90.000000
1
47
0
POLYLINE
8
0
66
1
40
0.016000
41
0.016000
0
VERTEX
8
0
10
2.290000
20
2.230000
0
VERTEX
8
0
10
2.290000
20
1.930000
0
VERTEX
8
0
10
2.280000
20
1.930000
0
VERTEX
8
0
10
2.280000
20
1.900000
0
SEQEND
8
0
0
TEXT
8
0
10
2.272000
20
2.100000
40
0.080000
41
1.000000
50
90.000000
1
48
0
POLYLINE
8
0
66
1
40
0.016000
41
0.016000
0
VERTEX
8
0
10
-4.300000
20
2.220000
0
VERTEX
8
0
10
-4.300000
20
2.000000
0
VERTEX
8
0
10
-3.600000
20
2.000000
0
SEQEND
8
0
0
POLYLINE
8
0
66
1
40
0.016000
41
0.016000
0
VERTEX
8
0
10
-3.600000
20
2.220000
0
VERTEX
8
0
10
-3.600000
20
2.000000
0
SEQEND
8
0
0
POLYLINE
8
0
66
1
40
0.016000
41
0.016000
0
VERTEX
8
0
10
-1.280000
20
2.230000
0
VERTEX
8
0
10
-1.280000
20
2.000000
0
SEQEND
8
0
0
POLYLINE
8
0
66
1
40
0.016000
41
0.016000
0
VERTEX
8
0
10
-3.600000
20
2.000000
0
VERTEX
8
0
10
-1.280000
20
2.000000
0
SEQEND
8
0
0
POLYLINE
8
0
66
1
40
0.016000
41
0.016000
0
VERTEX
8
0
10
-0.580000
20
2.230000
0
VERTEX
8
0
10
-0.580000
20
2.000000
0
SEQEND
8
0
0
POLYLINE
8
0
66
1
40
0.016000
41
0.016000
0
VERTEX
8
0
10
-1.280000
20
2.000000
0
VERTEX
8
0
10
-0.580000
20
2.000000
0
SEQEND
8
0
0
POLYLINE
8
0
66
1
40
0.016000
41
0.016000
0
VERTEX
8
0
10
1.740000
20
2.230000
0
VERTEX
8
0
10
1.740000
20
2.000000
0
SEQEND
8
0
0
POLYLINE
8
0
66
1
40
0.016000
41
0.016000
0
VERTEX
8
0
10
-0.580000
20
2.000000
0
VERTEX
8
0
10
1.740000
20
2.000000
0
SEQEND
8
0
0
POLYLINE
8
0
66
1
40
0.016000
41
0.016000
0
VERTEX
8
0
10
2.440000
20
2.230000
0
VERTEX
8
0
10
2.440000
20
2.000000
0
SEQEND
8
0
0
POLYLINE
8
0
66
1
40
0.016000
41
0.016000
0
VERTEX
8
0
10
1.740000
20
2.000000
0
VERTEX
8
0
10
2.440000
20
2.000000
0
SEQEND
8
0
0
POLYLINE
8
0
66
1
40
0.016000
41
0.016000
0
VERTEX
8
0
10
4.200000
20
-2.900000
0
VERTEX
8
0
10
4.100000
20
-2.900000
0
VERTEX
8
0
10
4.100000
20
-3.300000
0
VERTEX
8
0
10
5.300000
20
-3.300000
0
SEQEND
8
0
0
POLYLINE
8
0
66
1
40
0.016000
41
0.016000
0
VERTEX
8
0
10
4.700000
20
-3.200000
0
VERTEX
8
0
10
4.700000
20
-3.900000
0
SEQEND
8
0
0
POLYLINE
8
0
66
1
40
0.016000
41
0.016000
0
VERTEX
8
0
10
-2.700000
20
-1.400000
0
VERTEX
8
0
10
-2.600000
20
-1.400000
0
VERTEX
8
0
10
-1.600000
20
-1.400000
0
VERTEX
8
0
10
-1.500000
20
-1.400000
0
SEQEND
8
0
0
POLYLINE
8
0
66
1
40
0.016000
41
0.016000
0
VERTEX
8
0
10
0.700000
20
-1.400000
0
VERTEX
8
0
10
0.600000
20
-1.400000
0
VERTEX
8
0
10
-0.400000
20
-1.400000
0
VERTEX
8
0
10
-0.500000
20
-1.400000
0
SEQEND
8
0
0
POLYLINE
8
0
66
1
40
0.016000
41
0.016000
0
VERTEX
8
0
10
-1.500000
20
-1.400000
0
VERTEX
8
0
10
-0.500000
20
-1.400000
0
SEQEND
8
0
0
POLYLINE
8
0
66
1
40
0.016000
41
0.016000
0
VERTEX
8
0
10
1.900000
20
-3.400000
0
VERTEX
8
0
10
1.900000
20
-3.500000
0
VERTEX
8
0
10
1.800000
20
-3.500000
0
SEQEND
8
0
0
POLYLINE
8
0
66
1
40
0.016000
41
0.016000
0
VERTEX
8
0
10
1.800000
20
-3.400000
0
VERTEX
8
0
10
1.800000
20
-3.500000
0
SEQEND
8
0
0
POLYLINE
8
0
66
1
40
0.016000
41
0.016000
0
VERTEX
8
0
10
1.700000
20
-3.400000
0
VERTEX
8
0
10
1.700000
20
-3.500000
0
SEQEND
8
0
0
POLYLINE
8
0
66
1
40
0.016000
41
0.016000
0
VERTEX
8
0
10
1.800000
20
-3.500000
0
VERTEX
8
0
10
1.700000
20
-3.500000
0
SEQEND
8
0
0
POLYLINE
8
0
66
1
40
0.016000
41
0.016000
0
VERTEX
8
0
10
-0.400000
20
-3.400000
0
VERTEX
8
0
10
-0.400000
20
-3.500000
0
VERTEX
8
0
10
-0.300000
20
-3.500000
0
SEQEND
8
0
0
POLYLINE
8
0
66
1
40
0.016000
41
0.016000
0
VERTEX
8
0
10
-0.300000
20
-3.400000
0
VERTEX
8
0
10
-0.300000
20
-3.500000
0
VERTEX
8
0
10
-0.200000
20
-3.500000
0
SEQEND
8
0
0
POLYLINE
8
0
66
1
40
0.016000
41
0.016000
0
VERTEX
8
0
10
-0.200000
20
-3.400000
0
VERTEX
8
0
10
-0.200000
20
-3.500000
0
VERTEX
8
0
10
0.600000
20
-3.500000
0
SEQEND
8
0
0
POLYLINE
8
0
66
1
40
0.016000
41
0.016000
0
VERTEX
8
0
10
0.600000
20
-3.400000
0
VERTEX
8
0
10
0.600000
20
-3.500000
0
VERTEX
8
0
10
0.700000
20
-3.500000
0
SEQEND
8
0
0
POLYLINE
8
0
66
1
40
0.016000
41
0.016000
0
VERTEX
8
0
10
0.700000
20
-3.400000
0
VERTEX
8
0
10
0.700000
20
-3.500000
0
VERTEX
8
0
10
0.800000
20
-3.500000
0
SEQEND
8
0
0
POLYLINE
8
0
66
1
40
0.016000
41
0.016000
0
VERTEX
8
0
10
0.800000
20
-3.400000
0
VERTEX
8
0
10
0.800000
20
-3.500000
0
VERTEX
8
0
10
0.900000
20
-3.500000
0
SEQEND
8
0
0
POLYLINE
8
0
66
1
40
0.016000
41
0.016000
0
VERTEX
8
0
10
1.700000
20
-3.500000
0
VERTEX
8
0
10
0.900000
20
-3.500000
0
SEQEND
8
0
0
POLYLINE
8
0
66
1
40
0.016000
41
0.016000
0
VERTEX
8
0
10
0.900000
20
-3.400000
0
VERTEX
8
0
10
0.900000
20
-3.500000
0
SEQEND
8
0
0
POLYLINE
8
0
66
1
40
0.016000
41
0.016000
0
VERTEX
8
0
10
2.000000
20
-3.400000
0
VERTEX
8
0
10
2.000000
20
-3.500000
0
SEQEND
8
0
0
POLYLINE
8
0
66
1
40
0.016000
41
0.016000
0
VERTEX
8
0
10
1.900000
20
-3.500000
0
VERTEX
8
0
10
2.000000
20
-3.500000
0
SEQEND
8
0
0
POLYLINE
8
0
66
1
40
0.016000
41
0.016000
0
VERTEX
8
0
10
2.200000
20
-3.600000
0
VERTEX
8
0
10
2.200000
20
-3.500000
0
VERTEX
8
0
10
2.000000
20
-3.500000
0
SEQEND
8
0
0
POLYLINE
8
0
66
1
40
0.016000
41
0.016000
0
VERTEX
8
0
10
-4.900000
20
-2.100000
0
VERTEX
8
0
10
-4.900000
20
-2.250000
0
SEQEND
8
0
0
POLYLINE
8
0
66
1
40
0.016000
41
0.016000
0
VERTEX
8
0
10
3.200000
20
0.200000
0
VERTEX
8
0
10
3.200000
20
0.300000
0
SEQEND
8
0
0
POLYLINE
8
0
66
1
40
0.016000
41
0.016000
0
VERTEX
8
0
10
4.100000
20
0.200000
0
VERTEX
8
0
10
4.100000
20
0.300000
0
SEQEND
8
0
0
POLYLINE
8
0
66
1
40
0.016000
41
0.016000
0
VERTEX
8
0
10
2.900000
20
-0.100000
0
VERTEX
8
0
10
2.700000
20
-0.100000
0
VERTEX
8
0
10
2.700000
20
-0.200000
0
SEQEND
8
0
0
POLYLINE
8
0
66
1
40
0.016000
41
0.016000
0
VERTEX
8
0
10
3.800000
20
-0.100000
0
VERTEX
8
0
10
3.600000
20
-0.100000
0
VERTEX
8
0
10
3.600000
20
-0.200000
0
SEQEND
8
0
0
POLYLINE
8
0
66
1
40
0.016000
41
0.016000
0
VERTEX
8
0
10
4.800000
20
-0.100000
0
VERTEX
8
0
10
4.600000
20
-0.100000
0
VERTEX
8
0
10
4.600000
20
-0.200000
0
SEQEND
8
0
0
POLYLINE
8
0
66
1
40
0.016000
41
0.016000
0
VERTEX
8
0
10
3.200000
20
-0.400000
0
VERTEX
8
0
10
3.200000
20
-0.900000
0
VERTEX
8
0
10
4.100000
20
-0.900000
0
SEQEND
8
0
0
POLYLINE
8
0
66
1
40
0.016000
41
0.016000
0
VERTEX
8
0
10
4.100000
20
-0.400000
0
VERTEX
8
0
10
4.100000
20
-0.900000
0
VERTEX
8
0
10
4.300000
20
-0.900000
0
SEQEND
8
0
0
POLYLINE
8
0
66
1
40
0.016000
41
0.016000
0
VERTEX
8
0
10
5.100000
20
-0.900000
0
VERTEX
8
0
10
4.300000
20
-0.900000
0
SEQEND
8
0
0
POLYLINE
8
0
66
1
40
0.016000
41
0.016000
0
VERTEX
8
0
10
4.300000
20
-1.000000
0
VERTEX
8
0
10
4.300000
20
-0.900000
0
SEQEND
8
0
0
POLYLINE
8
0
66
1
40
0.016000
41
0.016000
0
VERTEX
8
0
10
3.200000
20
0.800000
0
VERTEX
8
0
10
3.200000
20
1.000000
0
SEQEND
8
0
0
TEXT
8
0
10
3.182000
20
0.900000
40
0.080000
41
1.000000
50
90.000000
1
49
0
POLYLINE
8
0
66
1
40
0.016000
41
0.016000
0
VERTEX
8
0
10
4.100000
20
0.800000
0
VERTEX
8
0
10
4.100000
20
1.000000
0
SEQEND
8
0
0
TEXT
8
0
10
4.082000
20
0.900000
40
0.080000
41
1.000000
50
90.000000
1
50
0
POLYLINE
8
0
66
1
40
0.016000
41
0.016000
0
VERTEX
8
0
10
5.100000
20
0.800000
0
VERTEX
8
0
10
5.100000
20
1.000000
0
SEQEND
8
0
0
TEXT
8
0
10
5.082000
20
0.900000
40
0.080000
41
1.000000
50
90.000000
1
51
0
POLYLINE
8
0
66
1
40
0.016000
41
0.016000
0
VERTEX
8
0
10
5.500000
20
-0.700000
0
VERTEX
8
0
10
5.500000
20
-0.800000
0
VERTEX
8
0
10
4.600000
20
-0.800000
0
SEQEND
8
0
0
POLYLINE
8
0
66
1
40
0.016000
41
0.016000
0
VERTEX
8
0
10
4.600000
20
-0.700000
0
VERTEX
8
0
10
4.600000
20
-0.800000
0
VERTEX
8
0
10
3.600000
20
-0.800000
0
SEQEND
8
0
0
POLYLINE
8
0
66
1
40
0.016000
41
0.016000
0
VERTEX
8
0
10
3.600000
20
-0.700000
0
VERTEX
8
0
10
3.600000
20
-0.800000
0
SEQEND
8
0
0
POLYLINE
8
0
66
1
40
0.016000
41
0.016000
0
VERTEX
8
0
10
-2.890000
20
3.100000
0
VERTEX
8
0
10
-3.000000
20
3.100000
0
SEQEND
8
0
0
POLYLINE
8
0
66
1
40
0.016000
41
0.016000
0
VERTEX
8
0
10
-2.890000
20
2.700000
0
VERTEX
8
0
10
-3.000000
20
2.700000
0
VERTEX
8
0
10
-3.000000
20
3.100000
0
SEQEND
8
0
0
POLYLINE
8
0
66
1
40
0.016000
41
0.016000
0
VERTEX
8
0
10
-3.000000
20
3.300000
0
VERTEX
8
0
10
-3.000000
20
3.100000
0
SEQEND
8
0
0
POLYLINE
8
0
66
1
40
0.016000
41
0.016000
0
VERTEX
8
0
10
-2.490000
20
3.100000
0
VERTEX
8
0
10
-2.300000
20
3.100000
0
SEQEND
8
0
0
TEXT
8
0
10
-2.400000
20
3.118000
40
0.080000
41
1.000000
1
49
0
POLYLINE
8
0
66
1
40
0.016000
41
0.016000
0
VERTEX
8
0
10
-2.490000
20
2.700000
0
VERTEX
8
0
10
-2.300000
20
2.700000
0
SEQEND
8
0
0
TEXT
8
0
10
-2.400000
20
2.718000
40
0.080000
41
1.000000
1
50
0
POLYLINE
8
0
66
1
40
0.016000
41
0.016000
0
VERTEX
8
0
10
0.110000
20
3.100000
0
VERTEX
8
0
10
0.000000
20
3.100000
0
SEQEND
8
0
0
POLYLINE
8
0
66
1
40
0.016000
41
0.016000
0
VERTEX
8
0
10
0.110000
20
2.700000
0
VERTEX
8
0
10
0.000000
20
2.700000
0
VERTEX
8
0
10
0.000000
20
3.100000
0
SEQEND
8
0
0
POLYLINE
8
0
66
1
40
0.016000
41
0.016000
0
VERTEX
8
0
10
0.000000
20
3.300000
0
VERTEX
8
0
10
0.000000
20
3.100000
0
SEQEND
8
0
0
POLYLINE
8
0
66
1
40
0.016000
41
0.016000
0
VERTEX
8
0
10
0.510000
20
3.100000
0
VERTEX
8
0
10
0.700000
20
3.100000
0
SEQEND
8
0
0
TEXT
8
0
10
0.600000
20
3.118000
40
0.080000
41
1.000000
1
51
0
POLYLINE
8
0
66
1
40
0.016000
41
0.016000
0
VERTEX
8
0
10
0.510000
20
2.700000
0
VERTEX
8
0
10
0.700000
20
2.700000
0
SEQEND
8
0
0
TEXT
8
0
10
0.600000
20
2.718000
40
0.080000
41
1.000000
1
52
0
POLYLINE
8
0
66
1
40
0.016000
41
0.016000
0
VERTEX
8
0
10
2.700000
20
-0.700000
0
VERTEX
8
0
10
2.700000
20
-0.800000
0
SEQEND
8
0
0
POLYLINE
8
0
66
1
40
0.016000
41
0.016000
0
VERTEX
8
0
10
3.600000
20
-0.800000
0
VERTEX
8
0
10
2.700000
20
-0.800000
0
SEQEND
8
0
0
POLYLINE
8
0
66
1
40
0.016000
41
0.016000
0
VERTEX
8
0
10
5.200000
20
-2.100000
0
VERTEX
8
0
10
5.400000
20
-2.100000
0
VERTEX
8
0
10
5.400000
20
-1.300000
0
VERTEX
8
0
10
2.700000
20
-1.300000
0
SEQEND
8
0
0
POLYLINE
8
0
66
1
40
0.016000
41
0.016000
0
VERTEX
8
0
10
1.300000
20
-3.400000
0
VERTEX
8
0
10
1.300000
20
-4.000000
0
VERTEX
8
0
10
2.700000
20
-4.000000
0
VERTEX
8
0
10
2.700000
20
-1.300000
0
SEQEND
8
0
0
POLYLINE
8
0
66
1
40
0.016000
41
0.016000
0
VERTEX
8
0
10
2.700000
20
-0.800000
0
VERTEX
8
0
10
2.700000
20
-1.300000
0
SEQEND
8
0
0
POLYLINE
8
0
66
1
40
0.016000
41
0.016000
0
VERTEX
8
0
10
-0.500000
20
-3.400000
0
VERTEX
8
0
10
-0.500000
20
-3.500000
0
SEQEND
8
0
0
POLYLINE
8
0
66
1
40
0.016000
41
0.016000
0
VERTEX
8
0
10
-0.400000
20
-3.500000
0
VERTEX
8
0
10
-0.500000
20
-3.500000
0
SEQEND
8
0
0
POLYLINE
8
0
66
1
40
0.016000
41
0.016000
0
VERTEX
8
0
10
-1.300000
20
-3.400000
0
VERTEX
8
0
10
-1.300000
20
-3.500000
0
SEQEND
8
0
0
POLYLINE
8
0
66
1
40
0.016000
41
0.016000
0
VERTEX
8
0
10
-0.500000
20
-3.500000
0
VERTEX
8
0
10
-1.300000
20
-3.500000
0
SEQEND
8
0
0
POLYLINE
8
0
66
1
40
0.016000
41
0.016000
0
VERTEX
8
0
10
-1.400000
20
-3.400000
0
VERTEX
8
0
10
-1.400000
20
-3.500000
0
SEQEND
8
0
0
POLYLINE
8
0
66
1
40
0.016000
41
0.016000
0
VERTEX
8
0
10
-1.300000
20
-3.500000
0
VERTEX
8
0
10
-1.400000
20
-3.500000
0
SEQEND
8
0
0
POLYLINE
8
0
66
1
40
0.016000
41
0.016000
0
VERTEX
8
0
10
-1.500000
20
-3.400000
0
VERTEX
8
0
10
-1.500000
20
-3.500000
0
SEQEND
8
0
0
POLYLINE
8
0
66
1
40
0.016000
41
0.016000
0
VERTEX
8
0
10
-1.400000
20
-3.500000
0
VERTEX
8
0
10
-1.500000
20
-3.500000
0
SEQEND
8
0
0
POLYLINE
8
0
66
1
40
0.016000
41
0.016000
0
VERTEX
8
0
10
-1.600000
20
-3.400000
0
VERTEX
8
0
10
-1.600000
20
-3.500000
0
SEQEND
8
0
0
POLYLINE
8
0
66
1
40
0.016000
41
0.016000
0
VERTEX
8
0
10
-1.500000
20
-3.500000
0
VERTEX
8
0
10
-1.600000
20
-3.500000
0
SEQEND
8
0
0
POLYLINE
8
0
66
1
40
0.016000
41
0.016000
0
VERTEX
8
0
10
-2.400000
20
-3.400000
0
VERTEX
8
0
10
-2.400000
20
-3.500000
0
SEQEND
8
0
0
POLYLINE
8
0
66
1
40
0.016000
41
0.016000
0
VERTEX
8
0
10
-1.600000
20
-3.500000
0
VERTEX
8
0
10
-2.400000
20
-3.500000
0
SEQEND
8
0
0
POLYLINE
8
0
66
1
40
0.016000
41
0.016000
0
VERTEX
8
0
10
-2.500000
20
-3.400000
0
VERTEX
8
0
10
-2.500000
20
-3.500000
0
SEQEND
8
0
0
POLYLINE
8
0
66
1
40
0.016000
41
0.016000
0
VERTEX
8
0
10
-2.400000
20
-3.500000
0
VERTEX
8
0
10
-2.500000
20
-3.500000
0
SEQEND
8
0
0
POLYLINE
8
0
66
1
40
0.016000
41
0.016000
0
VERTEX
8
0
10
-2.600000
20
-3.400000
0
VERTEX
8
0
10
-2.600000
20
-3.500000
0
SEQEND
8
0
0
POLYLINE
8
0
66
1
40
0.016000
41
0.016000
0
VERTEX
8
0
10
-2.500000
20
-3.500000
0
VERTEX
8
0
10
-2.600000
20
-3.500000
0
SEQEND
8
0
0
POLYLINE
8
0
66
1
40
0.016000
41
0.016000
0
VERTEX
8
0
10
-2.700000
20
-3.400000
0
VERTEX
8
0
10
-2.700000
20
-3.500000
0
SEQEND
8
0
0
POLYLINE
8
0
66
1
40
0.016000
41
0.016000
0
VERTEX
8
0
10
-2.600000
20
-3.500000
0
VERTEX
8
0
10
-2.700000
20
-3.500000
0
VERTEX
8
0
10
-3.600000
20
-3.500000
0
SEQEND
8
0
0
POLYLINE
8
0
66
1
40
0.016000
41
0.016000
0
VERTEX
8
0
10
-3.600000
20
-3.400000
0
VERTEX
8
0
10
-3.600000
20
-3.500000
0
VERTEX
8
0
10
-3.700000
20
-3.500000
0
SEQEND
8
0
0
POLYLINE
8
0
66
1
40
0.016000
41
0.016000
0
VERTEX
8
0
10
-3.700000
20
-3.400000
0
VERTEX
8
0
10
-3.700000
20
-3.500000
0
SEQEND
8
0
0
POLYLINE
8
0
66
1
40
0.016000
41
0.016000
0
VERTEX
8
0
10
-3.900000
20
-3.400000
0
VERTEX
8
0
10
-3.900000
20
-3.500000
0
VERTEX
8
0
10
-3.800000
20
-3.500000
0
SEQEND
8
0
0
POLYLINE
8
0
66
1
40
0.016000
41
0.016000
0
VERTEX
8
0
10
-3.700000
20
-3.500000
0
VERTEX
8
0
10
-3.800000
20
-3.500000
0
SEQEND
8
0
0
POLYLINE
8
0
66
1
40
0.016000
41
0.016000
0
VERTEX
8
0
10
-3.800000
20
-3.400000
0
VERTEX
8
0
10
-3.800000
20
-3.500000
0
SEQEND
8
0
0
POLYLINE
8
0
66
1
40
0.016000
41
0.016000
0
VERTEX
8
0
10
-4.300000
20
-2.200000
0
VERTEX
8
0
10
-4.300000
20
-1.600000
0
SEQEND
8
0
0
POLYLINE
8
0
66
1
40
0.016000
41
0.016000
0
VERTEX
8
0
10
-4.200000
20
-3.400000
0
VERTEX
8
0
10
-4.200000
20
-3.600000
0
VERTEX
8
0
10
-4.500000
20
-3.600000
0
VERTEX
8
0
10
-4.500000
20
-1.600000
0
VERTEX
8
0
10
-4.300000
20
-1.600000
0
SEQEND
8
0
0
POLYLINE
8
0
66
1
40
0.016000
41
0.016000
0
VERTEX
8
0
10
0.200000
20
-2.200000
0
VERTEX
8
0
10
0.200000
20
-1.600000
0
SEQEND
8
0
0
POLYLINE
8
0
66
1
40
0.016000
41
0.016000
0
VERTEX
8
0
10
0.300000
20
-3.400000
0
VERTEX
8
0
10
0.300000
20
-3.600000
0
VERTEX
8
0
10
0.000000
20
-3.600000
0
VERTEX
8
0
10
0.000000
20
-1.600000
0
VERTEX
8
0
10
0.200000
20
-1.600000
0
SEQEND
8
0
0
POLYLINE
8
0
66
1
40
0.016000
41
0.016000
0
VERTEX
8
0
10
-0.900000
20
-2.200000
0
VERTEX
8
0
10
-0.900000
20
-1.600000
0
SEQEND
8
0
0
POLYLINE
8
0
66
1
40
0.016000
41
0.016000
0
VERTEX
8
0
10
-0.800000
20
-3.400000
0
VERTEX
8
0
10
-0.800000
20
-3.600000
0
VERTEX
8
0
10
-1.100000
20
-3.600000
0
VERTEX
8
0
10
-1.100000
20
-1.600000
0
VERTEX
8
0
10
-0.900000
20
-1.600000
0
SEQEND
8
0
0
POLYLINE
8
0
66
1
40
0.016000
41
0.016000
0
VERTEX
8
0
10
-2.000000
20
-2.200000
0
VERTEX
8
0
10
-2.000000
20
-1.600000
0
SEQEND
8
0
0
POLYLINE
8
0
66
1
40
0.016000
41
0.016000
0
VERTEX
8
0
10
-1.900000
20
-3.400000
0
VERTEX
8
0
10
-1.900000
20
-3.600000
0
VERTEX
8
0
10
-2.200000
20
-3.600000
0
VERTEX
8
0
10
-2.200000
20
-1.600000
0
VERTEX
8
0
10
-2.000000
20
-1.600000
0
SEQEND
8
0
0
POLYLINE
8
0
66
1
40
0.016000
41
0.016000
0
VERTEX
8
0
10
-3.100000
20
-2.200000
0
VERTEX
8
0
10
-3.100000
20
-1.600000
0
SEQEND
8
0
0
POLYLINE
8
0
66
1
40
0.016000
41
0.016000
0
VERTEX
8
0
10
-3.000000
20
-3.400000
0
VERTEX
8
0
10
-3.000000
20
-3.600000
0
VERTEX
8
0
10
-3.300000
20
-3.600000
0
VERTEX
8
0
10
-3.300000
20
-1.600000
0
VERTEX
8
0
10
-3.100000
20
-1.600000
0
SEQEND
8
0
0
POLYLINE
8
0
66
1
40
0.016000
41
0.016000
0
VERTEX
8
0
10
1.400000
20
-2.200000
0
VERTEX
8
0
10
1.400000
20
-1.300000
0
SEQEND
8
0
0
POLYLINE
8
0
66
1
40
0.016000
41
0.016000
0
VERTEX
8
0
10
1.500000
20
-2.200000
0
VERTEX
8
0
10
1.500000
20
-1.300000
0
SEQEND
8
0
0
POLYLINE
8
0
66
1
40
0.016000
41
0.016000
0
VERTEX
8
0
10
0.200000
20
-1.600000
0
VERTEX
8
0
10
0.200000
20
-1.300000
0
SEQEND
8
0
0
POLYLINE
8
0
66
1
40
0.016000
41
0.016000
0
VERTEX
8
0
10
0.300000
20
-2.200000
0
VERTEX
8
0
10
0.300000
20
-1.300000
0
SEQEND
8
0
0
POLYLINE
8
0
66
1
40
0.016000
41
0.016000
0
VERTEX
8
0
10
0.400000
20
-2.200000
0
VERTEX
8
0
10
0.400000
20
-1.300000
0
SEQEND
8
0
0
POLYLINE
8
0
66
1
40
0.016000
41
0.016000
0
VERTEX
8
0
10
0.600000
20
-1.400000
0
VERTEX
8
0
10
0.600000
20
-1.300000
0
SEQEND
8
0
0
POLYLINE
8
0
66
1
40
0.016000
41
0.016000
0
VERTEX
8
0
10
0.700000
20
-1.400000
0
VERTEX
8
0
10
0.700000
20
-1.300000
0
SEQEND
8
0
0
POLYLINE
8
0
66
1
40
0.016000
41
0.016000
0
VERTEX
8
0
10
-0.900000
20
-1.600000
0
VERTEX
8
0
10
-0.900000
20
-1.300000
0
SEQEND
8
0
0
POLYLINE
8
0
66
1
40
0.016000
41
0.016000
0
VERTEX
8
0
10
-0.800000
20
-2.200000
0
VERTEX
8
0
10
-0.800000
20
-1.300000
0
SEQEND
8
0
0
POLYLINE
8
0
66
1
40
0.016000
41
0.016000
0
VERTEX
8
0
10
-0.700000
20
-2.200000
0
VERTEX
8
0
10
-0.700000
20
-1.300000
0
SEQEND
8
0
0
POLYLINE
8
0
66
1
40
0.016000
41
0.016000
0
VERTEX
8
0
10
-0.500000
20
-1.400000
0
VERTEX
8
0
10
-0.500000
20
-1.300000
0
SEQEND
8
0
0
POLYLINE
8
0
66
1
40
0.016000
41
0.016000
0
VERTEX
8
0
10
-0.400000
20
-1.400000
0
VERTEX
8
0
10
-0.400000
20
-1.300000
0
SEQEND
8
0
0
POLYLINE
8
0
66
1
40
0.016000
41
0.016000
0
VERTEX
8
0
10
-2.000000
20
-1.600000
0
VERTEX
8
0
10
-2.000000
20
-1.300000
0
SEQEND
8
0
0
POLYLINE
8
0
66
1
40
0.016000
41
0.016000
0
VERTEX
8
0
10
-1.900000
20
-2.200000
0
VERTEX
8
0
10
-1.900000
20
-1.300000
0
SEQEND
8
0
0
POLYLINE
8
0
66
1
40
0.016000
41
0.016000
0
VERTEX
8
0
10
-1.800000
20
-2.200000
0
VERTEX
8
0
10
-1.800000
20
-1.300000
0
SEQEND
8
0
0
POLYLINE
8
0
66
1
40
0.016000
41
0.016000
0
VERTEX
8
0
10
-1.600000
20
-1.400000
0
VERTEX
8
0
10
-1.600000
20
-1.300000
0
SEQEND
8
0
0
POLYLINE
8
0
66
1
40
0.016000
41
0.016000
0
VERTEX
8
0
10
-1.500000
20
-1.400000
0
VERTEX
8
0
10
-1.500000
20
-1.300000
0
SEQEND
8
0
0
POLYLINE
8
0
66
1
40
0.016000
41
0.016000
0
VERTEX
8
0
10
-3.100000
20
-1.600000
0
VERTEX
8
0
10
-3.100000
20
-1.300000
0
SEQEND
8
0
0
POLYLINE
8
0
66
1
40
0.016000
41
0.016000
0
VERTEX
8
0
10
-3.000000
20
-2.200000
0
VERTEX
8
0
10
-3.000000
20
-1.300000
0
SEQEND
8
0
0
POLYLINE
8
0
66
1
40
0.016000
41
0.016000
0
VERTEX
8
0
10
-2.900000
20
-2.200000
0
VERTEX
8
0
10
-2.900000
20
-1.300000
0
SEQEND
8
0
0
POLYLINE
8
0
66
1
40
0.016000
41
0.016000
0
VERTEX
8
0
10
-2.700000
20
-1.400000
0
VERTEX
8
0
10
-2.700000
20
-1.300000
0
SEQEND
8
0
0
POLYLINE
8
0
66
1
40
0.016000
41
0.016000
0
VERTEX
8
0
10
-2.600000
20
-1.400000
0
VERTEX
8
0
10
-2.600000
20
-1.300000
0
SEQEND
8
0
0
POLYLINE
8
0
66
1
40
0.016000
41
0.016000
0
VERTEX
8
0
10
-4.300000
20
-1.600000
0
VERTEX
8
0
10
-4.300000
20
-1.300000
0
SEQEND
8
0
0
POLYLINE
8
0
66
1
40
0.016000
41
0.016000
0
VERTEX
8
0
10
-4.200000
20
-2.200000
0
VERTEX
8
0
10
-4.200000
20
-1.300000
0
SEQEND
8
0
0
POLYLINE
8
0
66
1
40
0.016000
41
0.016000
0
VERTEX
8
0
10
-4.100000
20
-2.200000
0
VERTEX
8
0
10
-4.100000
20
-1.300000
0
SEQEND
8
0
0
POLYLINE
8
0
66
1
40
0.016000
41
0.016000
0
VERTEX
8
0
10
-4.000000
20
-2.200000
0
VERTEX
8
0
10
-4.000000
20
-1.300000
0
SEQEND
8
0
0
POLYLINE
8
0
66
1
40
0.016000
41
0.016000
0
VERTEX
8
0
10
-3.900000
20
-1.300000
0
VERTEX
8
0
10
-3.900000
20
-1.400000
0
VERTEX
8
0
10
-3.800000
20
-1.400000
0
SEQEND
8
0
0
POLYLINE
8
0
66
1
40
0.016000
41
0.016000
0
VERTEX
8
0
10
-3.800000
20
-1.300000
0
VERTEX
8
0
10
-3.800000
20
-1.400000
0
SEQEND
8
0
0
POLYLINE
8
0
66
1
40
0.016000
41
0.016000
0
VERTEX
8
0
10
-2.700000
20
-1.400000
0
VERTEX
8
0
10
-3.800000
20
-1.400000
0
SEQEND
8
0
0
POLYLINE
8
0
66
1
40
0.016000
41
0.016000
0
VERTEX
8
0
10
2.300000
20
-1.300000
0
VERTEX
8
0
10
2.300000
20
-1.400000
0
VERTEX
8
0
10
1.800000
20
-1.400000
0
SEQEND
8
0
0
POLYLINE
8
0
66
1
40
0.016000
41
0.016000
0
VERTEX
8
0
10
1.800000
20
-1.300000
0
VERTEX
8
0
10
1.800000
20
-1.400000
0
SEQEND
8
0
0
POLYLINE
8
0
66
1
40
0.016000
41
0.016000
0
VERTEX
8
0
10
0.700000
20
-1.400000
0
VERTEX
8
0
10
1.700000
20
-1.400000
0
SEQEND
8
0
0
POLYLINE
8
0
66
1
40
0.016000
41
0.016000
0
VERTEX
8
0
10
1.800000
20
-1.400000
0
VERTEX
8
0
10
1.700000
20
-1.400000
0
SEQEND
8
0
0
POLYLINE
8
0
66
1
40
0.016000
41
0.016000
0
VERTEX
8
0
10
1.700000
20
-1.300000
0
VERTEX
8
0
10
1.700000
20
-1.400000
0
SEQEND
8
0
0
POLYLINE
8
0
66
1
40
0.016000
41
0.016000
0
VERTEX
8
0
10
-4.900000
20
-0.800000
0
VERTEX
8
0
10
-4.900000
20
-0.700000
0
SEQEND
8
0
0
POLYLINE
8
0
66
1
40
0.016000
41
0.016000
0
VERTEX
8
0
10
-4.900000
20
-1.300000
0
VERTEX
8
0
10
-4.900000
20
-1.500000
0
SEQEND
8
0
0
POLYLINE
8
0
66
1
40
0.016000
41
0.016000
0
VERTEX
8
0
10
-4.900000
20
-1.600000
0
VERTEX
8
0
10
-4.900000
20
-1.500000
0
SEQEND
8
0
0
POLYLINE
8
0
66
1
40
0.016000
41
0.016000
0
VERTEX
8
0
10
1.900000
20
-1.300000
0
VERTEX
8
0
10
1.900000
20
-1.500000
0
VERTEX
8
0
10
0.800000
20
-1.500000
0
SEQEND
8
0
0
POLYLINE
8
0
66
1
40
0.016000
41
0.016000
0
VERTEX
8
0
10
0.800000
20
-1.300000
0
VERTEX
8
0
10
0.800000
20
-1.500000
0
VERTEX
8
0
10
-0.300000
20
-1.500000
0
SEQEND
8
0
0
POLYLINE
8
0
66
1
40
0.016000
41
0.016000
0
VERTEX
8
0
10
-0.300000
20
-1.300000
0
VERTEX
8
0
10
-0.300000
20
-1.500000
0
VERTEX
8
0
10
-1.400000
20
-1.500000
0
SEQEND
8
0
0
POLYLINE
8
0
66
1
40
0.016000
41
0.016000
0
VERTEX
8
0
10
-1.400000
20
-1.300000
0
VERTEX
8
0
10
-1.400000
20
-1.500000
0
VERTEX
8
0
10
-2.500000
20
-1.500000
0
SEQEND
8
0
0
POLYLINE
8
0
66
1
40
0.016000
41
0.016000
0
VERTEX
8
0
10
-2.500000
20
-1.300000
0
VERTEX
8
0
10
-2.500000
20
-1.500000
0
SEQEND
8
0
0
POLYLINE
8
0
66
1
40
0.016000
41
0.016000
0
VERTEX
8
0
10
-4.900000
20
-1.500000
0
VERTEX
8
0
10
-3.700000
20
-1.500000
0
SEQEND
8
0
0
POLYLINE
8
0
66
1
40
0.016000
41
0.016000
0
VERTEX
8
0
10
-2.500000
20
-1.500000
0
VERTEX
8
0
10
-3.700000
20
-1.500000
0
SEQEND
8
0
0
POLYLINE
8
0
66
1
40
0.016000
41
0.016000
0
VERTEX
8
0
10
-3.700000
20
-1.300000
0
VERTEX
8
0
10
-3.700000
20
-1.500000
0
SEQEND
8
0
0
POLYLINE
8
0
66
1
40
0.016000
41
0.016000
0
VERTEX
8
0
10
1.300000
20
-0.100000
0
VERTEX
8
0
10
1.300000
20
0.100000
0
SEQEND
8
0
0
TEXT
8
0
10
1.282000
20
0.000000
40
0.080000
41
1.000000
50
90.000000
1
41
0
POLYLINE
8
0
66
1
40
0.016000
41
0.016000
0
VERTEX
8
0
10
1.400000
20
-0.100000
0
VERTEX
8
0
10
1.400000
20
0.100000
0
SEQEND
8
0
0
TEXT
8
0
10
1.382000
20
0.000000
40
0.080000
41
1.000000
50
90.000000
1
42
0
POLYLINE
8
0
66
1
40
0.016000
41
0.016000
0
VERTEX
8
0
10
1.500000
20
-0.100000
0
VERTEX
8
0
10
1.500000
20
0.100000
0
SEQEND
8
0
0
TEXT
8
0
10
1.482000
20
0.000000
40
0.080000
41
1.000000
50
90.000000
1
43
0
POLYLINE
8
0
66
1
40
0.016000
41
0.016000
0
VERTEX
8
0
10
1.600000
20
-0.100000
0
VERTEX
8
0
10
1.600000
20
0.100000
0
SEQEND
8
0
0
TEXT
8
0
10
1.582000
20
0.000000
40
0.080000
41
1.000000
50
90.000000
1
44
0
POLYLINE
8
0
66
1
40
0.016000
41
0.016000
0
VERTEX
8
0
10
1.700000
20
-0.100000
0
VERTEX
8
0
10
1.700000
20
0.100000
0
SEQEND
8
0
0
TEXT
8
0
10
1.682000
20
0.000000
40
0.080000
41
1.000000
50
90.000000
1
45
0
POLYLINE
8
0
66
1
40
0.016000
41
0.016000
0
VERTEX
8
0
10
1.800000
20
-0.100000
0
VERTEX
8
0
10
1.800000
20
0.100000
0
SEQEND
8
0
0
TEXT
8
0
10
1.782000
20
0.000000
40
0.080000
41
1.000000
50
90.000000
1
46
0
POLYLINE
8
0
66
1
40
0.016000
41
0.016000
0
VERTEX
8
0
10
1.900000
20
-0.100000
0
VERTEX
8
0
10
1.900000
20
0.100000
0
SEQEND
8
0
0
TEXT
8
0
10
1.882000
20
0.000000
40
0.080000
41
1.000000
50
90.000000
1
47
0
POLYLINE
8
0
66
1
40
0.016000
41
0.016000
0
VERTEX
8
0
10
-4.300000
20
-0.100000
0
VERTEX
8
0
10
-4.300000
20
0.100000
0
SEQEND
8
0
0
TEXT
8
0
10
-4.318000
20
0.000000
40
0.080000
41
1.000000
50
90.000000
1
1
0
POLYLINE
8
0
66
1
40
0.016000
41
0.016000
0
VERTEX
8
0
10
-4.200000
20
-0.100000
0
VERTEX
8
0
10
-4.200000
20
0.100000
0
SEQEND
8
0
0
TEXT
8
0
10
-4.218000
20
0.000000
40
0.080000
41
1.000000
50
90.000000
1
2
0
POLYLINE
8
0
66
1
40
0.016000
41
0.016000
0
VERTEX
8
0
10
-4.100000
20
-0.100000
0
VERTEX
8
0
10
-4.100000
20
0.100000
0
SEQEND
8
0
0
TEXT
8
0
10
-4.118000
20
0.000000
40
0.080000
41
1.000000
50
90.000000
1
3
0
POLYLINE
8
0
66
1
40
0.016000
41
0.016000
0
VERTEX
8
0
10
-4.000000
20
-0.100000
0
VERTEX
8
0
10
-4.000000
20
0.100000
0
SEQEND
8
0
0
TEXT
8
0
10
-4.018000
20
0.000000
40
0.080000
41
1.000000
50
90.000000
1
4
0
POLYLINE
8
0
66
1
40
0.016000
41
0.016000
0
VERTEX
8
0
10
-3.900000
20
-0.100000
0
VERTEX
8
0
10
-3.900000
20
0.100000
0
SEQEND
8
0
0
TEXT
8
0
10
-3.918000
20
0.000000
40
0.080000
41
1.000000
50
90.000000
1
5
0
POLYLINE
8
0
66
1
40
0.016000
41
0.016000
0
VERTEX
8
0
10
-3.800000
20
-0.100000
0
VERTEX
8
0
10
-3.800000
20
0.100000
0
SEQEND
8
0
0
TEXT
8
0
10
-3.818000
20
0.000000
40
0.080000
41
1.000000
50
90.000000
1
6
0
POLYLINE
8
0
66
1
40
0.016000
41
0.016000
0
VERTEX
8
0
10
-3.700000
20
-0.100000
0
VERTEX
8
0
10
-3.700000
20
0.100000
0
SEQEND
8
0
0
TEXT
8
0
10
-3.718000
20
0.000000
40
0.080000
41
1.000000
50
90.000000
1
7
0
POLYLINE
8
0
66
1
40
0.016000
41
0.016000
0
VERTEX
8
0
10
-3.100000
20
-0.100000
0
VERTEX
8
0
10
-3.100000
20
0.100000
0
SEQEND
8
0
0
TEXT
8
0
10
-3.118000
20
0.000000
40
0.080000
41
1.000000
50
90.000000
1
9
0
POLYLINE
8
0
66
1
40
0.016000
41
0.016000
0
VERTEX
8
0
10
-3.000000
20
-0.100000
0
VERTEX
8
0
10
-3.000000
20
0.100000
0
SEQEND
8
0
0
TEXT
8
0
10
-3.018000
20
0.000000
40
0.080000
41
1.000000
50
90.000000
1
10
0
POLYLINE
8
0
66
1
40
0.016000
41
0.016000
0
VERTEX
8
0
10
-2.900000
20
-0.100000
0
VERTEX
8
0
10
-2.900000
20
0.100000
0
SEQEND
8
0
0
TEXT
8
0
10
-2.918000
20
0.000000
40
0.080000
41
1.000000
50
90.000000
1
11
0
POLYLINE
8
0
66
1
40
0.016000
41
0.016000
0
VERTEX
8
0
10
-2.800000
20
-0.100000
0
VERTEX
8
0
10
-2.800000
20
0.100000
0
SEQEND
8
0
0
TEXT
8
0
10
-2.818000
20
0.000000
40
0.080000
41
1.000000
50
90.000000
1
12
0
POLYLINE
8
0
66
1
40
0.016000
41
0.016000
0
VERTEX
8
0
10
-2.700000
20
-0.100000
0
VERTEX
8
0
10
-2.700000
20
0.100000
0
SEQEND
8
0
0
TEXT
8
0
10
-2.718000
20
0.000000
40
0.080000
41
1.000000
50
90.000000
1
13
0
POLYLINE
8
0
66
1
40
0.016000
41
0.016000
0
VERTEX
8
0
10
-2.600000
20
-0.100000
0
VERTEX
8
0
10
-2.600000
20
0.100000
0
SEQEND
8
0
0
TEXT
8
0
10
-2.618000
20
0.000000
40
0.080000
41
1.000000
50
90.000000
1
14
0
POLYLINE
8
0
66
1
40
0.016000
41
0.016000
0
VERTEX
8
0
10
-2.500000
20
-0.100000
0
VERTEX
8
0
10
-2.500000
20
0.100000
0
SEQEND
8
0
0
TEXT
8
0
10
-2.518000
20
0.000000
40
0.080000
41
1.000000
50
90.000000
1
15
0
POLYLINE
8
0
66
1
40
0.016000
41
0.016000
0
VERTEX
8
0
10
-2.000000
20
-0.100000
0
VERTEX
8
0
10
-2.000000
20
0.100000
0
SEQEND
8
0
0
TEXT
8
0
10
-2.018000
20
0.000000
40
0.080000
41
1.000000
50
90.000000
1
17
0
POLYLINE
8
0
66
1
40
0.016000
41
0.016000
0
VERTEX
8
0
10
-1.900000
20
-0.100000
0
VERTEX
8
0
10
-1.900000
20
0.100000
0
SEQEND
8
0
0
TEXT
8
0
10
-1.918000
20
0.000000
40
0.080000
41
1.000000
50
90.000000
1
18
0
POLYLINE
8
0
66
1
40
0.016000
41
0.016000
0
VERTEX
8
0
10
-1.800000
20
-0.100000
0
VERTEX
8
0
10
-1.800000
20
0.100000
0
SEQEND
8
0
0
TEXT
8
0
10
-1.818000
20
0.000000
40
0.080000
41
1.000000
50
90.000000
1
19
0
POLYLINE
8
0
66
1
40
0.016000
41
0.016000
0
VERTEX
8
0
10
-1.700000
20
-0.100000
0
VERTEX
8
0
10
-1.700000
20
0.100000
0
SEQEND
8
0
0
TEXT
8
0
10
-1.718000
20
0.000000
40
0.080000
41
1.000000
50
90.000000
1
20
0
POLYLINE
8
0
66
1
40
0.016000
41
0.016000
0
VERTEX
8
0
10
-1.600000
20
-0.100000
0
VERTEX
8
0
10
-1.600000
20
0.100000
0
SEQEND
8
0
0
TEXT
8
0
10
-1.618000
20
0.000000
40
0.080000
41
1.000000
50
90.000000
1
21
0
POLYLINE
8
0
66
1
40
0.016000
41
0.016000
0
VERTEX
8
0
10
-1.500000
20
-0.100000
0
VERTEX
8
0
10
-1.500000
20
0.100000
0
SEQEND
8
0
0
TEXT
8
0
10
-1.518000
20
0.000000
40
0.080000
41
1.000000
50
90.000000
1
22
0
POLYLINE
8
0
66
1
40
0.016000
41
0.016000
0
VERTEX
8
0
10
-1.400000
20
-0.100000
0
VERTEX
8
0
10
-1.400000
20
0.100000
0
SEQEND
8
0
0
TEXT
8
0
10
-1.418000
20
0.000000
40
0.080000
41
1.000000
50
90.000000
1
23
0
POLYLINE
8
0
66
1
40
0.016000
41
0.016000
0
VERTEX
8
0
10
-0.900000
20
-0.100000
0
VERTEX
8
0
10
-0.900000
20
0.100000
0
SEQEND
8
0
0
TEXT
8
0
10
-0.918000
20
0.000000
40
0.080000
41
1.000000
50
90.000000
1
25
0
POLYLINE
8
0
66
1
40
0.016000
41
0.016000
0
VERTEX
8
0
10
-0.800000
20
-0.100000
0
VERTEX
8
0
10
-0.800000
20
0.100000
0
SEQEND
8
0
0
TEXT
8
0
10
-0.818000
20
0.000000
40
0.080000
41
1.000000
50
90.000000
1
26
0
POLYLINE
8
0
66
1
40
0.016000
41
0.016000
0
VERTEX
8
0
10
-0.700000
20
-0.100000
0
VERTEX
8
0
10
-0.700000
20
0.100000
0
SEQEND
8
0
0
TEXT
8
0
10
-0.718000
20
0.000000
40
0.080000
41
1.000000
50
90.000000
1
27
0
POLYLINE
8
0
66
1
40
0.016000
41
0.016000
0
VERTEX
8
0
10
-0.600000
20
-0.100000
0
VERTEX
8
0
10
-0.600000
20
0.100000
0
SEQEND
8
0
0
TEXT
8
0
10
-0.618000
20
0.000000
40
0.080000
41
1.000000
50
90.000000
1
28
0
POLYLINE
8
0
66
1
40
0.016000
41
0.016000
0
VERTEX
8
0
10
-0.500000
20
-0.100000
0
VERTEX
8
0
10
-0.500000
20
0.100000
0
SEQEND
8
0
0
TEXT
8
0
10
-0.518000
20
0.000000
40
0.080000
41
1.000000
50
90.000000
1
29
0
POLYLINE
8
0
66
1
40
0.016000
41
0.016000
0
VERTEX
8
0
10
-0.400000
20
-0.100000
0
VERTEX
8
0
10
-0.400000
20
0.100000
0
SEQEND
8
0
0
TEXT
8
0
10
-0.418000
20
0.000000
40
0.080000
41
1.000000
50
90.000000
1
30
0
POLYLINE
8
0
66
1
40
0.016000
41
0.016000
0
VERTEX
8
0
10
-0.300000
20
-0.100000
0
VERTEX
8
0
10
-0.300000
20
0.100000
0
SEQEND
8
0
0
TEXT
8
0
10
-0.318000
20
0.000000
40
0.080000
41
1.000000
50
90.000000
1
31
0
POLYLINE
8
0
66
1
40
0.016000
41
0.016000
0
VERTEX
8
0
10
0.200000
20
-0.100000
0
VERTEX
8
0
10
0.200000
20
0.100000
0
SEQEND
8
0
0
TEXT
8
0
10
0.182000
20
0.000000
40
0.080000
41
1.000000
50
90.000000
1
33
0
POLYLINE
8
0
66
1
40
0.016000
41
0.016000
0
VERTEX
8
0
10
0.300000
20
-0.100000
0
VERTEX
8
0
10
0.300000
20
0.100000
0
SEQEND
8
0
0
TEXT
8
0
10
0.282000
20
0.000000
40
0.080000
41
1.000000
50
90.000000
1
34
0
POLYLINE
8
0
66
1
40
0.016000
41
0.016000
0
VERTEX
8
0
10
0.400000
20
-0.100000
0
VERTEX
8
0
10
0.400000
20
0.100000
0
SEQEND
8
0
0
TEXT
8
0
10
0.382000
20
0.000000
40
0.080000
41
1.000000
50
90.000000
1
35
0
POLYLINE
8
0
66
1
40
0.016000
41
0.016000
0
VERTEX
8
0
10
0.500000
20
-0.100000
0
VERTEX
8
0
10
0.500000
20
0.100000
0
SEQEND
8
0
0
TEXT
8
0
10
0.482000
20
0.000000
40
0.080000
41
1.000000
50
90.000000
1
36
0
POLYLINE
8
0
66
1
40
0.016000
41
0.016000
0
VERTEX
8
0
10
0.600000
20
-0.100000
0
VERTEX
8
0
10
0.600000
20
0.100000
0
SEQEND
8
0
0
TEXT
8
0
10
0.582000
20
0.000000
40
0.080000
41
1.000000
50
90.000000
1
37
0
POLYLINE
8
0
66
1
40
0.016000
41
0.016000
0
VERTEX
8
0
10
0.700000
20
-0.100000
0
VERTEX
8
0
10
0.700000
20
0.100000
0
SEQEND
8
0
0
TEXT
8
0
10
0.682000
20
0.000000
40
0.080000
41
1.000000
50
90.000000
1
38
0
POLYLINE
8
0
66
1
40
0.016000
41
0.016000
0
VERTEX
8
0
10
0.800000
20
-0.100000
0
VERTEX
8
0
10
0.800000
20
0.100000
0
SEQEND
8
0
0
TEXT
8
0
10
0.782000
20
0.000000
40
0.080000
41
1.000000
50
90.000000
1
39
0
POLYLINE
8
0
66
1
40
0.016000
41
0.016000
0
VERTEX
8
0
10
2.440000
20
2.000000
0
VERTEX
8
0
10
2.800000
20
2.000000
0
SEQEND
8
0
0
POLYLINE
8
0
66
1
40
0.016000
41
0.016000
0
VERTEX
8
0
10
3.300000
20
2.000000
0
VERTEX
8
0
10
3.400000
20
2.000000
0
VERTEX
8
0
10
3.400000
20
2.100000
0
SEQEND
8
0
0
POLYLINE
8
0
66
1
40
0.016000
41
0.016000
0
VERTEX
8
0
10
-0.600000
20
0.700000
0
VERTEX
8
0
10
-0.600000
20
0.800000
0
VERTEX
8
0
10
-0.800000
20
0.800000
0
SEQEND
8
0
0
POLYLINE
8
0
66
1
40
0.016000
41
0.016000
0
VERTEX
8
0
10
-0.800000
20
0.900000
0
VERTEX
8
0
10
-0.800000
20
0.800000
0
VERTEX
8
0
10
-1.300000
20
0.800000
0
SEQEND
8
0
0
POLYLINE
8
0
66
1
40
0.016000
41
0.016000
0
VERTEX
8
0
10
-1.300000
20
0.900000
0
VERTEX
8
0
10
-1.300000
20
0.800000
0
VERTEX
8
0
10
-1.800000
20
0.800000
0
SEQEND
8
0
0
POLYLINE
8
0
66
1
40
0.016000
41
0.016000
0
VERTEX
8
0
10
-1.800000
20
0.900000
0
VERTEX
8
0
10
-1.800000
20
0.800000
0
VERTEX
8
0
10
-2.300000
20
0.800000
0
SEQEND
8
0
0
POLYLINE
8
0
66
1
40
0.016000
41
0.016000
0
VERTEX
8
0
10
-2.300000
20
0.900000
0
VERTEX
8
0
10
-2.300000
20
0.800000
0
SEQEND
8
0
0
POLYLINE
8
0
66
1
40
0.016000
41
0.016000
0
VERTEX
8
0
10
-3.300000
20
0.900000
0
VERTEX
8
0
10
-3.300000
20
0.800000
0
VERTEX
8
0
10
-2.800000
20
0.800000
0
SEQEND
8
0
0
POLYLINE
8
0
66
1
40
0.016000
41
0.016000
0
VERTEX
8
0
10
-2.300000
20
0.800000
0
VERTEX
8
0
10
-2.800000
20
0.800000
0
SEQEND
8
0
0
POLYLINE
8
0
66
1
40
0.016000
41
0.016000
0
VERTEX
8
0
10
-2.800000
20
0.900000
0
VERTEX
8
0
10
-2.800000
20
0.800000
0
SEQEND
8
0
0
POLYLINE
8
0
66
1
40
0.016000
41
0.016000
0
VERTEX
8
0
10
-3.300000
20
1.400000
0
VERTEX
8
0
10
-3.300000
20
1.600000
0
SEQEND
8
0
0
TEXT
8
0
10
-3.318000
20
1.500000
40
0.080000
41
1.000000
50
90.000000
1
8
0
POLYLINE
8
0
66
1
40
0.016000
41
0.016000
0
VERTEX
8
0
10
-2.800000
20
1.400000
0
VERTEX
8
0
10
-2.800000
20
1.600000
0
SEQEND
8
0
0
TEXT
8
0
10
-2.818000
20
1.500000
40
0.080000
41
1.000000
50
90.000000
1
16
0
POLYLINE
8
0
66
1
40
0.016000
41
0.016000
0
VERTEX
8
0
10
-2.300000
20
1.400000
0
VERTEX
8
0
10
-2.300000
20
1.600000
0
SEQEND
8
0
0
TEXT
8
0
10
-2.318000
20
1.500000
40
0.080000
41
1.000000
50
90.000000
1
24
0
POLYLINE
8
0
66
1
40
0.016000
41
0.016000
0
VERTEX
8
0
10
-1.800000
20
1.400000
0
VERTEX
8
0
10
-1.800000
20
1.600000
0
SEQEND
8
0
0
TEXT
8
0
10
-1.818000
20
1.500000
40
0.080000
41
1.000000
50
90.000000
1
32
0
POLYLINE
8
0
66
1
40
0.016000
41
0.016000
0
VERTEX
8
0
10
-1.300000
20
1.400000
0
VERTEX
8
0
10
-1.300000
20
1.600000
0
SEQEND
8
0
0
TEXT
8
0
10
-1.318000
20
1.500000
40
0.080000
41
1.000000
50
90.000000
1
40
0
POLYLINE
8
0
66
1
40
0.016000
41
0.016000
0
VERTEX
8
0
10
-0.800000
20
1.400000
0
VERTEX
8
0
10
-0.800000
20
1.600000
0
SEQEND
8
0
0
TEXT
8
0
10
-0.818000
20
1.500000
40
0.080000
41
1.000000
50
90.000000
1
48
0
POLYLINE
8
0
66
1
40
0.016000
41
0.016000
0
VERTEX
8
0
10
1.300000
20
-2.200000
0
VERTEX
8
0
10
1.300000
20
-1.600000
0
SEQEND
8
0
0
POLYLINE
8
0
66
1
40
0.016000
41
0.016000
0
VERTEX
8
0
10
1.300000
20
-1.300000
0
VERTEX
8
0
10
1.300000
20
-1.600000
0
SEQEND
8
0
0
POLYLINE
8
0
66
1
40
0.016000
41
0.016000
0
VERTEX
8
0
10
1.400000
20
-3.400000
0
VERTEX
8
0
10
1.400000
20
-3.600000
0
VERTEX
8
0
10
1.100000
20
-3.600000
0
VERTEX
8
0
10
1.100000
20
-1.600000
0
VERTEX
8
0
10
1.300000
20
-1.600000
0
SEQEND
8
0
0
POLYLINE
8
0
66
1
40
0.016000
41
0.016000
0
VERTEX
8
0
10
1.600000
20
-2.200000
0
VERTEX
8
0
10
1.600000
20
-2.100000
0
SEQEND
8
0
0
POLYLINE
8
0
66
1
40
0.016000
41
0.016000
0
VERTEX
8
0
10
1.600000
20
-1.300000
0
VERTEX
8
0
10
1.600000
20
-2.100000
0
SEQEND
8
0
0
POLYLINE
8
0
66
1
40
0.016000
41
0.016000
0
VERTEX
8
0
10
0.200000
20
-3.400000
0
VERTEX
8
0
10
0.200000
20
-3.900000
0
VERTEX
8
0
10
2.500000
20
-3.900000
0
VERTEX
8
0
10
2.500000
20
-2.100000
0
VERTEX
8
0
10
1.600000
20
-2.100000
0
SEQEND
8
0
0
POLYLINE
8
0
66
1
40
0.016000
41
0.016000
0
VERTEX
8
0
10
0.500000
20
-2.200000
0
VERTEX
8
0
10
0.500000
20
-2.000000
0
SEQEND
8
0
0
POLYLINE
8
0
66
1
40
0.016000
41
0.016000
0
VERTEX
8
0
10
0.500000
20
-1.300000
0
VERTEX
8
0
10
0.500000
20
-2.000000
0
SEQEND
8
0
0
POLYLINE
8
0
66
1
40
0.016000
41
0.016000
0
VERTEX
8
0
10
-0.900000
20
-3.400000
0
VERTEX
8
0
10
-0.900000
20
-4.100000
0
VERTEX
8
0
10
2.600000
20
-4.100000
0
VERTEX
8
0
10
2.600000
20
-2.000000
0
VERTEX
8
0
10
0.500000
20
-2.000000
0
SEQEND
8
0
0
POLYLINE
8
0
66
1
40
0.016000
41
0.016000
0
VERTEX
8
0
10
-0.600000
20
-2.200000
0
VERTEX
8
0
10
-0.600000
20
-1.900000
0
SEQEND
8
0
0
POLYLINE
8
0
66
1
40
0.016000
41
0.016000
0
VERTEX
8
0
10
-0.600000
20
-1.300000
0
VERTEX
8
0
10
-0.600000
20
-1.900000
0
SEQEND
8
0
0
POLYLINE
8
0
66
1
40
0.016000
41
0.016000
0
VERTEX
8
0
10
-2.000000
20
-3.400000
0
VERTEX
8
0
10
-2.000000
20
-4.200000
0
VERTEX
8
0
10
2.800000
20
-4.200000
0
VERTEX
8
0
10
2.800000
20
-1.900000
0
VERTEX
8
0
10
-0.600000
20
-1.900000
0
SEQEND
8
0
0
POLYLINE
8
0
66
1
40
0.016000
41
0.016000
0
VERTEX
8
0
10
-1.700000
20
-2.200000
0
VERTEX
8
0
10
-1.700000
20
-1.800000
0
SEQEND
8
0
0
POLYLINE
8
0
66
1
40
0.016000
41
0.016000
0
VERTEX
8
0
10
-1.700000
20
-1.300000
0
VERTEX
8
0
10
-1.700000
20
-1.800000
0
SEQEND
8
0
0
POLYLINE
8
0
66
1
40
0.016000
41
0.016000
0
VERTEX
8
0
10
-3.100000
20
-3.400000
0
VERTEX
8
0
10
-3.100000
20
-4.300000
0
VERTEX
8
0
10
2.900000
20
-4.300000
0
VERTEX
8
0
10
2.900000
20
-1.800000
0
VERTEX
8
0
10
-1.700000
20
-1.800000
0
SEQEND
8
0
0
POLYLINE
8
0
66
1
40
0.016000
41
0.016000
0
VERTEX
8
0
10
-2.800000
20
-2.200000
0
VERTEX
8
0
10
-2.800000
20
-1.700000
0
SEQEND
8
0
0
POLYLINE
8
0
66
1
40
0.016000
41
0.016000
0
VERTEX
8
0
10
-2.800000
20
-1.300000
0
VERTEX
8
0
10
-2.800000
20
-1.700000
0
SEQEND
8
0
0
POLYLINE
8
0
66
1
40
0.016000
41
0.016000
0
VERTEX
8
0
10
-4.300000
20
-3.400000
0
VERTEX
8
0
10
-4.300000
20
-4.400000
0
VERTEX
8
0
10
3.000000
20
-4.400000
0
VERTEX
8
0
10
3.000000
20
-1.700000
0
VERTEX
8
0
10
-2.800000
20
-1.700000
0
SEQEND
8
0
0
POLYLINE
8
0
66
1
40
0.016000
41
0.016000
0
VERTEX
8
0
10
4.400000
20
-3.000000
0
VERTEX
8
0
10
5.000000
20
-3.000000
0
VERTEX
8
0
10
5.000000
20
-2.000000
0
VERTEX
8
0
10
4.400000
20
-2.000000
0
VERTEX
8
0
10
4.400000
20
-3.000000
0
SEQEND
8
0
0
CIRCLE
8
0
10
4.370000
20
-2.100000
40
0.030000
0
POLYLINE
8
0
66
1
40
0.016000
41
0.016000
0
VERTEX
8
0
10
4.200000
20
-2.100000
0
VERTEX
8
0
10
4.340000
20
-2.100000
0
SEQEND
8
0
0
TEXT
8
0
10
4.450000
20
-2.140000
40
0.080000
41
1.000000
1
R
0
TEXT
8
0
10
4.220000
20
-2.090000
40
0.080000
41
1.000000
1
4
0
POLYLINE
8
0
66
1
40
0.016000
41
0.016000
0
VERTEX
8
0
10
5.200000
20
-2.300000
0
VERTEX
8
0
10
5.000000
20
-2.300000
0
SEQEND
8
0
0
TEXT
8
0
10
4.790000
20
-2.340000
40
0.080000
41
1.000000
1
DC
0
TEXT
8
0
10
5.100000
20
-2.290000
40
0.080000
41
1.000000
1
7
0
POLYLINE
8
0
66
1
40
0.016000
41
0.016000
0
VERTEX
8
0
10
5.200000
20
-2.100000
0
VERTEX
8
0
10
5.000000
20
-2.100000
0
SEQEND
8
0
0
TEXT
8
0
10
4.870000
20
-2.140000
40
0.080000
41
1.000000
1
Q
0
TEXT
8
0
10
5.100000
20
-2.090000
40
0.080000
41
1.000000
1
3
0
POLYLINE
8
0
66
1
40
0.016000
41
0.016000
0
VERTEX
8
0
10
4.700000
20
-3.200000
0
VERTEX
8
0
10
4.700000
20
-3.000000
0
SEQEND
8
0
0
TEXT
8
0
10
4.740000
20
-2.950000
40
0.080000
41
1.000000
50
90.000000
1
GND
0
TEXT
8
0
10
4.690000
20
-3.180000
40
0.080000
41
1.000000
50
90.000000
1
1
0
POLYLINE
8
0
66
1
40
0.016000
41
0.016000
0
VERTEX
8
0
10
4.700000
20
-1.800000
0
VERTEX
8
0
10
4.700000
20
-2.000000
0
SEQEND
8
0
0
TEXT
8
0
10
4.740000
20
-2.290000
40
0.080000
41
1.000000
50
90.000000
1
VCC
0
TEXT
8
0
10
4.690000
20
-1.900000
40
0.080000
41
1.000000
50
90.000000
1
8
0
POLYLINE
8
0
66
1
40
0.016000
41
0.016000
0
VERTEX
8
0
10
4.200000
20
-2.900000
0
VERTEX
8
0
10
4.400000
20
-2.900000
0
SEQEND
8
0
0
TEXT
8
0
10
4.450000
20
-2.940000
40
0.080000
41
1.000000
1
TR
0
TEXT
8
0
10
4.220000
20
-2.890000
40
0.080000
41
1.000000
1
2
0
POLYLINE
8
0
66
1
40
0.016000
41
0.016000
0
VERTEX
8
0
10
5.200000
20
-2.900000
0
VERTEX
8
0
10
5.000000
20
-2.900000
0
SEQEND
8
0
0
TEXT
8
0
10
4.790000
20
-2.940000
40
0.080000
41
1.000000
1
TH
0
TEXT
8
0
10
5.100000
20
-2.890000
40
0.080000
41
1.000000
1
6
0
POLYLINE
8
0
66
1
40
0.016000
41
0.016000
0
VERTEX
8
0
10
4.200000
20
-2.500000
0
VERTEX
8
0
10
4.400000
20
-2.500000
0
SEQEND
8
0
0
TEXT
8
0
10
4.450000
20
-2.540000
40
0.080000
41
1.000000
1
CV
0
TEXT
8
0
10
4.220000
20
-2.490000
40
0.080000
41
1.000000
1
5
0
TEXT
8
0
10
5.008004
20
-1.877000
40
0.120000
41
0.666667
1
U1
0
TEXT
8
0
10
5.008004
20
-3.198000
40
0.080000
41
1.000000
1
555
0
POLYLINE
8
0
66
1
40
0.016000
41
0.016000
0
VERTEX
8
0
10
4.650000
20
-1.500000
0
VERTEX
8
0
10
4.700000
20
-1.400000
0
VERTEX
8
0
10
4.750000
20
-1.500000
0
VERTEX
8
0
10
4.650000
20
-1.500000
0
SEQEND
8
0
0
POLYLINE
8
0
66
1
40
0.016000
41
0.016000
0
VERTEX
8
0
10
4.700000
20
-1.600000
0
VERTEX
8
0
10
4.700000
20
-1.400000
0
SEQEND
8
0
0
CIRCLE
8
0
10
4.700000
20
-1.700000
40
0.020000
0
POLYLINE
8
0
66
1
40
0.016000
41
0.016000
0
VERTEX
8
0
10
3.930000
20
-2.400000
0
VERTEX
8
0
10
3.930000
20
-2.600000
0
SEQEND
8
0
0
POLYLINE
8
0
66
1
40
0.016000
41
0.016000
0
VERTEX
8
0
10
3.870000
20
-2.400000
0
VERTEX
8
0
10
3.870000
20
-2.600000
0
SEQEND
8
0
0
POLYLINE
8
0
66
1
40
0.016000
41
0.016000
0
VERTEX
8
0
10
3.870000
20
-2.500000
0
VERTEX
8
0
10
3.800000
20
-2.500000
0
SEQEND
8
0
0
POLYLINE
8
0
66
1
40
0.016000
41
0.016000
0
VERTEX
8
0
10
3.930000
20
-2.500000
0
VERTEX
8
0
10
4.000000
20
-2.500000
0
SEQEND
8
0
0
POLYLINE
8
0
66
1
40
0.016000
41
0.016000
0
VERTEX
8
0
10
4.100000
20
-2.500000
0
VERTEX
8
0
10
4.000000
20
-2.500000
0
SEQEND
8
0
0
POLYLINE
8
0
66
1
40
0.016000
41
0.016000
0
VERTEX
8
0
10
3.700000
20
-2.500000
0
VERTEX
8
0
10
3.800000
20
-2.500000
0
SEQEND
8
0
0
TEXT
8
0
10
3.792000
20
-2.377000
40
0.120000
41
0.666667
1
C1
0
TEXT
8
0
10
3.792000
20
-2.698000
40
0.080000
41
1.000000
1
0.01uF
0
POLYLINE
8
0
66
1
40
0.016000
41
0.016000
0
VERTEX
8
0
10
3.600000
20
-2.600000
0
VERTEX
8
0
10
3.600000
20
-2.700000
0
SEQEND
8
0
0
POLYLINE
8
0
66
1
40
0.016000
41
0.016000
0
VERTEX
8
0
10
3.500000
20
-2.700000
0
VERTEX
8
0
10
3.700000
20
-2.700000
0
SEQEND
8
0
0
POLYLINE
8
0
66
1
40
0.016000
41
0.016000
0
VERTEX
8
0
10
3.550000
20
-2.750000
0
VERTEX
8
0
10
3.650000
20
-2.750000
0
SEQEND
8
0
0
POLYLINE
8
0
66
1
40
0.016000
41
0.016000
0
VERTEX
8
0
10
3.590000
20
-2.800000
0
VERTEX
8
0
10
3.610000
20
-2.800000
0
SEQEND
8
0
0
POLYLINE
8
0
66
1
40
0.016000
41
0.016000
0
VERTEX
8
0
10
1.200000
20
-3.200000
0
VERTEX
8
0
10
2.100000
20
-3.200000
0
VERTEX
8
0
10
2.100000
20
-2.400000
0
VERTEX
8
0
10
1.200000
20
-2.400000
0
VERTEX
8
0
10
1.200000
20
-3.200000
0
SEQEND
8
0
0
POLYLINE
8
0
66
1
40
0.016000
41
0.016000
0
VERTEX
8
0
10
1.270000
20
-3.200000
0
VERTEX
8
0
10
1.300000
20
-3.170000
0
VERTEX
8
0
10
1.330000
20
-3.200000
0
VERTEX
8
0
10
1.270000
20
-3.200000
0
SEQEND
8
0
0
POLYLINE
8
0
66
1
40
0.016000
41
0.016000
0
VERTEX
8
0
10
1.300000
20
-3.400000
0
VERTEX
8
0
10
1.300000
20
-3.260000
0
SEQEND
8
0
0
CIRCLE
8
0
10
1.300000
20
-3.230000
40
0.030000
0
TEXT
8
0
10
1.340000
20
-3.150000
40
0.080000
41
1.000000
50
90.000000
1
CKA
0
TEXT
8
0
10
1.290000
20
-3.460000
40
0.080000
41
1.000000
50
90.000000
1
14
0
POLYLINE
8
0
66
1
40
0.016000
41
0.016000
0
VERTEX
8
0
10
1.300000
20
-2.200000
0
VERTEX
8
0
10
1.300000
20
-2.400000
0
SEQEND
8
0
0
TEXT
8
0
10
1.340000
20
-2.610000
40
0.080000
41
1.000000
50
90.000000
1
Q0
0
TEXT
8
0
10
1.290000
20
-2.300000
40
0.080000
41
1.000000
50
90.000000
1
12
0
POLYLINE
8
0
66
1
40
0.016000
41
0.016000
0
VERTEX
8
0
10
1.370000
20
-3.200000
0
VERTEX
8
0
10
1.400000
20
-3.170000
0
VERTEX
8
0
10
1.430000
20
-3.200000
0
VERTEX
8
0
10
1.370000
20
-3.200000
0
SEQEND
8
0
0
POLYLINE
8
0
66
1
40
0.016000
41
0.016000
0
VERTEX
8
0
10
1.400000
20
-3.400000
0
VERTEX
8
0
10
1.400000
20
-3.260000
0
SEQEND
8
0
0
CIRCLE
8
0
10
1.400000
20
-3.230000
40
0.030000
0
TEXT
8
0
10
1.440000
20
-3.150000
40
0.080000
41
1.000000
50
90.000000
1
CKB
0
TEXT
8
0
10
1.390000
20
-3.380000
40
0.080000
41
1.000000
50
90.000000
1
1
0
POLYLINE
8
0
66
1
40
0.016000
41
0.016000
0
VERTEX
8
0
10
1.400000
20
-2.200000
0
VERTEX
8
0
10
1.400000
20
-2.400000
0
SEQEND
8
0
0
TEXT
8
0
10
1.440000
20
-2.610000
40
0.080000
41
1.000000
50
90.000000
1
Q1
0
TEXT
8
0
10
1.390000
20
-2.300000
40
0.080000
41
1.000000
50
90.000000
1
9
0
POLYLINE
8
0
66
1
40
0.016000
41
0.016000
0
VERTEX
8
0
10
1.500000
20
-2.200000
0
VERTEX
8
0
10
1.500000
20
-2.400000
0
SEQEND
8
0
0
TEXT
8
0
10
1.540000
20
-2.610000
40
0.080000
41
1.000000
50
90.000000
1
Q2
0
TEXT
8
0
10
1.490000
20
-2.300000
40
0.080000
41
1.000000
50
90.000000
1
8
0
POLYLINE
8
0
66
1
40
0.016000
41
0.016000
0
VERTEX
8
0
10
1.600000
20
-2.200000
0
VERTEX
8
0
10
1.600000
20
-2.400000
0
SEQEND
8
0
0
TEXT
8
0
10
1.640000
20
-2.610000
40
0.080000
41
1.000000
50
90.000000
1
Q3
0
TEXT
8
0
10
1.590000
20
-2.300000
40
0.080000
41
1.000000
50
90.000000
1
11
0
POLYLINE
8
0
66
1
40
0.016000
41
0.016000
0
VERTEX
8
0
10
1.700000
20
-3.400000
0
VERTEX
8
0
10
1.700000
20
-3.200000
0
SEQEND
8
0
0
TEXT
8
0
10
1.740000
20
-3.150000
40
0.080000
41
1.000000
50
90.000000
1
R0(1)
0
TEXT
8
0
10
1.690000
20
-3.380000
40
0.080000
41
1.000000
50
90.000000
1
2
0
POLYLINE
8
0
66
1
40
0.016000
41
0.016000
0
VERTEX
8
0
10
1.800000
20
-3.400000
0
VERTEX
8
0
10
1.800000
20
-3.200000
0
SEQEND
8
0
0
TEXT
8
0
10
1.840000
20
-3.150000
40
0.080000
41
1.000000
50
90.000000
1
R0(2)
0
TEXT
8
0
10
1.790000
20
-3.380000
40
0.080000
41
1.000000
50
90.000000
1
3
0
POLYLINE
8
0
66
1
40
0.016000
41
0.016000
0
VERTEX
8
0
10
1.900000
20
-3.400000
0
VERTEX
8
0
10
1.900000
20
-3.200000
0
SEQEND
8
0
0
TEXT
8
0
10
1.940000
20
-3.150000
40
0.080000
41
1.000000
50
90.000000
1
R9(1)
0
TEXT
8
0
10
1.890000
20
-3.380000
40
0.080000
41
1.000000
50
90.000000
1
6
0
POLYLINE
8
0
66
1
40
0.016000
41
0.016000
0
VERTEX
8
0
10
2.000000
20
-3.400000
0
VERTEX
8
0
10
2.000000
20
-3.200000
0
SEQEND
8
0
0
TEXT
8
0
10
2.040000
20
-3.150000
40
0.080000
41
1.000000
50
90.000000
1
R9(2)
0
TEXT
8
0
10
1.990000
20
-3.380000
40
0.080000
41
1.000000
50
90.000000
1
7
0
TEXT
8
0
10
2.158000
20
-2.527000
40
0.120000
41
0.666667
1
U6
0
TEXT
8
0
10
2.158000
20
-2.632000
40
0.080000
41
1.000000
1
74LS90
0
POLYLINE
8
0
66
1
40
0.016000
41
0.016000
0
VERTEX
8
0
10
-2.100000
20
-3.200000
0
VERTEX
8
0
10
-1.200000
20
-3.200000
0
VERTEX
8
0
10
-1.200000
20
-2.400000
0
VERTEX
8
0
10
-2.100000
20
-2.400000
0
VERTEX
8
0
10
-2.100000
20
-3.200000
0
SEQEND
8
0
0
POLYLINE
8
0
66
1
40
0.016000
41
0.016000
0
VERTEX
8
0
10
-2.030000
20
-3.200000
0
VERTEX
8
0
10
-2.000000
20
-3.170000
0
VERTEX
8
0
10
-1.970000
20
-3.200000
0
VERTEX
8
0
10
-2.030000
20
-3.200000
0
SEQEND
8
0
0
POLYLINE
8
0
66
1
40
0.016000
41
0.016000
0
VERTEX
8
0
10
-2.000000
20
-3.400000
0
VERTEX
8
0
10
-2.000000
20
-3.260000
0
SEQEND
8
0
0
CIRCLE
8
0
10
-2.000000
20
-3.230000
40
0.030000
0
TEXT
8
0
10
-1.960000
20
-3.150000
40
0.080000
41
1.000000
50
90.000000
1
CKA
0
TEXT
8
0
10
-2.010000
20
-3.460000
40
0.080000
41
1.000000
50
90.000000
1
14
0
POLYLINE
8
0
66
1
40
0.016000
41
0.016000
0
VERTEX
8
0
10
-2.000000
20
-2.200000
0
VERTEX
8
0
10
-2.000000
20
-2.400000
0
SEQEND
8
0
0
TEXT
8
0
10
-1.960000
20
-2.610000
40
0.080000
41
1.000000
50
90.000000
1
Q0
0
TEXT
8
0
10
-2.010000
20
-2.300000
40
0.080000
41
1.000000
50
90.000000
1
12
0
POLYLINE
8
0
66
1
40
0.016000
41
0.016000
0
VERTEX
8
0
10
-1.930000
20
-3.200000
0
VERTEX
8
0
10
-1.900000
20
-3.170000
0
VERTEX
8
0
10
-1.870000
20
-3.200000
0
VERTEX
8
0
10
-1.930000
20
-3.200000
0
SEQEND
8
0
0
POLYLINE
8
0
66
1
40
0.016000
41
0.016000
0
VERTEX
8
0
10
-1.900000
20
-3.400000
0
VERTEX
8
0
10
-1.900000
20
-3.260000
0
SEQEND
8
0
0
CIRCLE
8
0
10
-1.900000
20
-3.230000
40
0.030000
0
TEXT
8
0
10
-1.860000
20
-3.150000
40
0.080000
41
1.000000
50
90.000000
1
CKB
0
TEXT
8
0
10
-1.910000
20
-3.380000
40
0.080000
41
1.000000
50
90.000000
1
1
0
POLYLINE
8
0
66
1
40
0.016000
41
0.016000
0
VERTEX
8
0
10
-1.900000
20
-2.200000
0
VERTEX
8
0
10
-1.900000
20
-2.400000
0
SEQEND
8
0
0
TEXT
8
0
10
-1.860000
20
-2.610000
40
0.080000
41
1.000000
50
90.000000
1
Q1
0
TEXT
8
0
10
-1.910000
20
-2.300000
40
0.080000
41
1.000000
50
90.000000
1
9
0
POLYLINE
8
0
66
1
40
0.016000
41
0.016000
0
VERTEX
8
0
10
-1.800000
20
-2.200000
0
VERTEX
8
0
10
-1.800000
20
-2.400000
0
SEQEND
8
0
0
TEXT
8
0
10
-1.760000
20
-2.610000
40
0.080000
41
1.000000
50
90.000000
1
Q2
0
TEXT
8
0
10
-1.810000
20
-2.300000
40
0.080000
41
1.000000
50
90.000000
1
8
0
POLYLINE
8
0
66
1
40
0.016000
41
0.016000
0
VERTEX
8
0
10
-1.700000
20
-2.200000
0
VERTEX
8
0
10
-1.700000
20
-2.400000
0
SEQEND
8
0
0
TEXT
8
0
10
-1.660000
20
-2.610000
40
0.080000
41
1.000000
50
90.000000
1
Q3
0
TEXT
8
0
10
-1.710000
20
-2.300000
40
0.080000
41
1.000000
50
90.000000
1
11
0
POLYLINE
8
0
66
1
40
0.016000
41
0.016000
0
VERTEX
8
0
10
-1.600000
20
-3.400000
0
VERTEX
8
0
10
-1.600000
20
-3.200000
0
SEQEND
8
0
0
TEXT
8
0
10
-1.560000
20
-3.150000
40
0.080000
41
1.000000
50
90.000000
1
R0(1)
0
TEXT
8
0
10
-1.610000
20
-3.380000
40
0.080000
41
1.000000
50
90.000000
1
2
0
POLYLINE
8
0
66
1
40
0.016000
41
0.016000
0
VERTEX
8
0
10
-1.500000
20
-3.400000
0
VERTEX
8
0
10
-1.500000
20
-3.200000
0
SEQEND
8
0
0
TEXT
8
0
10
-1.460000
20
-3.150000
40
0.080000
41
1.000000
50
90.000000
1
R0(2)
0
TEXT
8
0
10
-1.510000
20
-3.380000
40
0.080000
41
1.000000
50
90.000000
1
3
0
POLYLINE
8
0
66
1
40
0.016000
41
0.016000
0
VERTEX
8
0
10
-1.400000
20
-3.400000
0
VERTEX
8
0
10
-1.400000
20
-3.200000
0
SEQEND
8
0
0
TEXT
8
0
10
-1.360000
20
-3.150000
40
0.080000
41
1.000000
50
90.000000
1
R9(1)
0
TEXT
8
0
10
-1.410000
20
-3.380000
40
0.080000
41
1.000000
50
90.000000
1
6
0
POLYLINE
8
0
66
1
40
0.016000
41
0.016000
0
VERTEX
8
0
10
-1.300000
20
-3.400000
0
VERTEX
8
0
10
-1.300000
20
-3.200000
0
SEQEND
8
0
0
TEXT
8
0
10
-1.260000
20
-3.150000
40
0.080000
41
1.000000
50
90.000000
1
R9(2)
0
TEXT
8
0
10
-1.310000
20
-3.380000
40
0.080000
41
1.000000
50
90.000000
1
7
0
POLYLINE
8
0
66
1
40
0.016000
41
0.016000
0
VERTEX
8
0
10
-1.000000
20
-3.200000
0
VERTEX
8
0
10
-0.100000
20
-3.200000
0
VERTEX
8
0
10
-0.100000
20
-2.400000
0
VERTEX
8
0
10
-1.000000
20
-2.400000
0
VERTEX
8
0
10
-1.000000
20
-3.200000
0
SEQEND
8
0
0
POLYLINE
8
0
66
1
40
0.016000
41
0.016000
0
VERTEX
8
0
10
-0.930000
20
-3.200000
0
VERTEX
8
0
10
-0.900000
20
-3.170000
0
VERTEX
8
0
10
-0.870000
20
-3.200000
0
VERTEX
8
0
10
-0.930000
20
-3.200000
0
SEQEND
8
0
0
POLYLINE
8
0
66
1
40
0.016000
41
0.016000
0
VERTEX
8
0
10
-0.900000
20
-3.400000
0
VERTEX
8
0
10
-0.900000
20
-3.260000
0
SEQEND
8
0
0
CIRCLE
8
0
10
-0.900000
20
-3.230000
40
0.030000
0
TEXT
8
0
10
-0.860000
20
-3.150000
40
0.080000
41
1.000000
50
90.000000
1
CKA
0
TEXT
8
0
10
-0.910000
20
-3.460000
40
0.080000
41
1.000000
50
90.000000
1
14
0
POLYLINE
8
0
66
1
40
0.016000
41
0.016000
0
VERTEX
8
0
10
-0.900000
20
-2.200000
0
VERTEX
8
0
10
-0.900000
20
-2.400000
0
SEQEND
8
0
0
TEXT
8
0
10
-0.860000
20
-2.610000
40
0.080000
41
1.000000
50
90.000000
1
Q0
0
TEXT
8
0
10
-0.910000
20
-2.300000
40
0.080000
41
1.000000
50
90.000000
1
12
0
POLYLINE
8
0
66
1
40
0.016000
41
0.016000
0
VERTEX
8
0
10
-0.830000
20
-3.200000
0
VERTEX
8
0
10
-0.800000
20
-3.170000
0
VERTEX
8
0
10
-0.770000
20
-3.200000
0
VERTEX
8
0
10
-0.830000
20
-3.200000
0
SEQEND
8
0
0
POLYLINE
8
0
66
1
40
0.016000
41
0.016000
0
VERTEX
8
0
10
-0.800000
20
-3.400000
0
VERTEX
8
0
10
-0.800000
20
-3.260000
0
SEQEND
8
0
0
CIRCLE
8
0
10
-0.800000
20
-3.230000
40
0.030000
0
TEXT
8
0
10
-0.760000
20
-3.150000
40
0.080000
41
1.000000
50
90.000000
1
CKB
0
TEXT
8
0
10
-0.810000
20
-3.380000
40
0.080000
41
1.000000
50
90.000000
1
1
0
POLYLINE
8
0
66
1
40
0.016000
41
0.016000
0
VERTEX
8
0
10
-0.800000
20
-2.200000
0
VERTEX
8
0
10
-0.800000
20
-2.400000
0
SEQEND
8
0
0
TEXT
8
0
10
-0.760000
20
-2.610000
40
0.080000
41
1.000000
50
90.000000
1
Q1
0
TEXT
8
0
10
-0.810000
20
-2.300000
40
0.080000
41
1.000000
50
90.000000
1
9
0
POLYLINE
8
0
66
1
40
0.016000
41
0.016000
0
VERTEX
8
0
10
-0.700000
20
-2.200000
0
VERTEX
8
0
10
-0.700000
20
-2.400000
0
SEQEND
8
0
0
TEXT
8
0
10
-0.660000
20
-2.610000
40
0.080000
41
1.000000
50
90.000000
1
Q2
0
TEXT
8
0
10
-0.710000
20
-2.300000
40
0.080000
41
1.000000
50
90.000000
1
8
0
POLYLINE
8
0
66
1
40
0.016000
41
0.016000
0
VERTEX
8
0
10
-0.600000
20
-2.200000
0
VERTEX
8
0
10
-0.600000
20
-2.400000
0
SEQEND
8
0
0
TEXT
8
0
10
-0.560000
20
-2.610000
40
0.080000
41
1.000000
50
90.000000
1
Q3
0
TEXT
8
0
10
-0.610000
20
-2.300000
40
0.080000
41
1.000000
50
90.000000
1
11
0
POLYLINE
8
0
66
1
40
0.016000
41
0.016000
0
VERTEX
8
0
10
-0.500000
20
-3.400000
0
VERTEX
8
0
10
-0.500000
20
-3.200000
0
SEQEND
8
0
0
TEXT
8
0
10
-0.460000
20
-3.150000
40
0.080000
41
1.000000
50
90.000000
1
R0(1)
0
TEXT
8
0
10
-0.510000
20
-3.380000
40
0.080000
41
1.000000
50
90.000000
1
2
0
POLYLINE
8
0
66
1
40
0.016000
41
0.016000
0
VERTEX
8
0
10
-0.400000
20
-3.400000
0
VERTEX
8
0
10
-0.400000
20
-3.200000
0
SEQEND
8
0
0
TEXT
8
0
10
-0.360000
20
-3.150000
40
0.080000
41
1.000000
50
90.000000
1
R0(2)
0
TEXT
8
0
10
-0.410000
20
-3.380000
40
0.080000
41
1.000000
50
90.000000
1
3
0
POLYLINE
8
0
66
1
40
0.016000
41
0.016000
0
VERTEX
8
0
10
-0.300000
20
-3.400000
0
VERTEX
8
0
10
-0.300000
20
-3.200000
0
SEQEND
8
0
0
TEXT
8
0
10
-0.260000
20
-3.150000
40
0.080000
41
1.000000
50
90.000000
1
R9(1)
0
TEXT
8
0
10
-0.310000
20
-3.380000
40
0.080000
41
1.000000
50
90.000000
1
6
0
POLYLINE
8
0
66
1
40
0.016000
41
0.016000
0
VERTEX
8
0
10
-0.200000
20
-3.400000
0
VERTEX
8
0
10
-0.200000
20
-3.200000
0
SEQEND
8
0
0
TEXT
8
0
10
-0.160000
20
-3.150000
40
0.080000
41
1.000000
50
90.000000
1
R9(2)
0
TEXT
8
0
10
-0.210000
20
-3.380000
40
0.080000
41
1.000000
50
90.000000
1
7
0
POLYLINE
8
0
66
1
40
0.016000
41
0.016000
0
VERTEX
8
0
10
0.100000
20
-3.200000
0
VERTEX
8
0
10
1.000000
20
-3.200000
0
VERTEX
8
0
10
1.000000
20
-2.400000
0
VERTEX
8
0
10
0.100000
20
-2.400000
0
VERTEX
8
0
10
0.100000
20
-3.200000
0
SEQEND
8
0
0
POLYLINE
8
0
66
1
40
0.016000
41
0.016000
0
VERTEX
8
0
10
0.170000
20
-3.200000
0
VERTEX
8
0
10
0.200000
20
-3.170000
0
VERTEX
8
0
10
0.230000
20
-3.200000
0
VERTEX
8
0
10
0.170000
20
-3.200000
0
SEQEND
8
0
0
POLYLINE
8
0
66
1
40
0.016000
41
0.016000
0
VERTEX
8
0
10
0.200000
20
-3.400000
0
VERTEX
8
0
10
0.200000
20
-3.260000
0
SEQEND
8
0
0
CIRCLE
8
0
10
0.200000
20
-3.230000
40
0.030000
0
TEXT
8
0
10
0.240000
20
-3.150000
40
0.080000
41
1.000000
50
90.000000
1
CKA
0
TEXT
8
0
10
0.190000
20
-3.460000
40
0.080000
41
1.000000
50
90.000000
1
14
0
POLYLINE
8
0
66
1
40
0.016000
41
0.016000
0
VERTEX
8
0
10
0.200000
20
-2.200000
0
VERTEX
8
0
10
0.200000
20
-2.400000
0
SEQEND
8
0
0
TEXT
8
0
10
0.240000
20
-2.610000
40
0.080000
41
1.000000
50
90.000000
1
Q0
0
TEXT
8
0
10
0.190000
20
-2.300000
40
0.080000
41
1.000000
50
90.000000
1
12
0
POLYLINE
8
0
66
1
40
0.016000
41
0.016000
0
VERTEX
8
0
10
0.270000
20
-3.200000
0
VERTEX
8
0
10
0.300000
20
-3.170000
0
VERTEX
8
0
10
0.330000
20
-3.200000
0
VERTEX
8
0
10
0.270000
20
-3.200000
0
SEQEND
8
0
0
POLYLINE
8
0
66
1
40
0.016000
41
0.016000
0
VERTEX
8
0
10
0.300000
20
-3.400000
0
VERTEX
8
0
10
0.300000
20
-3.260000
0
SEQEND
8
0
0
CIRCLE
8
0
10
0.300000
20
-3.230000
40
0.030000
0
TEXT
8
0
10
0.340000
20
-3.150000
40
0.080000
41
1.000000
50
90.000000
1
CKB
0
TEXT
8
0
10
0.290000
20
-3.380000
40
0.080000
41
1.000000
50
90.000000
1
1
0
POLYLINE
8
0
66
1
40
0.016000
41
0.016000
0
VERTEX
8
0
10
0.300000
20
-2.200000
0
VERTEX
8
0
10
0.300000
20
-2.400000
0
SEQEND
8
0
0
TEXT
8
0
10
0.340000
20
-2.610000
40
0.080000
41
1.000000
50
90.000000
1
Q1
0
TEXT
8
0
10
0.290000
20
-2.300000
40
0.080000
41
1.000000
50
90.000000
1
9
0
POLYLINE
8
0
66
1
40
0.016000
41
0.016000
0
VERTEX
8
0
10
0.400000
20
-2.200000
0
VERTEX
8
0
10
0.400000
20
-2.400000
0
SEQEND
8
0
0
TEXT
8
0
10
0.440000
20
-2.610000
40
0.080000
41
1.000000
50
90.000000
1
Q2
0
TEXT
8
0
10
0.390000
20
-2.300000
40
0.080000
41
1.000000
50
90.000000
1
8
0
POLYLINE
8
0
66
1
40
0.016000
41
0.016000
0
VERTEX
8
0
10
0.500000
20
-2.200000
0
VERTEX
8
0
10
0.500000
20
-2.400000
0
SEQEND
8
0
0
TEXT
8
0
10
0.540000
20
-2.610000
40
0.080000
41
1.000000
50
90.000000
1
Q3
0
TEXT
8
0
10
0.490000
20
-2.300000
40
0.080000
41
1.000000
50
90.000000
1
11
0
POLYLINE
8
0
66
1
40
0.016000
41
0.016000
0
VERTEX
8
0
10
0.600000
20
-3.400000
0
VERTEX
8
0
10
0.600000
20
-3.200000
0
SEQEND
8
0
0
TEXT
8
0
10
0.640000
20
-3.150000
40
0.080000
41
1.000000
50
90.000000
1
R0(1)
0
TEXT
8
0
10
0.590000
20
-3.380000
40
0.080000
41
1.000000
50
90.000000
1
2
0
POLYLINE
8
0
66
1
40
0.016000
41
0.016000
0
VERTEX
8
0
10
0.700000
20
-3.400000
0
VERTEX
8
0
10
0.700000
20
-3.200000
0
SEQEND
8
0
0
TEXT
8
0
10
0.740000
20
-3.150000
40
0.080000
41
1.000000
50
90.000000
1
R0(2)
0
TEXT
8
0
10
0.690000
20
-3.380000
40
0.080000
41
1.000000
50
90.000000
1
3
0
POLYLINE
8
0
66
1
40
0.016000
41
0.016000
0
VERTEX
8
0
10
0.800000
20
-3.400000
0
VERTEX
8
0
10
0.800000
20
-3.200000
0
SEQEND
8
0
0
TEXT
8
0
10
0.840000
20
-3.150000
40
0.080000
41
1.000000
50
90.000000
1
R9(1)
0
TEXT
8
0
10
0.790000
20
-3.380000
40
0.080000
41
1.000000
50
90.000000
1
6
0
POLYLINE
8
0
66
1
40
0.016000
41
0.016000
0
VERTEX
8
0
10
0.900000
20
-3.400000
0
VERTEX
8
0
10
0.900000
20
-3.200000
0
SEQEND
8
0
0
TEXT
8
0
10
0.940000
20
-3.150000
40
0.080000
41
1.000000
50
90.000000
1
R9(2)
0
TEXT
8
0
10
0.890000
20
-3.380000
40
0.080000
41
1.000000
50
90.000000
1
7
0
POLYLINE
8
0
66
1
40
0.016000
41
0.016000
0
VERTEX
8
0
10
-4.900000
20
2.420000
0
VERTEX
8
0
10
-4.250000
20
2.420000
0
VERTEX
8
0
10
-4.250000
20
3.370000
0
VERTEX
8
0
10
-4.900000
20
3.370000
0
VERTEX
8
0
10
-4.900000
20
2.420000
0
SEQEND
8
0
0
POLYLINE
8
0
66
1
40
0.000000
41
0.000000
0
VERTEX
8
0
10
-4.730000
20
3.240000
0
VERTEX
8
0
10
-4.700000
20
3.270000
0
VERTEX
8
0
10
-4.430000
20
3.270000
0
VERTEX
8
0
10
-4.400000
20
3.240000
0
VERTEX
8
0
10
-4.430000
20
3.210000
0
VERTEX
8
0
10
-4.700000
20
3.210000
0
VERTEX
8
0
10
-4.730000
20
3.240000
0
SEQEND
8
0
0
POLYLINE
8
0
66
1
40
0.000000
41
0.000000
0
VERTEX
8
0
10
-4.420000
20
3.200000
0
VERTEX
8
0
10
-4.390000
20
3.230000
0
VERTEX
8
0
10
-4.360000
20
3.200000
0
VERTEX
8
0
10
-4.370000
20
2.940000
0
VERTEX
8
0
10
-4.400000
20
2.910000
0
VERTEX
8
0
10
-4.430000
20
2.940000
0
VERTEX
8
0
10
-4.420000
20
3.200000
0
SEQEND
8
0
0
POLYLINE
8
0
66
1
40
0.000000
41
0.000000
0
VERTEX
8
0
10
-4.740000
20
2.900000
0
VERTEX
8
0
10
-4.710000
20
2.930000
0
VERTEX
8
0
10
-4.440000
20
2.930000
0
VERTEX
8
0
10
-4.410000
20
2.900000
0
VERTEX
8
0
10
-4.440000
20
2.870000
0
VERTEX
8
0
10
-4.710000
20
2.870000
0
VERTEX
8
0
10
-4.740000
20
2.900000
0
SEQEND
8
0
0
POLYLINE
8
0
66
1
40
0.000000
41
0.000000
0
VERTEX
8
0
10
-4.770000
20
3.200000
0
VERTEX
8
0
10
-4.740000
20
3.230000
0
VERTEX
8
0
10
-4.710000
20
3.200000
0
VERTEX
8
0
10
-4.720000
20
2.940000
0
VERTEX
8
0
10
-4.750000
20
2.910000
0
VERTEX
8
0
10
-4.780000
20
2.940000
0
VERTEX
8
0
10
-4.770000
20
3.200000
0
SEQEND
8
0
0
POLYLINE
8
0
66
1
40
0.000000
41
0.000000
0
VERTEX
8
0
10
-4.430000
20
2.860000
0
VERTEX
8
0
10
-4.400000
20
2.890000
0
VERTEX
8
0
10
-4.370000
20
2.860000
0
VERTEX
8
0
10
-4.380000
20
2.600000
0
VERTEX
8
0
10
-4.410000
20
2.570000
0
VERTEX
8
0
10
-4.440000
20
2.600000
0
VERTEX
8
0
10
-4.430000
20
2.860000
0
SEQEND
8
0
0
POLYLINE
8
0
66
1
40
0.000000
41
0.000000
0
VERTEX
8
0
10
-4.750000
20
2.560000
0
VERTEX
8
0
10
-4.720000
20
2.590000
0
VERTEX
8
0
10
-4.450000
20
2.590000
0
VERTEX
8
0
10
-4.420000
20
2.560000
0
VERTEX
8
0
10
-4.450000
20
2.530000
0
VERTEX
8
0
10
-4.720000
20
2.530000
0
VERTEX
8
0
10
-4.750000
20
2.560000
0
SEQEND
8
0
0
POLYLINE
8
0
66
1
40
0.000000
41
0.000000
0
VERTEX
8
0
10
-4.780000
20
2.860000
0
VERTEX
8
0
10
-4.750000
20
2.890000
0
VERTEX
8
0
10
-4.720000
20
2.860000
0
VERTEX
8
0
10
-4.730000
20
2.600000
0
VERTEX
8
0
10
-4.760000
20
2.570000
0
VERTEX
8
0
10
-4.790000
20
2.600000
0
VERTEX
8
0
10
-4.780000
20
2.860000
0
SEQEND
8
0
0
CIRCLE
8
0
10
-4.350000
20
2.520000
40
0.030000
0
POLYLINE
8
0
66
1
40
0.016000
41
0.016000
0
VERTEX
8
0
10
-4.800000
20
2.220000
0
VERTEX
8
0
10
-4.800000
20
2.420000
0
SEQEND
8
0
0
POLYLINE
8
0
66
1
40
0.016000
41
0.016000
0
VERTEX
8
0
10
-4.700000
20
2.220000
0
VERTEX
8
0
10
-4.700000
20
2.420000
0
SEQEND
8
0
0
POLYLINE
8
0
66
1
40
0.016000
41
0.016000
0
VERTEX
8
0
10
-4.600000
20
2.220000
0
VERTEX
8
0
10
-4.600000
20
2.420000
0
SEQEND
8
0
0
POLYLINE
8
0
66
1
40
0.016000
41
0.016000
0
VERTEX
8
0
10
-4.500000
20
2.220000
0
VERTEX
8
0
10
-4.500000
20
2.420000
0
SEQEND
8
0
0
POLYLINE
8
0
66
1
40
0.016000
41
0.016000
0
VERTEX
8
0
10
-4.300000
20
2.220000
0
VERTEX
8
0
10
-4.300000
20
2.420000
0
SEQEND
8
0
0
POLYLINE
8
0
66
1
40
0.016000
41
0.016000
0
VERTEX
8
0
10
-4.750000
20
2.220000
0
VERTEX
8
0
10
-4.750000
20
2.420000
0
SEQEND
8
0
0
POLYLINE
8
0
66
1
40
0.016000
41
0.016000
0
VERTEX
8
0
10
-4.650000
20
2.220000
0
VERTEX
8
0
10
-4.650000
20
2.420000
0
SEQEND
8
0
0
POLYLINE
8
0
66
1
40
0.016000
41
0.016000
0
VERTEX
8
0
10
-4.550000
20
2.220000
0
VERTEX
8
0
10
-4.550000
20
2.420000
0
SEQEND
8
0
0
POLYLINE
8
0
66
1
40
0.016000
41
0.016000
0
VERTEX
8
0
10
-4.450000
20
2.220000
0
VERTEX
8
0
10
-4.450000
20
2.420000
0
SEQEND
8
0
0
POLYLINE
8
0
66
1
40
0.016000
41
0.016000
0
VERTEX
8
0
10
-4.200000
20
2.420000
0
VERTEX
8
0
10
-3.550000
20
2.420000
0
VERTEX
8
0
10
-3.550000
20
3.370000
0
VERTEX
8
0
10
-4.200000
20
3.370000
0
VERTEX
8
0
10
-4.200000
20
2.420000
0
SEQEND
8
0
0
POLYLINE
8
0
66
1
40
0.000000
41
0.000000
0
VERTEX
8
0
10
-4.030000
20
3.240000
0
VERTEX
8
0
10
-4.000000
20
3.270000
0
VERTEX
8
0
10
-3.730000
20
3.270000
0
VERTEX
8
0
10
-3.700000
20
3.240000
0
VERTEX
8
0
10
-3.730000
20
3.210000
0
VERTEX
8
0
10
-4.000000
20
3.210000
0
VERTEX
8
0
10
-4.030000
20
3.240000
0
SEQEND
8
0
0
POLYLINE
8
0
66
1
40
0.000000
41
0.000000
0
VERTEX
8
0
10
-3.720000
20
3.200000
0
VERTEX
8
0
10
-3.690000
20
3.230000
0
VERTEX
8
0
10
-3.660000
20
3.200000
0
VERTEX
8
0
10
-3.670000
20
2.940000
0
VERTEX
8
0
10
-3.700000
20
2.910000
0
VERTEX
8
0
10
-3.730000
20
2.940000
0
VERTEX
8
0
10
-3.720000
20
3.200000
0
SEQEND
8
0
0
POLYLINE
8
0
66
1
40
0.000000
41
0.000000
0
VERTEX
8
0
10
-4.040000
20
2.900000
0
VERTEX
8
0
10
-4.010000
20
2.930000
0
VERTEX
8
0
10
-3.740000
20
2.930000
0
VERTEX
8
0
10
-3.710000
20
2.900000
0
VERTEX
8
0
10
-3.740000
20
2.870000
0
VERTEX
8
0
10
-4.010000
20
2.870000
0
VERTEX
8
0
10
-4.040000
20
2.900000
0
SEQEND
8
0
0
POLYLINE
8
0
66
1
40
0.000000
41
0.000000
0
VERTEX
8
0
10
-4.070000
20
3.200000
0
VERTEX
8
0
10
-4.040000
20
3.230000
0
VERTEX
8
0
10
-4.010000
20
3.200000
0
VERTEX
8
0
10
-4.020000
20
2.940000
0
VERTEX
8
0
10
-4.050000
20
2.910000
0
VERTEX
8
0
10
-4.080000
20
2.940000
0
VERTEX
8
0
10
-4.070000
20
3.200000
0
SEQEND
8
0
0
POLYLINE
8
0
66
1
40
0.000000
41
0.000000
0
VERTEX
8
0
10
-3.730000
20
2.860000
0
VERTEX
8
0
10
-3.700000
20
2.890000
0
VERTEX
8
0
10
-3.670000
20
2.860000
0
VERTEX
8
0
10
-3.680000
20
2.600000
0
VERTEX
8
0
10
-3.710000
20
2.570000
0
VERTEX
8
0
10
-3.740000
20
2.600000
0
VERTEX
8
0
10
-3.730000
20
2.860000
0
SEQEND
8
0
0
POLYLINE
8
0
66
1
40
0.000000
41
0.000000
0
VERTEX
8
0
10
-4.050000
20
2.560000
0
VERTEX
8
0
10
-4.020000
20
2.590000
0
VERTEX
8
0
10
-3.750000
20
2.590000
0
VERTEX
8
0
10
-3.720000
20
2.560000
0
VERTEX
8
0
10
-3.750000
20
2.530000
0
VERTEX
8
0
10
-4.020000
20
2.530000
0
VERTEX
8
0
10
-4.050000
20
2.560000
0
SEQEND
8
0
0
POLYLINE
8
0
66
1
40
0.000000
41
0.000000
0
VERTEX
8
0
10
-4.080000
20
2.860000
0
VERTEX
8
0
10
-4.050000
20
2.890000
0
VERTEX
8
0
10
-4.020000
20
2.860000
0
VERTEX
8
0
10
-4.030000
20
2.600000
0
VERTEX
8
0
10
-4.060000
20
2.570000
0
VERTEX
8
0
10
-4.090000
20
2.600000
0
VERTEX
8
0
10
-4.080000
20
2.860000
0
SEQEND
8
0
0
CIRCLE
8
0
10
-3.650000
20
2.520000
40
0.030000
0
POLYLINE
8
0
66
1
40
0.016000
41
0.016000
0
VERTEX
8
0
10
-4.100000
20
2.220000
0
VERTEX
8
0
10
-4.100000
20
2.420000
0
SEQEND
8
0
0
POLYLINE
8
0
66
1
40
0.016000
41
0.016000
0
VERTEX
8
0
10
-4.000000
20
2.220000
0
VERTEX
8
0
10
-4.000000
20
2.420000
0
SEQEND
8
0
0
POLYLINE
8
0
66
1
40
0.016000
41
0.016000
0
VERTEX
8
0
10
-3.900000
20
2.220000
0
VERTEX
8
0
10
-3.900000
20
2.420000
0
SEQEND
8
0
0
POLYLINE
8
0
66
1
40
0.016000
41
0.016000
0
VERTEX
8
0
10
-3.800000
20
2.220000
0
VERTEX
8
0
10
-3.800000
20
2.420000
0
SEQEND
8
0
0
POLYLINE
8
0
66
1
40
0.016000
41
0.016000
0
VERTEX
8
0
10
-3.600000
20
2.220000
0
VERTEX
8
0
10
-3.600000
20
2.420000
0
SEQEND
8
0
0
POLYLINE
8
0
66
1
40
0.016000
41
0.016000
0
VERTEX
8
0
10
-4.050000
20
2.220000
0
VERTEX
8
0
10
-4.050000
20
2.420000
0
SEQEND
8
0
0
POLYLINE
8
0
66
1
40
0.016000
41
0.016000
0
VERTEX
8
0
10
-3.950000
20
2.220000
0
VERTEX
8
0
10
-3.950000
20
2.420000
0
SEQEND
8
0
0
POLYLINE
8
0
66
1
40
0.016000
41
0.016000
0
VERTEX
8
0
10
-3.850000
20
2.220000
0
VERTEX
8
0
10
-3.850000
20
2.420000
0
SEQEND
8
0
0
POLYLINE
8
0
66
1
40
0.016000
41
0.016000
0
VERTEX
8
0
10
-3.750000
20
2.220000
0
VERTEX
8
0
10
-3.750000
20
2.420000
0
SEQEND
8
0
0
POLYLINE
8
0
66
1
40
0.016000
41
0.016000
0
VERTEX
8
0
10
-1.880000
20
2.430000
0
VERTEX
8
0
10
-1.230000
20
2.430000
0
VERTEX
8
0
10
-1.230000
20
3.380000
0
VERTEX
8
0
10
-1.880000
20
3.380000
0
VERTEX
8
0
10
-1.880000
20
2.430000
0
SEQEND
8
0
0
POLYLINE
8
0
66
1
40
0.000000
41
0.000000
0
VERTEX
8
0
10
-1.710000
20
3.250000
0
VERTEX
8
0
10
-1.680000
20
3.280000
0
VERTEX
8
0
10
-1.410000
20
3.280000
0
VERTEX
8
0
10
-1.380000
20
3.250000
0
VERTEX
8
0
10
-1.410000
20
3.220000
0
VERTEX
8
0
10
-1.680000
20
3.220000
0
VERTEX
8
0
10
-1.710000
20
3.250000
0
SEQEND
8
0
0
POLYLINE
8
0
66
1
40
0.000000
41
0.000000
0
VERTEX
8
0
10
-1.400000
20
3.210000
0
VERTEX
8
0
10
-1.370000
20
3.240000
0
VERTEX
8
0
10
-1.340000
20
3.210000
0
VERTEX
8
0
10
-1.350000
20
2.950000
0
VERTEX
8
0
10
-1.380000
20
2.920000
0
VERTEX
8
0
10
-1.410000
20
2.950000
0
VERTEX
8
0
10
-1.400000
20
3.210000
0
SEQEND
8
0
0
POLYLINE
8
0
66
1
40
0.000000
41
0.000000
0
VERTEX
8
0
10
-1.720000
20
2.910000
0
VERTEX
8
0
10
-1.690000
20
2.940000
0
VERTEX
8
0
10
-1.420000
20
2.940000
0
VERTEX
8
0
10
-1.390000
20
2.910000
0
VERTEX
8
0
10
-1.420000
20
2.880000
0
VERTEX
8
0
10
-1.690000
20
2.880000
0
VERTEX
8
0
10
-1.720000
20
2.910000
0
SEQEND
8
0
0
POLYLINE
8
0
66
1
40
0.000000
41
0.000000
0
VERTEX
8
0
10
-1.750000
20
3.210000
0
VERTEX
8
0
10
-1.720000
20
3.240000
0
VERTEX
8
0
10
-1.690000
20
3.210000
0
VERTEX
8
0
10
-1.700000
20
2.950000
0
VERTEX
8
0
10
-1.730000
20
2.920000
0
VERTEX
8
0
10
-1.760000
20
2.950000
0
VERTEX
8
0
10
-1.750000
20
3.210000
0
SEQEND
8
0
0
POLYLINE
8
0
66
1
40
0.000000
41
0.000000
0
VERTEX
8
0
10
-1.410000
20
2.870000
0
VERTEX
8
0
10
-1.380000
20
2.900000
0
VERTEX
8
0
10
-1.350000
20
2.870000
0
VERTEX
8
0
10
-1.360000
20
2.610000
0
VERTEX
8
0
10
-1.390000
20
2.580000
0
VERTEX
8
0
10
-1.420000
20
2.610000
0
VERTEX
8
0
10
-1.410000
20
2.870000
0
SEQEND
8
0
0
POLYLINE
8
0
66
1
40
0.000000
41
0.000000
0
VERTEX
8
0
10
-1.730000
20
2.570000
0
VERTEX
8
0
10
-1.700000
20
2.600000
0
VERTEX
8
0
10
-1.430000
20
2.600000
0
VERTEX
8
0
10
-1.400000
20
2.570000
0
VERTEX
8
0
10
-1.430000
20
2.540000
0
VERTEX
8
0
10
-1.700000
20
2.540000
0
VERTEX
8
0
10
-1.730000
20
2.570000
0
SEQEND
8
0
0
POLYLINE
8
0
66
1
40
0.000000
41
0.000000
0
VERTEX
8
0
10
-1.760000
20
2.870000
0
VERTEX
8
0
10
-1.730000
20
2.900000
0
VERTEX
8
0
10
-1.700000
20
2.870000
0
VERTEX
8
0
10
-1.710000
20
2.610000
0
VERTEX
8
0
10
-1.740000
20
2.580000
0
VERTEX
8
0
10
-1.770000
20
2.610000
0
VERTEX
8
0
10
-1.760000
20
2.870000
0
SEQEND
8
0
0
CIRCLE
8
0
10
-1.330000
20
2.530000
40
0.030000
0
POLYLINE
8
0
66
1
40
0.016000
41
0.016000
0
VERTEX
8
0
10
-1.780000
20
2.230000
0
VERTEX
8
0
10
-1.780000
20
2.430000
0
SEQEND
8
0
0
POLYLINE
8
0
66
1
40
0.016000
41
0.016000
0
VERTEX
8
0
10
-1.680000
20
2.230000
0
VERTEX
8
0
10
-1.680000
20
2.430000
0
SEQEND
8
0
0
POLYLINE
8
0
66
1
40
0.016000
41
0.016000
0
VERTEX
8
0
10
-1.580000
20
2.230000
0
VERTEX
8
0
10
-1.580000
20
2.430000
0
SEQEND
8
0
0
POLYLINE
8
0
66
1
40
0.016000
41
0.016000
0
VERTEX
8
0
10
-1.480000
20
2.230000
0
VERTEX
8
0
10
-1.480000
20
2.430000
0
SEQEND
8
0
0
POLYLINE
8
0
66
1
40
0.016000
41
0.016000
0
VERTEX
8
0
10
-1.280000
20
2.230000
0
VERTEX
8
0
10
-1.280000
20
2.430000
0
SEQEND
8
0
0
POLYLINE
8
0
66
1
40
0.016000
41
0.016000
0
VERTEX
8
0
10
-1.730000
20
2.230000
0
VERTEX
8
0
10
-1.730000
20
2.430000
0
SEQEND
8
0
0
POLYLINE
8
0
66
1
40
0.016000
41
0.016000
0
VERTEX
8
0
10
-1.630000
20
2.230000
0
VERTEX
8
0
10
-1.630000
20
2.430000
0
SEQEND
8
0
0
POLYLINE
8
0
66
1
40
0.016000
41
0.016000
0
VERTEX
8
0
10
-1.530000
20
2.230000
0
VERTEX
8
0
10
-1.530000
20
2.430000
0
SEQEND
8
0
0
POLYLINE
8
0
66
1
40
0.016000
41
0.016000
0
VERTEX
8
0
10
-1.430000
20
2.230000
0
VERTEX
8
0
10
-1.430000
20
2.430000
0
SEQEND
8
0
0
POLYLINE
8
0
66
1
40
0.016000
41
0.016000
0
VERTEX
8
0
10
-1.180000
20
2.430000
0
VERTEX
8
0
10
-0.530000
20
2.430000
0
VERTEX
8
0
10
-0.530000
20
3.380000
0
VERTEX
8
0
10
-1.180000
20
3.380000
0
VERTEX
8
0
10
-1.180000
20
2.430000
0
SEQEND
8
0
0
POLYLINE
8
0
66
1
40
0.000000
41
0.000000
0
VERTEX
8
0
10
-1.010000
20
3.250000
0
VERTEX
8
0
10
-0.980000
20
3.280000
0
VERTEX
8
0
10
-0.710000
20
3.280000
0
VERTEX
8
0
10
-0.680000
20
3.250000
0
VERTEX
8
0
10
-0.710000
20
3.220000
0
VERTEX
8
0
10
-0.980000
20
3.220000
0
VERTEX
8
0
10
-1.010000
20
3.250000
0
SEQEND
8
0
0
POLYLINE
8
0
66
1
40
0.000000
41
0.000000
0
VERTEX
8
0
10
-0.700000
20
3.210000
0
VERTEX
8
0
10
-0.670000
20
3.240000
0
VERTEX
8
0
10
-0.640000
20
3.210000
0
VERTEX
8
0
10
-0.650000
20
2.950000
0
VERTEX
8
0
10
-0.680000
20
2.920000
0
VERTEX
8
0
10
-0.710000
20
2.950000
0
VERTEX
8
0
10
-0.700000
20
3.210000
0
SEQEND
8
0
0
POLYLINE
8
0
66
1
40
0.000000
41
0.000000
0
VERTEX
8
0
10
-1.020000
20
2.910000
0
VERTEX
8
0
10
-0.990000
20
2.940000
0
VERTEX
8
0
10
-0.720000
20
2.940000
0
VERTEX
8
0
10
-0.690000
20
2.910000
0
VERTEX
8
0
10
-0.720000
20
2.880000
0
VERTEX
8
0
10
-0.990000
20
2.880000
0
VERTEX
8
0
10
-1.020000
20
2.910000
0
SEQEND
8
0
0
POLYLINE
8
0
66
1
40
0.000000
41
0.000000
0
VERTEX
8
0
10
-1.050000
20
3.210000
0
VERTEX
8
0
10
-1.020000
20
3.240000
0
VERTEX
8
0
10
-0.990000
20
3.210000
0
VERTEX
8
0
10
-1.000000
20
2.950000
0
VERTEX
8
0
10
-1.030000
20
2.920000
0
VERTEX
8
0
10
-1.060000
20
2.950000
0
VERTEX
8
0
10
-1.050000
20
3.210000
0
SEQEND
8
0
0
POLYLINE
8
0
66
1
40
0.000000
41
0.000000
0
VERTEX
8
0
10
-0.710000
20
2.870000
0
VERTEX
8
0
10
-0.680000
20
2.900000
0
VERTEX
8
0
10
-0.650000
20
2.870000
0
VERTEX
8
0
10
-0.660000
20
2.610000
0
VERTEX
8
0
10
-0.690000
20
2.580000
0
VERTEX
8
0
10
-0.720000
20
2.610000
0
VERTEX
8
0
10
-0.710000
20
2.870000
0
SEQEND
8
0
0
POLYLINE
8
0
66
1
40
0.000000
41
0.000000
0
VERTEX
8
0
10
-1.030000
20
2.570000
0
VERTEX
8
0
10
-1.000000
20
2.600000
0
VERTEX
8
0
10
-0.730000
20
2.600000
0
VERTEX
8
0
10
-0.700000
20
2.570000
0
VERTEX
8
0
10
-0.730000
20
2.540000
0
VERTEX
8
0
10
-1.000000
20
2.540000
0
VERTEX
8
0
10
-1.030000
20
2.570000
0
SEQEND
8
0
0
POLYLINE
8
0
66
1
40
0.000000
41
0.000000
0
VERTEX
8
0
10
-1.060000
20
2.870000
0
VERTEX
8
0
10
-1.030000
20
2.900000
0
VERTEX
8
0
10
-1.000000
20
2.870000
0
VERTEX
8
0
10
-1.010000
20
2.610000
0
VERTEX
8
0
10
-1.040000
20
2.580000
0
VERTEX
8
0
10
-1.070000
20
2.610000
0
VERTEX
8
0
10
-1.060000
20
2.870000
0
SEQEND
8
0
0
CIRCLE
8
0
10
-0.630000
20
2.530000
40
0.030000
0
POLYLINE
8
0
66
1
40
0.016000
41
0.016000
0
VERTEX
8
0
10
-1.080000
20
2.230000
0
VERTEX
8
0
10
-1.080000
20
2.430000
0
SEQEND
8
0
0
POLYLINE
8
0
66
1
40
0.016000
41
0.016000
0
VERTEX
8
0
10
-0.980000
20
2.230000
0
VERTEX
8
0
10
-0.980000
20
2.430000
0
SEQEND
8
0
0
POLYLINE
8
0
66
1
40
0.016000
41
0.016000
0
VERTEX
8
0
10
-0.880000
20
2.230000
0
VERTEX
8
0
10
-0.880000
20
2.430000
0
SEQEND
8
0
0
POLYLINE
8
0
66
1
40
0.016000
41
0.016000
0
VERTEX
8
0
10
-0.780000
20
2.230000
0
VERTEX
8
0
10
-0.780000
20
2.430000
0
SEQEND
8
0
0
POLYLINE
8
0
66
1
40
0.016000
41
0.016000
0
VERTEX
8
0
10
-0.580000
20
2.230000
0
VERTEX
8
0
10
-0.580000
20
2.430000
0
SEQEND
8
0
0
POLYLINE
8
0
66
1
40
0.016000
41
0.016000
0
VERTEX
8
0
10
-1.030000
20
2.230000
0
VERTEX
8
0
10
-1.030000
20
2.430000
0
SEQEND
8
0
0
POLYLINE
8
0
66
1
40
0.016000
41
0.016000
0
VERTEX
8
0
10
-0.930000
20
2.230000
0
VERTEX
8
0
10
-0.930000
20
2.430000
0
SEQEND
8
0
0
POLYLINE
8
0
66
1
40
0.016000
41
0.016000
0
VERTEX
8
0
10
-0.830000
20
2.230000
0
VERTEX
8
0
10
-0.830000
20
2.430000
0
SEQEND
8
0
0
POLYLINE
8
0
66
1
40
0.016000
41
0.016000
0
VERTEX
8
0
10
-0.730000
20
2.230000
0
VERTEX
8
0
10
-0.730000
20
2.430000
0
SEQEND
8
0
0
POLYLINE
8
0
66
1
40
0.016000
41
0.016000
0
VERTEX
8
0
10
1.140000
20
2.430000
0
VERTEX
8
0
10
1.790000
20
2.430000
0
VERTEX
8
0
10
1.790000
20
3.380000
0
VERTEX
8
0
10
1.140000
20
3.380000
0
VERTEX
8
0
10
1.140000
20
2.430000
0
SEQEND
8
0
0
POLYLINE
8
0
66
1
40
0.000000
41
0.000000
0
VERTEX
8
0
10
1.310000
20
3.250000
0
VERTEX
8
0
10
1.340000
20
3.280000
0
VERTEX
8
0
10
1.610000
20
3.280000
0
VERTEX
8
0
10
1.640000
20
3.250000
0
VERTEX
8
0
10
1.610000
20
3.220000
0
VERTEX
8
0
10
1.340000
20
3.220000
0
VERTEX
8
0
10
1.310000
20
3.250000
0
SEQEND
8
0
0
POLYLINE
8
0
66
1
40
0.000000
41
0.000000
0
VERTEX
8
0
10
1.620000
20
3.210000
0
VERTEX
8
0
10
1.650000
20
3.240000
0
VERTEX
8
0
10
1.680000
20
3.210000
0
VERTEX
8
0
10
1.670000
20
2.950000
0
VERTEX
8
0
10
1.640000
20
2.920000
0
VERTEX
8
0
10
1.610000
20
2.950000
0
VERTEX
8
0
10
1.620000
20
3.210000
0
SEQEND
8
0
0
POLYLINE
8
0
66
1
40
0.000000
41
0.000000
0
VERTEX
8
0
10
1.300000
20
2.910000
0
VERTEX
8
0
10
1.330000
20
2.940000
0
VERTEX
8
0
10
1.600000
20
2.940000
0
VERTEX
8
0
10
1.630000
20
2.910000
0
VERTEX
8
0
10
1.600000
20
2.880000
0
VERTEX
8
0
10
1.330000
20
2.880000
0
VERTEX
8
0
10
1.300000
20
2.910000
0
SEQEND
8
0
0
POLYLINE
8
0
66
1
40
0.000000
41
0.000000
0
VERTEX
8
0
10
1.270000
20
3.210000
0
VERTEX
8
0
10
1.300000
20
3.240000
0
VERTEX
8
0
10
1.330000
20
3.210000
0
VERTEX
8
0
10
1.320000
20
2.950000
0
VERTEX
8
0
10
1.290000
20
2.920000
0
VERTEX
8
0
10
1.260000
20
2.950000
0
VERTEX
8
0
10
1.270000
20
3.210000
0
SEQEND
8
0
0
POLYLINE
8
0
66
1
40
0.000000
41
0.000000
0
VERTEX
8
0
10
1.610000
20
2.870000
0
VERTEX
8
0
10
1.640000
20
2.900000
0
VERTEX
8
0
10
1.670000
20
2.870000
0
VERTEX
8
0
10
1.660000
20
2.610000
0
VERTEX
8
0
10
1.630000
20
2.580000
0
VERTEX
8
0
10
1.600000
20
2.610000
0
VERTEX
8
0
10
1.610000
20
2.870000
0
SEQEND
8
0
0
POLYLINE
8
0
66
1
40
0.000000
41
0.000000
0
VERTEX
8
0
10
1.290000
20
2.570000
0
VERTEX
8
0
10
1.320000
20
2.600000
0
VERTEX
8
0
10
1.590000
20
2.600000
0
VERTEX
8
0
10
1.620000
20
2.570000
0
VERTEX
8
0
10
1.590000
20
2.540000
0
VERTEX
8
0
10
1.320000
20
2.540000
0
VERTEX
8
0
10
1.290000
20
2.570000
0
SEQEND
8
0
0
POLYLINE
8
0
66
1
40
0.000000
41
0.000000
0
VERTEX
8
0
10
1.260000
20
2.870000
0
VERTEX
8
0
10
1.290000
20
2.900000
0
VERTEX
8
0
10
1.320000
20
2.870000
0
VERTEX
8
0
10
1.310000
20
2.610000
0
VERTEX
8
0
10
1.280000
20
2.580000
0
VERTEX
8
0
10
1.250000
20
2.610000
0
VERTEX
8
0
10
1.260000
20
2.870000
0
SEQEND
8
0
0
CIRCLE
8
0
10
1.690000
20
2.530000
40
0.030000
0
POLYLINE
8
0
66
1
40
0.016000
41
0.016000
0
VERTEX
8
0
10
1.240000
20
2.230000
0
VERTEX
8
0
10
1.240000
20
2.430000
0
SEQEND
8
0
0
POLYLINE
8
0
66
1
40
0.016000
41
0.016000
0
VERTEX
8
0
10
1.340000
20
2.230000
0
VERTEX
8
0
10
1.340000
20
2.430000
0
SEQEND
8
0
0
POLYLINE
8
0
66
1
40
0.016000
41
0.016000
0
VERTEX
8
0
10
1.440000
20
2.230000
0
VERTEX
8
0
10
1.440000
20
2.430000
0
SEQEND
8
0
0
POLYLINE
8
0
66
1
40
0.016000
41
0.016000
0
VERTEX
8
0
10
1.540000
20
2.230000
0
VERTEX
8
0
10
1.540000
20
2.430000
0
SEQEND
8
0
0
POLYLINE
8
0
66
1
40
0.016000
41
0.016000
0
VERTEX
8
0
10
1.740000
20
2.230000
0
VERTEX
8
0
10
1.740000
20
2.430000
0
SEQEND
8
0
0
POLYLINE
8
0
66
1
40
0.016000
41
0.016000
0
VERTEX
8
0
10
1.290000
20
2.230000
0
VERTEX
8
0
10
1.290000
20
2.430000
0
SEQEND
8
0
0
POLYLINE
8
0
66
1
40
0.016000
41
0.016000
0
VERTEX
8
0
10
1.390000
20
2.230000
0
VERTEX
8
0
10
1.390000
20
2.430000
0
SEQEND
8
0
0
POLYLINE
8
0
66
1
40
0.016000
41
0.016000
0
VERTEX
8
0
10
1.490000
20
2.230000
0
VERTEX
8
0
10
1.490000
20
2.430000
0
SEQEND
8
0
0
POLYLINE
8
0
66
1
40
0.016000
41
0.016000
0
VERTEX
8
0
10
1.590000
20
2.230000
0
VERTEX
8
0
10
1.590000
20
2.430000
0
SEQEND
8
0
0
POLYLINE
8
0
66
1
40
0.016000
41
0.016000
0
VERTEX
8
0
10
1.840000
20
2.430000
0
VERTEX
8
0
10
2.490000
20
2.430000
0
VERTEX
8
0
10
2.490000
20
3.380000
0
VERTEX
8
0
10
1.840000
20
3.380000
0
VERTEX
8
0
10
1.840000
20
2.430000
0
SEQEND
8
0
0
POLYLINE
8
0
66
1
40
0.000000
41
0.000000
0
VERTEX
8
0
10
2.010000
20
3.250000
0
VERTEX
8
0
10
2.040000
20
3.280000
0
VERTEX
8
0
10
2.310000
20
3.280000
0
VERTEX
8
0
10
2.340000
20
3.250000
0
VERTEX
8
0
10
2.310000
20
3.220000
0
VERTEX
8
0
10
2.040000
20
3.220000
0
VERTEX
8
0
10
2.010000
20
3.250000
0
SEQEND
8
0
0
POLYLINE
8
0
66
1
40
0.000000
41
0.000000
0
VERTEX
8
0
10
2.320000
20
3.210000
0
VERTEX
8
0
10
2.350000
20
3.240000
0
VERTEX
8
0
10
2.380000
20
3.210000
0
VERTEX
8
0
10
2.370000
20
2.950000
0
VERTEX
8
0
10
2.340000
20
2.920000
0
VERTEX
8
0
10
2.310000
20
2.950000
0
VERTEX
8
0
10
2.320000
20
3.210000
0
SEQEND
8
0
0
POLYLINE
8
0
66
1
40
0.000000
41
0.000000
0
VERTEX
8
0
10
2.000000
20
2.910000
0
VERTEX
8
0
10
2.030000
20
2.940000
0
VERTEX
8
0
10
2.300000
20
2.940000
0
VERTEX
8
0
10
2.330000
20
2.910000
0
VERTEX
8
0
10
2.300000
20
2.880000
0
VERTEX
8
0
10
2.030000
20
2.880000
0
VERTEX
8
0
10
2.000000
20
2.910000
0
SEQEND
8
0
0
POLYLINE
8
0
66
1
40
0.000000
41
0.000000
0
VERTEX
8
0
10
1.970000
20
3.210000
0
VERTEX
8
0
10
2.000000
20
3.240000
0
VERTEX
8
0
10
2.030000
20
3.210000
0
VERTEX
8
0
10
2.020000
20
2.950000
0
VERTEX
8
0
10
1.990000
20
2.920000
0
VERTEX
8
0
10
1.960000
20
2.950000
0
VERTEX
8
0
10
1.970000
20
3.210000
0
SEQEND
8
0
0
POLYLINE
8
0
66
1
40
0.000000
41
0.000000
0
VERTEX
8
0
10
2.310000
20
2.870000
0
VERTEX
8
0
10
2.340000
20
2.900000
0
VERTEX
8
0
10
2.370000
20
2.870000
0
VERTEX
8
0
10
2.360000
20
2.610000
0
VERTEX
8
0
10
2.330000
20
2.580000
0
VERTEX
8
0
10
2.300000
20
2.610000
0
VERTEX
8
0
10
2.310000
20
2.870000
0
SEQEND
8
0
0
POLYLINE
8
0
66
1
40
0.000000
41
0.000000
0
VERTEX
8
0
10
1.990000
20
2.570000
0
VERTEX
8
0
10
2.020000
20
2.600000
0
VERTEX
8
0
10
2.290000
20
2.600000
0
VERTEX
8
0
10
2.320000
20
2.570000
0
VERTEX
8
0
10
2.290000
20
2.540000
0
VERTEX
8
0
10
2.020000
20
2.540000
0
VERTEX
8
0
10
1.990000
20
2.570000
0
SEQEND
8
0
0
POLYLINE
8
0
66
1
40
0.000000
41
0.000000
0
VERTEX
8
0
10
1.960000
20
2.870000
0
VERTEX
8
0
10
1.990000
20
2.900000
0
VERTEX
8
0
10
2.020000
20
2.870000
0
VERTEX
8
0
10
2.010000
20
2.610000
0
VERTEX
8
0
10
1.980000
20
2.580000
0
VERTEX
8
0
10
1.950000
20
2.610000
0
VERTEX
8
0
10
1.960000
20
2.870000
0
SEQEND
8
0
0
CIRCLE
8
0
10
2.390000
20
2.530000
40
0.030000
0
POLYLINE
8
0
66
1
40
0.016000
41
0.016000
0
VERTEX
8
0
10
1.940000
20
2.230000
0
VERTEX
8
0
10
1.940000
20
2.430000
0
SEQEND
8
0
0
POLYLINE
8
0
66
1
40
0.016000
41
0.016000
0
VERTEX
8
0
10
2.040000
20
2.230000
0
VERTEX
8
0
10
2.040000
20
2.430000
0
SEQEND
8
0
0
POLYLINE
8
0
66
1
40
0.016000
41
0.016000
0
VERTEX
8
0
10
2.140000
20
2.230000
0
VERTEX
8
0
10
2.140000
20
2.430000
0
SEQEND
8
0
0
POLYLINE
8
0
66
1
40
0.016000
41
0.016000
0
VERTEX
8
0
10
2.240000
20
2.230000
0
VERTEX
8
0
10
2.240000
20
2.430000
0
SEQEND
8
0
0
POLYLINE
8
0
66
1
40
0.016000
41
0.016000
0
VERTEX
8
0
10
2.440000
20
2.230000
0
VERTEX
8
0
10
2.440000
20
2.430000
0
SEQEND
8
0
0
POLYLINE
8
0
66
1
40
0.016000
41
0.016000
0
VERTEX
8
0
10
1.990000
20
2.230000
0
VERTEX
8
0
10
1.990000
20
2.430000
0
SEQEND
8
0
0
POLYLINE
8
0
66
1
40
0.016000
41
0.016000
0
VERTEX
8
0
10
2.090000
20
2.230000
0
VERTEX
8
0
10
2.090000
20
2.430000
0
SEQEND
8
0
0
POLYLINE
8
0
66
1
40
0.016000
41
0.016000
0
VERTEX
8
0
10
2.190000
20
2.230000
0
VERTEX
8
0
10
2.190000
20
2.430000
0
SEQEND
8
0
0
POLYLINE
8
0
66
1
40
0.016000
41
0.016000
0
VERTEX
8
0
10
2.290000
20
2.230000
0
VERTEX
8
0
10
2.290000
20
2.430000
0
SEQEND
8
0
0
CIRCLE
8
0
10
-2.690000
20
3.100000
40
0.120000
0
POLYLINE
8
0
66
1
40
0.015000
41
0.015000
0
VERTEX
8
0
10
-2.640000
20
3.050000
0
VERTEX
8
0
10
-2.640000
20
3.150000
0
SEQEND
8
0
0
POLYLINE
8
0
66
1
40
0.016000
41
0.016000
0
VERTEX
8
0
10
-2.790000
20
3.100000
0
VERTEX
8
0
10
-2.720000
20
3.100000
0
SEQEND
8
0
0
POLYLINE
8
0
66
1
40
0.016000
41
0.016000
0
VERTEX
8
0
10
-2.640000
20
3.100000
0
VERTEX
8
0
10
-2.590000
20
3.100000
0
SEQEND
8
0
0
POLYLINE
8
0
66
1
40
0.015000
41
0.015000
0
VERTEX
8
0
10
-2.640000
20
3.100000
0
VERTEX
8
0
10
-2.720000
20
3.160000
0
VERTEX
8
0
10
-2.720000
20
3.040000
0
VERTEX
8
0
10
-2.640000
20
3.100000
0
SEQEND
8
0
0
POLYLINE
8
0
66
1
40
0.016000
41
0.016000
0
VERTEX
8
0
10
-2.890000
20
3.100000
0
VERTEX
8
0
10
-2.790000
20
3.100000
0
SEQEND
8
0
0
POLYLINE
8
0
66
1
40
0.016000
41
0.016000
0
VERTEX
8
0
10
-2.490000
20
3.100000
0
VERTEX
8
0
10
-2.590000
20
3.100000
0
SEQEND
8
0
0
CIRCLE
8
0
10
-2.690000
20
2.700000
40
0.120000
0
POLYLINE
8
0
66
1
40
0.015000
41
0.015000
0
VERTEX
8
0
10
-2.640000
20
2.650000
0
VERTEX
8
0
10
-2.640000
20
2.750000
0
SEQEND
8
0
0
POLYLINE
8
0
66
1
40
0.016000
41
0.016000
0
VERTEX
8
0
10
-2.790000
20
2.700000
0
VERTEX
8
0
10
-2.720000
20
2.700000
0
SEQEND
8
0
0
POLYLINE
8
0
66
1
40
0.016000
41
0.016000
0
VERTEX
8
0
10
-2.640000
20
2.700000
0
VERTEX
8
0
10
-2.590000
20
2.700000
0
SEQEND
8
0
0
POLYLINE
8
0
66
1
40
0.015000
41
0.015000
0
VERTEX
8
0
10
-2.640000
20
2.700000
0
VERTEX
8
0
10
-2.720000
20
2.760000
0
VERTEX
8
0
10
-2.720000
20
2.640000
0
VERTEX
8
0
10
-2.640000
20
2.700000
0
SEQEND
8
0
0
POLYLINE
8
0
66
1
40
0.016000
41
0.016000
0
VERTEX
8
0
10
-2.890000
20
2.700000
0
VERTEX
8
0
10
-2.790000
20
2.700000
0
SEQEND
8
0
0
POLYLINE
8
0
66
1
40
0.016000
41
0.016000
0
VERTEX
8
0
10
-2.490000
20
2.700000
0
VERTEX
8
0
10
-2.590000
20
2.700000
0
SEQEND
8
0
0
CIRCLE
8
0
10
-1.790000
20
1.900000
40
0.020000
0
CIRCLE
8
0
10
-1.740000
20
1.900000
40
0.020000
0
CIRCLE
8
0
10
-1.690000
20
1.900000
40
0.020000
0
CIRCLE
8
0
10
-1.640000
20
1.900000
40
0.020000
0
CIRCLE
8
0
10
-1.590000
20
1.900000
40
0.020000
0
CIRCLE
8
0
10
-1.540000
20
1.900000
40
0.020000
0
CIRCLE
8
0
10
-1.490000
20
1.900000
40
0.020000
0
CIRCLE
8
0
10
-1.440000
20
1.900000
40
0.020000
0
CIRCLE
8
0
10
-1.090000
20
1.900000
40
0.020000
0
CIRCLE
8
0
10
-1.040000
20
1.900000
40
0.020000
0
CIRCLE
8
0
10
-0.990000
20
1.900000
40
0.020000
0
CIRCLE
8
0
10
-0.940000
20
1.900000
40
0.020000
0
CIRCLE
8
0
10
-0.890000
20
1.900000
40
0.020000
0
CIRCLE
8
0
10
-0.840000
20
1.900000
40
0.020000
0
CIRCLE
8
0
10
-0.790000
20
1.900000
40
0.020000
0
CIRCLE
8
0
10
-0.740000
20
1.900000
40
0.020000
0
CIRCLE
8
0
10
1.230000
20
1.900000
40
0.020000
0
CIRCLE
8
0
10
1.280000
20
1.900000
40
0.020000
0
CIRCLE
8
0
10
1.330000
20
1.900000
40
0.020000
0
CIRCLE
8
0
10
1.380000
20
1.900000
40
0.020000
0
CIRCLE
8
0
10
1.430000
20
1.900000
40
0.020000
0
CIRCLE
8
0
10
1.480000
20
1.900000
40
0.020000
0
CIRCLE
8
0
10
1.530000
20
1.900000
40
0.020000
0
CIRCLE
8
0
10
1.580000
20
1.900000
40
0.020000
0
CIRCLE
8
0
10
1.930000
20
1.900000
40
0.020000
0
CIRCLE
8
0
10
1.980000
20
1.900000
40
0.020000
0
CIRCLE
8
0
10
2.030000
20
1.900000
40
0.020000
0
CIRCLE
8
0
10
2.080000
20
1.900000
40
0.020000
0
CIRCLE
8
0
10
2.130000
20
1.900000
40
0.020000
0
CIRCLE
8
0
10
2.180000
20
1.900000
40
0.020000
0
CIRCLE
8
0
10
2.230000
20
1.900000
40
0.020000
0
CIRCLE
8
0
10
2.280000
20
1.900000
40
0.020000
0
CIRCLE
8
0
10
-3.600000
20
2.000000
40
0.020000
0
CIRCLE
8
0
10
-1.280000
20
2.000000
40
0.020000
0
CIRCLE
8
0
10
-0.580000
20
2.000000
40
0.020000
0
CIRCLE
8
0
10
1.740000
20
2.000000
40
0.020000
0
CIRCLE
8
0
10
2.440000
20
2.000000
40
0.020000
0
CIRCLE
8
0
10
-2.700000
20
-1.400000
40
0.020000
0
CIRCLE
8
0
10
-2.600000
20
-1.400000
40
0.020000
0
CIRCLE
8
0
10
-1.600000
20
-1.400000
40
0.020000
0
CIRCLE
8
0
10
-1.500000
20
-1.400000
40
0.020000
0
CIRCLE
8
0
10
0.700000
20
-1.400000
40
0.020000
0
CIRCLE
8
0
10
0.600000
20
-1.400000
40
0.020000
0
CIRCLE
8
0
10
-0.400000
20
-1.400000
40
0.020000
0
CIRCLE
8
0
10
-0.500000
20
-1.400000
40
0.020000
0
POLYLINE
8
0
66
1
40
0.016000
41
0.016000
0
VERTEX
8
0
10
2.250000
20
-1.200000
0
VERTEX
8
0
10
2.300000
20
-1.100000
0
VERTEX
8
0
10
2.350000
20
-1.200000
0
VERTEX
8
0
10
2.250000
20
-1.200000
0
SEQEND
8
0
0
POLYLINE
8
0
66
1
40
0.016000
41
0.016000
0
VERTEX
8
0
10
2.300000
20
-1.300000
0
VERTEX
8
0
10
2.300000
20
-1.100000
0
SEQEND
8
0
0
POLYLINE
8
0
66
1
40
0.016000
41
0.016000
0
VERTEX
8
0
10
-4.400000
20
-3.200000
0
VERTEX
8
0
10
-3.500000
20
-3.200000
0
VERTEX
8
0
10
-3.500000
20
-2.400000
0
VERTEX
8
0
10
-4.400000
20
-2.400000
0
VERTEX
8
0
10
-4.400000
20
-3.200000
0
SEQEND
8
0
0
POLYLINE
8
0
66
1
40
0.016000
41
0.016000
0
VERTEX
8
0
10
-4.330000
20
-3.200000
0
VERTEX
8
0
10
-4.300000
20
-3.170000
0
VERTEX
8
0
10
-4.270000
20
-3.200000
0
VERTEX
8
0
10
-4.330000
20
-3.200000
0
SEQEND
8
0
0
POLYLINE
8
0
66
1
40
0.016000
41
0.016000
0
VERTEX
8
0
10
-4.300000
20
-3.400000
0
VERTEX
8
0
10
-4.300000
20
-3.260000
0
SEQEND
8
0
0
CIRCLE
8
0
10
-4.300000
20
-3.230000
40
0.030000
0
TEXT
8
0
10
-4.260000
20
-3.150000
40
0.080000
41
1.000000
50
90.000000
1
CKA
0
TEXT
8
0
10
-4.310000
20
-3.460000
40
0.080000
41
1.000000
50
90.000000
1
14
0
POLYLINE
8
0
66
1
40
0.016000
41
0.016000
0
VERTEX
8
0
10
-4.300000
20
-2.200000
0
VERTEX
8
0
10
-4.300000
20
-2.400000
0
SEQEND
8
0
0
TEXT
8
0
10
-4.260000
20
-2.610000
40
0.080000
41
1.000000
50
90.000000
1
Q0
0
TEXT
8
0
10
-4.310000
20
-2.300000
40
0.080000
41
1.000000
50
90.000000
1
12
0
POLYLINE
8
0
66
1
40
0.016000
41
0.016000
0
VERTEX
8
0
10
-4.230000
20
-3.200000
0
VERTEX
8
0
10
-4.200000
20
-3.170000
0
VERTEX
8
0
10
-4.170000
20
-3.200000
0
VERTEX
8
0
10
-4.230000
20
-3.200000
0
SEQEND
8
0
0
POLYLINE
8
0
66
1
40
0.016000
41
0.016000
0
VERTEX
8
0
10
-4.200000
20
-3.400000
0
VERTEX
8
0
10
-4.200000
20
-3.260000
0
SEQEND
8
0
0
CIRCLE
8
0
10
-4.200000
20
-3.230000
40
0.030000
0
TEXT
8
0
10
-4.160000
20
-3.150000
40
0.080000
41
1.000000
50
90.000000
1
CKB
0
TEXT
8
0
10
-4.210000
20
-3.380000
40
0.080000
41
1.000000
50
90.000000
1
1
0
POLYLINE
8
0
66
1
40
0.016000
41
0.016000
0
VERTEX
8
0
10
-4.200000
20
-2.200000
0
VERTEX
8
0
10
-4.200000
20
-2.400000
0
SEQEND
8
0
0
TEXT
8
0
10
-4.160000
20
-2.610000
40
0.080000
41
1.000000
50
90.000000
1
Q1
0
TEXT
8
0
10
-4.210000
20
-2.300000
40
0.080000
41
1.000000
50
90.000000
1
9
0
POLYLINE
8
0
66
1
40
0.016000
41
0.016000
0
VERTEX
8
0
10
-4.100000
20
-2.200000
0
VERTEX
8
0
10
-4.100000
20
-2.400000
0
SEQEND
8
0
0
TEXT
8
0
10
-4.060000
20
-2.610000
40
0.080000
41
1.000000
50
90.000000
1
Q2
0
TEXT
8
0
10
-4.110000
20
-2.300000
40
0.080000
41
1.000000
50
90.000000
1
8
0
POLYLINE
8
0
66
1
40
0.016000
41
0.016000
0
VERTEX
8
0
10
-4.000000
20
-2.200000
0
VERTEX
8
0
10
-4.000000
20
-2.400000
0
SEQEND
8
0
0
TEXT
8
0
10
-3.960000
20
-2.610000
40
0.080000
41
1.000000
50
90.000000
1
Q3
0
TEXT
8
0
10
-4.010000
20
-2.300000
40
0.080000
41
1.000000
50
90.000000
1
11
0
POLYLINE
8
0
66
1
40
0.016000
41
0.016000
0
VERTEX
8
0
10
-3.900000
20
-3.400000
0
VERTEX
8
0
10
-3.900000
20
-3.200000
0
SEQEND
8
0
0
TEXT
8
0
10
-3.860000
20
-3.150000
40
0.080000
41
1.000000
50
90.000000
1
R0(1)
0
TEXT
8
0
10
-3.910000
20
-3.380000
40
0.080000
41
1.000000
50
90.000000
1
2
0
POLYLINE
8
0
66
1
40
0.016000
41
0.016000
0
VERTEX
8
0
10
-3.800000
20
-3.400000
0
VERTEX
8
0
10
-3.800000
20
-3.200000
0
SEQEND
8
0
0
TEXT
8
0
10
-3.760000
20
-3.150000
40
0.080000
41
1.000000
50
90.000000
1
R0(2)
0
TEXT
8
0
10
-3.810000
20
-3.380000
40
0.080000
41
1.000000
50
90.000000
1
3
0
POLYLINE
8
0
66
1
40
0.016000
41
0.016000
0
VERTEX
8
0
10
-3.700000
20
-3.400000
0
VERTEX
8
0
10
-3.700000
20
-3.200000
0
SEQEND
8
0
0
TEXT
8
0
10
-3.660000
20
-3.150000
40
0.080000
41
1.000000
50
90.000000
1
R9(1)
0
TEXT
8
0
10
-3.710000
20
-3.380000
40
0.080000
41
1.000000
50
90.000000
1
6
0
POLYLINE
8
0
66
1
40
0.016000
41
0.016000
0
VERTEX
8
0
10
-3.600000
20
-3.400000
0
VERTEX
8
0
10
-3.600000
20
-3.200000
0
SEQEND
8
0
0
TEXT
8
0
10
-3.560000
20
-3.150000
40
0.080000
41
1.000000
50
90.000000
1
R9(2)
0
TEXT
8
0
10
-3.610000
20
-3.380000
40
0.080000
41
1.000000
50
90.000000
1
7
0
POLYLINE
8
0
66
1
40
0.016000
41
0.016000
0
VERTEX
8
0
10
-3.200000
20
-3.200000
0
VERTEX
8
0
10
-2.300000
20
-3.200000
0
VERTEX
8
0
10
-2.300000
20
-2.400000
0
VERTEX
8
0
10
-3.200000
20
-2.400000
0
VERTEX
8
0
10
-3.200000
20
-3.200000
0
SEQEND
8
0
0
POLYLINE
8
0
66
1
40
0.016000
41
0.016000
0
VERTEX
8
0
10
-3.130000
20
-3.200000
0
VERTEX
8
0
10
-3.100000
20
-3.170000
0
VERTEX
8
0
10
-3.070000
20
-3.200000
0
VERTEX
8
0
10
-3.130000
20
-3.200000
0
SEQEND
8
0
0
POLYLINE
8
0
66
1
40
0.016000
41
0.016000
0
VERTEX
8
0
10
-3.100000
20
-3.400000
0
VERTEX
8
0
10
-3.100000
20
-3.260000
0
SEQEND
8
0
0
CIRCLE
8
0
10
-3.100000
20
-3.230000
40
0.030000
0
TEXT
8
0
10
-3.060000
20
-3.150000
40
0.080000
41
1.000000
50
90.000000
1
CKA
0
TEXT
8
0
10
-3.110000
20
-3.460000
40
0.080000
41
1.000000
50
90.000000
1
14
0
POLYLINE
8
0
66
1
40
0.016000
41
0.016000
0
VERTEX
8
0
10
-3.100000
20
-2.200000
0
VERTEX
8
0
10
-3.100000
20
-2.400000
0
SEQEND
8
0
0
TEXT
8
0
10
-3.060000
20
-2.610000
40
0.080000
41
1.000000
50
90.000000
1
Q0
0
TEXT
8
0
10
-3.110000
20
-2.300000
40
0.080000
41
1.000000
50
90.000000
1
12
0
POLYLINE
8
0
66
1
40
0.016000
41
0.016000
0
VERTEX
8
0
10
-3.030000
20
-3.200000
0
VERTEX
8
0
10
-3.000000
20
-3.170000
0
VERTEX
8
0
10
-2.970000
20
-3.200000
0
VERTEX
8
0
10
-3.030000
20
-3.200000
0
SEQEND
8
0
0
POLYLINE
8
0
66
1
40
0.016000
41
0.016000
0
VERTEX
8
0
10
-3.000000
20
-3.400000
0
VERTEX
8
0
10
-3.000000
20
-3.260000
0
SEQEND
8
0
0
CIRCLE
8
0
10
-3.000000
20
-3.230000
40
0.030000
0
TEXT
8
0
10
-2.960000
20
-3.150000
40
0.080000
41
1.000000
50
90.000000
1
CKB
0
TEXT
8
0
10
-3.010000
20
-3.380000
40
0.080000
41
1.000000
50
90.000000
1
1
0
POLYLINE
8
0
66
1
40
0.016000
41
0.016000
0
VERTEX
8
0
10
-3.000000
20
-2.200000
0
VERTEX
8
0
10
-3.000000
20
-2.400000
0
SEQEND
8
0
0
TEXT
8
0
10
-2.960000
20
-2.610000
40
0.080000
41
1.000000
50
90.000000
1
Q1
0
TEXT
8
0
10
-3.010000
20
-2.300000
40
0.080000
41
1.000000
50
90.000000
1
9
0
POLYLINE
8
0
66
1
40
0.016000
41
0.016000
0
VERTEX
8
0
10
-2.900000
20
-2.200000
0
VERTEX
8
0
10
-2.900000
20
-2.400000
0
SEQEND
8
0
0
TEXT
8
0
10
-2.860000
20
-2.610000
40
0.080000
41
1.000000
50
90.000000
1
Q2
0
TEXT
8
0
10
-2.910000
20
-2.300000
40
0.080000
41
1.000000
50
90.000000
1
8
0
POLYLINE
8
0
66
1
40
0.016000
41
0.016000
0
VERTEX
8
0
10
-2.800000
20
-2.200000
0
VERTEX
8
0
10
-2.800000
20
-2.400000
0
SEQEND
8
0
0
TEXT
8
0
10
-2.760000
20
-2.610000
40
0.080000
41
1.000000
50
90.000000
1
Q3
0
TEXT
8
0
10
-2.810000
20
-2.300000
40
0.080000
41
1.000000
50
90.000000
1
11
0
POLYLINE
8
0
66
1
40
0.016000
41
0.016000
0
VERTEX
8
0
10
-2.700000
20
-3.400000
0
VERTEX
8
0
10
-2.700000
20
-3.200000
0
SEQEND
8
0
0
TEXT
8
0
10
-2.660000
20
-3.150000
40
0.080000
41
1.000000
50
90.000000
1
R0(1)
0
TEXT
8
0
10
-2.710000
20
-3.380000
40
0.080000
41
1.000000
50
90.000000
1
2
0
POLYLINE
8
0
66
1
40
0.016000
41
0.016000
0
VERTEX
8
0
10
-2.600000
20
-3.400000
0
VERTEX
8
0
10
-2.600000
20
-3.200000
0
SEQEND
8
0
0
TEXT
8
0
10
-2.560000
20
-3.150000
40
0.080000
41
1.000000
50
90.000000
1
R0(2)
0
TEXT
8
0
10
-2.610000
20
-3.380000
40
0.080000
41
1.000000
50
90.000000
1
3
0
POLYLINE
8
0
66
1
40
0.016000
41
0.016000
0
VERTEX
8
0
10
-2.500000
20
-3.400000
0
VERTEX
8
0
10
-2.500000
20
-3.200000
0
SEQEND
8
0
0
TEXT
8
0
10
-2.460000
20
-3.150000
40
0.080000
41
1.000000
50
90.000000
1
R9(1)
0
TEXT
8
0
10
-2.510000
20
-3.380000
40
0.080000
41
1.000000
50
90.000000
1
6
0
POLYLINE
8
0
66
1
40
0.016000
41
0.016000
0
VERTEX
8
0
10
-2.400000
20
-3.400000
0
VERTEX
8
0
10
-2.400000
20
-3.200000
0
SEQEND
8
0
0
TEXT
8
0
10
-2.360000
20
-3.150000
40
0.080000
41
1.000000
50
90.000000
1
R9(2)
0
TEXT
8
0
10
-2.410000
20
-3.380000
40
0.080000
41
1.000000
50
90.000000
1
7
0
CIRCLE
8
0
10
1.900000
20
-3.500000
40
0.020000
0
CIRCLE
8
0
10
1.800000
20
-3.500000
40
0.020000
0
CIRCLE
8
0
10
1.700000
20
-3.500000
40
0.020000
0
CIRCLE
8
0
10
-0.400000
20
-3.500000
40
0.020000
0
CIRCLE
8
0
10
-0.300000
20
-3.500000
40
0.020000
0
CIRCLE
8
0
10
-0.200000
20
-3.500000
40
0.020000
0
CIRCLE
8
0
10
0.600000
20
-3.500000
40
0.020000
0
CIRCLE
8
0
10
0.700000
20
-3.500000
40
0.020000
0
CIRCLE
8
0
10
0.800000
20
-3.500000
40
0.020000
0
CIRCLE
8
0
10
0.900000
20
-3.500000
40
0.020000
0
CIRCLE
8
0
10
2.000000
20
-3.500000
40
0.020000
0
CIRCLE
8
0
10
-4.900000
20
-1.730000
40
0.030000
0
CIRCLE
8
0
10
-4.900000
20
-1.970000
40
0.030000
0
POLYLINE
8
0
66
1
40
0.016000
41
0.016000
0
VERTEX
8
0
10
-4.980000
20
-1.990000
0
VERTEX
8
0
10
-4.980000
20
-1.710000
0
SEQEND
8
0
0
POLYLINE
8
0
66
1
40
0.016000
41
0.016000
0
VERTEX
8
0
10
-5.030000
20
-1.930000
0
VERTEX
8
0
10
-4.980000
20
-1.930000
0
VERTEX
8
0
10
-4.980000
20
-1.770000
0
VERTEX
8
0
10
-5.030000
20
-1.770000
0
VERTEX
8
0
10
-5.030000
20
-1.930000
0
SEQEND
8
0
0
POLYLINE
8
0
66
1
40
0.016000
41
0.016000
0
VERTEX
8
0
10
-4.900000
20
-2.100000
0
VERTEX
8
0
10
-4.900000
20
-2.000000
0
SEQEND
8
0
0
POLYLINE
8
0
66
1
40
0.016000
41
0.016000
0
VERTEX
8
0
10
-4.900000
20
-1.600000
0
VERTEX
8
0
10
-4.900000
20
-1.700000
0
SEQEND
8
0
0
CIRCLE
8
0
10
-5.000000
20
-1.650000
40
0.040000
0
POLYLINE
8
0
66
1
40
0.008000
41
0.008000
0
VERTEX
8
0
10
-4.980000
20
-1.650000
0
VERTEX
8
0
10
-5.020000
20
-1.650000
0
SEQEND
8
0
0
POLYLINE
8
0
66
1
40
0.008000
41
0.008000
0
VERTEX
8
0
10
-4.980000
20
-1.650000
0
VERTEX
8
0
10
-4.990000
20
-1.660000
0
SEQEND
8
0
0
POLYLINE
8
0
66
1
40
0.008000
41
0.008000
0
VERTEX
8
0
10
-4.980000
20
-1.650000
0
VERTEX
8
0
10
-4.990000
20
-1.640000
0
SEQEND
8
0
0
POLYLINE
8
0
66
1
40
0.008000
41
0.008000
0
VERTEX
8
0
10
-5.010000
20
-1.660000
0
VERTEX
8
0
10
-5.020000
20
-1.650000
0
VERTEX
8
0
10
-5.010000
20
-1.640000
0
SEQEND
8
0
0
POLYLINE
8
0
66
1
40
0.016000
41
0.016000
0
VERTEX
8
0
10
-4.900000
20
-2.250000
0
VERTEX
8
0
10
-4.900000
20
-2.350000
0
SEQEND
8
0
0
POLYLINE
8
0
66
1
40
0.016000
41
0.016000
0
VERTEX
8
0
10
-5.000000
20
-2.350000
0
VERTEX
8
0
10
-4.800000
20
-2.350000
0
SEQEND
8
0
0
POLYLINE
8
0
66
1
40
0.016000
41
0.016000
0
VERTEX
8
0
10
-4.950000
20
-2.400000
0
VERTEX
8
0
10
-4.850000
20
-2.400000
0
SEQEND
8
0
0
POLYLINE
8
0
66
1
40
0.016000
41
0.016000
0
VERTEX
8
0
10
-4.910000
20
-2.450000
0
VERTEX
8
0
10
-4.890000
20
-2.450000
0
SEQEND
8
0
0
POLYLINE
8
0
66
1
40
0.016000
41
0.016000
0
VERTEX
8
0
10
4.100000
20
-0.300000
0
VERTEX
8
0
10
4.000000
20
-0.250000
0
VERTEX
8
0
10
4.050000
20
-0.200000
0
VERTEX
8
0
10
4.100000
20
-0.300000
0
SEQEND
8
0
0
POLYLINE
8
0
66
1
40
0.016000
41
0.016000
0
VERTEX
8
0
10
3.900000
20
-0.250000
0
VERTEX
8
0
10
3.950000
20
-0.250000
0
VERTEX
8
0
10
3.950000
20
0.050000
0
VERTEX
8
0
10
3.900000
20
0.050000
0
VERTEX
8
0
10
3.900000
20
-0.250000
0
SEQEND
8
0
0
POLYLINE
8
0
66
1
40
0.016000
41
0.016000
0
VERTEX
8
0
10
3.950000
20
-0.050000
0
VERTEX
8
0
10
4.100000
20
0.100000
0
SEQEND
8
0
0
POLYLINE
8
0
66
1
40
0.016000
41
0.016000
0
VERTEX
8
0
10
3.950000
20
-0.150000
0
VERTEX
8
0
10
4.020000
20
-0.220000
0
SEQEND
8
0
0
POLYLINE
8
0
66
1
40
0.016000
41
0.016000
0
VERTEX
8
0
10
3.800000
20
-0.100000
0
VERTEX
8
0
10
3.900000
20
-0.100000
0
SEQEND
8
0
0
POLYLINE
8
0
66
1
40
0.016000
41
0.016000
0
VERTEX
8
0
10
4.100000
20
0.200000
0
VERTEX
8
0
10
4.100000
20
0.100000
0
SEQEND
8
0
0
POLYLINE
8
0
66
1
40
0.016000
41
0.016000
0
VERTEX
8
0
10
4.100000
20
-0.400000
0
VERTEX
8
0
10
4.100000
20
-0.300000
0
SEQEND
8
0
0
TEXT
8
0
10
4.158000
20
-0.027000
40
0.120000
41
0.666667
1
Q1
0
TEXT
8
0
10
4.158000
20
-0.132000
40
0.080000
41
1.000000
1
2N1711
0
POLYLINE
8
0
66
1
40
0.016000
41
0.016000
0
VERTEX
8
0
10
3.200000
20
-0.300000
0
VERTEX
8
0
10
3.100000
20
-0.250000
0
VERTEX
8
0
10
3.150000
20
-0.200000
0
VERTEX
8
0
10
3.200000
20
-0.300000
0
SEQEND
8
0
0
POLYLINE
8
0
66
1
40
0.016000
41
0.016000
0
VERTEX
8
0
10
3.000000
20
-0.250000
0
VERTEX
8
0
10
3.050000
20
-0.250000
0
VERTEX
8
0
10
3.050000
20
0.050000
0
VERTEX
8
0
10
3.000000
20
0.050000
0
VERTEX
8
0
10
3.000000
20
-0.250000
0
SEQEND
8
0
0
POLYLINE
8
0
66
1
40
0.016000
41
0.016000
0
VERTEX
8
0
10
3.050000
20
-0.050000
0
VERTEX
8
0
10
3.200000
20
0.100000
0
SEQEND
8
0
0
POLYLINE
8
0
66
1
40
0.016000
41
0.016000
0
VERTEX
8
0
10
3.050000
20
-0.150000
0
VERTEX
8
0
10
3.120000
20
-0.220000
0
SEQEND
8
0
0
POLYLINE
8
0
66
1
40
0.016000
41
0.016000
0
VERTEX
8
0
10
2.900000
20
-0.100000
0
VERTEX
8
0
10
3.000000
20
-0.100000
0
SEQEND
8
0
0
POLYLINE
8
0
66
1
40
0.016000
41
0.016000
0
VERTEX
8
0
10
3.200000
20
0.200000
0
VERTEX
8
0
10
3.200000
20
0.100000
0
SEQEND
8
0
0
POLYLINE
8
0
66
1
40
0.016000
41
0.016000
0
VERTEX
8
0
10
3.200000
20
-0.400000
0
VERTEX
8
0
10
3.200000
20
-0.300000
0
SEQEND
8
0
0
TEXT
8
0
10
3.258000
20
-0.027000
40
0.120000
41
0.666667
1
Q2
0
TEXT
8
0
10
3.258000
20
-0.132000
40
0.080000
41
1.000000
1
2N1711
0
POLYLINE
8
0
66
1
40
0.016000
41
0.016000
0
VERTEX
8
0
10
5.100000
20
-0.300000
0
VERTEX
8
0
10
5.000000
20
-0.250000
0
VERTEX
8
0
10
5.050000
20
-0.200000
0
VERTEX
8
0
10
5.100000
20
-0.300000
0
SEQEND
8
0
0
POLYLINE
8
0
66
1
40
0.016000
41
0.016000
0
VERTEX
8
0
10
4.900000
20
-0.250000
0
VERTEX
8
0
10
4.950000
20
-0.250000
0
VERTEX
8
0
10
4.950000
20
0.050000
0
VERTEX
8
0
10
4.900000
20
0.050000
0
VERTEX
8
0
10
4.900000
20
-0.250000
0
SEQEND
8
0
0
POLYLINE
8
0
66
1
40
0.016000
41
0.016000
0
VERTEX
8
0
10
4.950000
20
-0.050000
0
VERTEX
8
0
10
5.100000
20
0.100000
0
SEQEND
8
0
0
POLYLINE
8
0
66
1
40
0.016000
41
0.016000
0
VERTEX
8
0
10
4.950000
20
-0.150000
0
VERTEX
8
0
10
5.020000
20
-0.220000
0
SEQEND
8
0
0
POLYLINE
8
0
66
1
40
0.016000
41
0.016000
0
VERTEX
8
0
10
4.800000
20
-0.100000
0
VERTEX
8
0
10
4.900000
20
-0.100000
0
SEQEND
8
0
0
POLYLINE
8
0
66
1
40
0.016000
41
0.016000
0
VERTEX
8
0
10
5.100000
20
0.200000
0
VERTEX
8
0
10
5.100000
20
0.100000
0
SEQEND
8
0
0
POLYLINE
8
0
66
1
40
0.016000
41
0.016000
0
VERTEX
8
0
10
5.100000
20
-0.400000
0
VERTEX
8
0
10
5.100000
20
-0.300000
0
SEQEND
8
0
0
TEXT
8
0
10
5.158000
20
-0.027000
40
0.120000
41
0.666667
1
Q3
0
TEXT
8
0
10
5.158000
20
-0.132000
40
0.080000
41
1.000000
1
2N1711
0
POLYLINE
8
0
66
1
40
0.016000
41
0.016000
0
VERTEX
8
0
10
3.160000
20
0.400000
0
VERTEX
8
0
10
3.240000
20
0.400000
0
VERTEX
8
0
10
3.240000
20
0.700000
0
VERTEX
8
0
10
3.160000
20
0.700000
0
VERTEX
8
0
10
3.160000
20
0.400000
0
SEQEND
8
0
0
POLYLINE
8
0
66
1
40
0.016000
41
0.016000
0
VERTEX
8
0
10
3.200000
20
0.800000
0
VERTEX
8
0
10
3.200000
20
0.700000
0
SEQEND
8
0
0
POLYLINE
8
0
66
1
40
0.016000
41
0.016000
0
VERTEX
8
0
10
3.200000
20
0.300000
0
VERTEX
8
0
10
3.200000
20
0.400000
0
SEQEND
8
0
0
TEXT
8
0
10
3.298000
20
0.573000
40
0.120000
41
0.666667
1
R5
0
TEXT
8
0
10
3.298000
20
0.468000
40
0.080000
41
1.000000
1
220
0
POLYLINE
8
0
66
1
40
0.016000
41
0.016000
0
VERTEX
8
0
10
4.060000
20
0.400000
0
VERTEX
8
0
10
4.140000
20
0.400000
0
VERTEX
8
0
10
4.140000
20
0.700000
0
VERTEX
8
0
10
4.060000
20
0.700000
0
VERTEX
8
0
10
4.060000
20
0.400000
0
SEQEND
8
0
0
POLYLINE
8
0
66
1
40
0.016000
41
0.016000
0
VERTEX
8
0
10
4.100000
20
0.800000
0
VERTEX
8
0
10
4.100000
20
0.700000
0
SEQEND
8
0
0
POLYLINE
8
0
66
1
40
0.016000
41
0.016000
0
VERTEX
8
0
10
4.100000
20
0.300000
0
VERTEX
8
0
10
4.100000
20
0.400000
0
SEQEND
8
0
0
TEXT
8
0
10
4.198000
20
0.573000
40
0.120000
41
0.666667
1
R6
0
TEXT
8
0
10
4.198000
20
0.468000
40
0.080000
41
1.000000
1
220
0
POLYLINE
8
0
66
1
40
0.016000
41
0.016000
0
VERTEX
8
0
10
2.660000
20
-0.600000
0
VERTEX
8
0
10
2.740000
20
-0.600000
0
VERTEX
8
0
10
2.740000
20
-0.300000
0
VERTEX
8
0
10
2.660000
20
-0.300000
0
VERTEX
8
0
10
2.660000
20
-0.600000
0
SEQEND
8
0
0
POLYLINE
8
0
66
1
40
0.016000
41
0.016000
0
VERTEX
8
0
10
2.700000
20
-0.700000
0
VERTEX
8
0
10
2.700000
20
-0.600000
0
SEQEND
8
0
0
POLYLINE
8
0
66
1
40
0.016000
41
0.016000
0
VERTEX
8
0
10
2.700000
20
-0.200000
0
VERTEX
8
0
10
2.700000
20
-0.300000
0
SEQEND
8
0
0
TEXT
8
0
10
2.798000
20
-0.427000
40
0.120000
41
0.666667
1
R9
0
TEXT
8
0
10
2.798000
20
-0.532000
40
0.080000
41
1.000000
1
47
0
POLYLINE
8
0
66
1
40
0.016000
41
0.016000
0
VERTEX
8
0
10
3.560000
20
-0.600000
0
VERTEX
8
0
10
3.640000
20
-0.600000
0
VERTEX
8
0
10
3.640000
20
-0.300000
0
VERTEX
8
0
10
3.560000
20
-0.300000
0
VERTEX
8
0
10
3.560000
20
-0.600000
0
SEQEND
8
0
0
POLYLINE
8
0
66
1
40
0.016000
41
0.016000
0
VERTEX
8
0
10
3.600000
20
-0.700000
0
VERTEX
8
0
10
3.600000
20
-0.600000
0
SEQEND
8
0
0
POLYLINE
8
0
66
1
40
0.016000
41
0.016000
0
VERTEX
8
0
10
3.600000
20
-0.200000
0
VERTEX
8
0
10
3.600000
20
-0.300000
0
SEQEND
8
0
0
TEXT
8
0
10
3.698000
20
-0.427000
40
0.120000
41
0.666667
1
R10
0
TEXT
8
0
10
3.698000
20
-0.532000
40
0.080000
41
1.000000
1
47
0
POLYLINE
8
0
66
1
40
0.016000
41
0.016000
0
VERTEX
8
0
10
4.560000
20
-0.600000
0
VERTEX
8
0
10
4.640000
20
-0.600000
0
VERTEX
8
0
10
4.640000
20
-0.300000
0
VERTEX
8
0
10
4.560000
20
-0.300000
0
VERTEX
8
0
10
4.560000
20
-0.600000
0
SEQEND
8
0
0
POLYLINE
8
0
66
1
40
0.016000
41
0.016000
0
VERTEX
8
0
10
4.600000
20
-0.700000
0
VERTEX
8
0
10
4.600000
20
-0.600000
0
SEQEND
8
0
0
POLYLINE
8
0
66
1
40
0.016000
41
0.016000
0
VERTEX
8
0
10
4.600000
20
-0.200000
0
VERTEX
8
0
10
4.600000
20
-0.300000
0
SEQEND
8
0
0
TEXT
8
0
10
4.698000
20
-0.427000
40
0.120000
41
0.666667
1
R11
0
TEXT
8
0
10
4.698000
20
-0.532000
40
0.080000
41
1.000000
1
47
0
POLYLINE
8
0
66
1
40
0.016000
41
0.016000
0
VERTEX
8
0
10
4.300000
20
-1.000000
0
VERTEX
8
0
10
4.300000
20
-1.100000
0
SEQEND
8
0
0
POLYLINE
8
0
66
1
40
0.016000
41
0.016000
0
VERTEX
8
0
10
4.200000
20
-1.100000
0
VERTEX
8
0
10
4.400000
20
-1.100000
0
SEQEND
8
0
0
POLYLINE
8
0
66
1
40
0.016000
41
0.016000
0
VERTEX
8
0
10
4.250000
20
-1.150000
0
VERTEX
8
0
10
4.350000
20
-1.150000
0
SEQEND
8
0
0
POLYLINE
8
0
66
1
40
0.016000
41
0.016000
0
VERTEX
8
0
10
4.290000
20
-1.200000
0
VERTEX
8
0
10
4.310000
20
-1.200000
0
SEQEND
8
0
0
CIRCLE
8
0
10
4.100000
20
-0.900000
40
0.020000
0
CIRCLE
8
0
10
4.300000
20
-0.900000
40
0.020000
0
CIRCLE
8
0
10
3.200000
20
1.000000
40
0.020000
0
CIRCLE
8
0
10
4.100000
20
1.000000
40
0.020000
0
CIRCLE
8
0
10
4.600000
20
-0.800000
40
0.020000
0
CIRCLE
8
0
10
3.600000
20
-0.800000
40
0.020000
0
POLYLINE
8
0
66
1
40
0.016000
41
0.016000
0
VERTEX
8
0
10
-3.050000
20
3.400000
0
VERTEX
8
0
10
-3.000000
20
3.500000
0
VERTEX
8
0
10
-2.950000
20
3.400000
0
VERTEX
8
0
10
-3.050000
20
3.400000
0
SEQEND
8
0
0
POLYLINE
8
0
66
1
40
0.016000
41
0.016000
0
VERTEX
8
0
10
-3.000000
20
3.300000
0
VERTEX
8
0
10
-3.000000
20
3.500000
0
SEQEND
8
0
0
CIRCLE
8
0
10
-3.000000
20
3.100000
40
0.020000
0
CIRCLE
8
0
10
-2.300000
20
3.100000
40
0.020000
0
CIRCLE
8
0
10
-2.300000
20
2.700000
40
0.020000
0
CIRCLE
8
0
10
0.310000
20
3.100000
40
0.120000
0
POLYLINE
8
0
66
1
40
0.015000
41
0.015000
0
VERTEX
8
0
10
0.360000
20
3.050000
0
VERTEX
8
0
10
0.360000
20
3.150000
0
SEQEND
8
0
0
POLYLINE
8
0
66
1
40
0.016000
41
0.016000
0
VERTEX
8
0
10
0.210000
20
3.100000
0
VERTEX
8
0
10
0.280000
20
3.100000
0
SEQEND
8
0
0
POLYLINE
8
0
66
1
40
0.016000
41
0.016000
0
VERTEX
8
0
10
0.360000
20
3.100000
0
VERTEX
8
0
10
0.410000
20
3.100000
0
SEQEND
8
0
0
POLYLINE
8
0
66
1
40
0.015000
41
0.015000
0
VERTEX
8
0
10
0.360000
20
3.100000
0
VERTEX
8
0
10
0.280000
20
3.160000
0
VERTEX
8
0
10
0.280000
20
3.040000
0
VERTEX
8
0
10
0.360000
20
3.100000
0
SEQEND
8
0
0
POLYLINE
8
0
66
1
40
0.016000
41
0.016000
0
VERTEX
8
0
10
0.110000
20
3.100000
0
VERTEX
8
0
10
0.210000
20
3.100000
0
SEQEND
8
0
0
POLYLINE
8
0
66
1
40
0.016000
41
0.016000
0
VERTEX
8
0
10
0.510000
20
3.100000
0
VERTEX
8
0
10
0.410000
20
3.100000
0
SEQEND
8
0
0
CIRCLE
8
0
10
0.310000
20
2.700000
40
0.120000
0
POLYLINE
8
0
66
1
40
0.015000
41
0.015000
0
VERTEX
8
0
10
0.360000
20
2.650000
0
VERTEX
8
0
10
0.360000
20
2.750000
0
SEQEND
8
0
0
POLYLINE
8
0
66
1
40
0.016000
41
0.016000
0
VERTEX
8
0
10
0.210000
20
2.700000
0
VERTEX
8
0
10
0.280000
20
2.700000
0
SEQEND
8
0
0
POLYLINE
8
0
66
1
40
0.016000
41
0.016000
0
VERTEX
8
0
10
0.360000
20
2.700000
0
VERTEX
8
0
10
0.410000
20
2.700000
0
SEQEND
8
0
0
POLYLINE
8
0
66
1
40
0.015000
41
0.015000
0
VERTEX
8
0
10
0.360000
20
2.700000
0
VERTEX
8
0
10
0.280000
20
2.760000
0
VERTEX
8
0
10
0.280000
20
2.640000
0
VERTEX
8
0
10
0.360000
20
2.700000
0
SEQEND
8
0
0
POLYLINE
8
0
66
1
40
0.016000
41
0.016000
0
VERTEX
8
0
10
0.110000
20
2.700000
0
VERTEX
8
0
10
0.210000
20
2.700000
0
SEQEND
8
0
0
POLYLINE
8
0
66
1
40
0.016000
41
0.016000
0
VERTEX
8
0
10
0.510000
20
2.700000
0
VERTEX
8
0
10
0.410000
20
2.700000
0
SEQEND
8
0
0
POLYLINE
8
0
66
1
40
0.016000
41
0.016000
0
VERTEX
8
0
10
-0.050000
20
3.400000
0
VERTEX
8
0
10
0.000000
20
3.500000
0
VERTEX
8
0
10
0.050000
20
3.400000
0
VERTEX
8
0
10
-0.050000
20
3.400000
0
SEQEND
8
0
0
POLYLINE
8
0
66
1
40
0.016000
41
0.016000
0
VERTEX
8
0
10
0.000000
20
3.300000
0
VERTEX
8
0
10
0.000000
20
3.500000
0
SEQEND
8
0
0
CIRCLE
8
0
10
0.000000
20
3.100000
40
0.020000
0
CIRCLE
8
0
10
0.700000
20
3.100000
40
0.020000
0
CIRCLE
8
0
10
0.700000
20
2.700000
40
0.020000
0
CIRCLE
8
0
10
2.700000
20
-0.800000
40
0.020000
0
CIRCLE
8
0
10
2.700000
20
-1.300000
40
0.020000
0
CIRCLE
8
0
10
-0.500000
20
-3.500000
40
0.020000
0
CIRCLE
8
0
10
-1.300000
20
-3.500000
40
0.020000
0
CIRCLE
8
0
10
-1.400000
20
-3.500000
40
0.020000
0
CIRCLE
8
0
10
-1.500000
20
-3.500000
40
0.020000
0
CIRCLE
8
0
10
-1.600000
20
-3.500000
40
0.020000
0
CIRCLE
8
0
10
-2.400000
20
-3.500000
40
0.020000
0
CIRCLE
8
0
10
-2.500000
20
-3.500000
40
0.020000
0
CIRCLE
8
0
10
-2.600000
20
-3.500000
40
0.020000
0
CIRCLE
8
0
10
-2.700000
20
-3.500000
40
0.020000
0
CIRCLE
8
0
10
-3.600000
20
-3.500000
40
0.020000
0
CIRCLE
8
0
10
-3.700000
20
-3.500000
40
0.020000
0
CIRCLE
8
0
10
-3.800000
20
-3.500000
40
0.020000
0
CIRCLE
8
0
10
-4.300000
20
-1.600000
40
0.020000
0
CIRCLE
8
0
10
0.200000
20
-1.600000
40
0.020000
0
CIRCLE
8
0
10
-0.900000
20
-1.600000
40
0.020000
0
CIRCLE
8
0
10
-2.000000
20
-1.600000
40
0.020000
0
CIRCLE
8
0
10
-3.100000
20
-1.600000
40
0.020000
0
POLYLINE
8
0
66
1
40
0.016000
41
0.016000
0
VERTEX
8
0
10
1.200000
20
-1.100000
0
VERTEX
8
0
10
2.000000
20
-1.100000
0
VERTEX
8
0
10
2.000000
20
-0.300000
0
VERTEX
8
0
10
1.200000
20
-0.300000
0
VERTEX
8
0
10
1.200000
20
-1.100000
0
SEQEND
8
0
0
POLYLINE
8
0
66
1
40
0.016000
41
0.016000
0
VERTEX
8
0
10
1.300000
20
-1.300000
0
VERTEX
8
0
10
1.300000
20
-1.100000
0
SEQEND
8
0
0
TEXT
8
0
10
1.340000
20
-1.050000
40
0.080000
41
1.000000
50
90.000000
1
A
0
TEXT
8
0
10
1.290000
20
-1.280000
40
0.080000
41
1.000000
50
90.000000
1
7
0
CIRCLE
8
0
10
1.300000
20
-0.270000
40
0.030000
0
POLYLINE
8
0
66
1
40
0.016000
41
0.016000
0
VERTEX
8
0
10
1.300000
20
-0.100000
0
VERTEX
8
0
10
1.300000
20
-0.240000
0
SEQEND
8
0
0
TEXT
8
0
10
1.340000
20
-0.510000
40
0.080000
41
1.000000
50
90.000000
1
QA
0
TEXT
8
0
10
1.290000
20
-0.200000
40
0.080000
41
1.000000
50
90.000000
1
13
0
POLYLINE
8
0
66
1
40
0.016000
41
0.016000
0
VERTEX
8
0
10
1.400000
20
-1.300000
0
VERTEX
8
0
10
1.400000
20
-1.100000
0
SEQEND
8
0
0
TEXT
8
0
10
1.440000
20
-1.050000
40
0.080000
41
1.000000
50
90.000000
1
B
0
TEXT
8
0
10
1.390000
20
-1.280000
40
0.080000
41
1.000000
50
90.000000
1
1
0
CIRCLE
8
0
10
1.400000
20
-0.270000
40
0.030000
0
POLYLINE
8
0
66
1
40
0.016000
41
0.016000
0
VERTEX
8
0
10
1.400000
20
-0.100000
0
VERTEX
8
0
10
1.400000
20
-0.240000
0
SEQEND
8
0
0
TEXT
8
0
10
1.440000
20
-0.510000
40
0.080000
41
1.000000
50
90.000000
1
QB
0
TEXT
8
0
10
1.390000
20
-0.200000
40
0.080000
41
1.000000
50
90.000000
1
12
0
POLYLINE
8
0
66
1
40
0.016000
41
0.016000
0
VERTEX
8
0
10
1.500000
20
-1.300000
0
VERTEX
8
0
10
1.500000
20
-1.100000
0
SEQEND
8
0
0
TEXT
8
0
10
1.540000
20
-1.050000
40
0.080000
41
1.000000
50
90.000000
1
C
0
TEXT
8
0
10
1.490000
20
-1.280000
40
0.080000
41
1.000000
50
90.000000
1
2
0
CIRCLE
8
0
10
1.500000
20
-0.270000
40
0.030000
0
POLYLINE
8
0
66
1
40
0.016000
41
0.016000
0
VERTEX
8
0
10
1.500000
20
-0.100000
0
VERTEX
8
0
10
1.500000
20
-0.240000
0
SEQEND
8
0
0
TEXT
8
0
10
1.540000
20
-0.510000
40
0.080000
41
1.000000
50
90.000000
1
QC
0
TEXT
8
0
10
1.490000
20
-0.200000
40
0.080000
41
1.000000
50
90.000000
1
11
0
POLYLINE
8
0
66
1
40
0.016000
41
0.016000
0
VERTEX
8
0
10
1.600000
20
-1.300000
0
VERTEX
8
0
10
1.600000
20
-1.100000
0
SEQEND
8
0
0
TEXT
8
0
10
1.640000
20
-1.050000
40
0.080000
41
1.000000
50
90.000000
1
D
0
TEXT
8
0
10
1.590000
20
-1.280000
40
0.080000
41
1.000000
50
90.000000
1
6
0
CIRCLE
8
0
10
1.600000
20
-0.270000
40
0.030000
0
POLYLINE
8
0
66
1
40
0.016000
41
0.016000
0
VERTEX
8
0
10
1.600000
20
-0.100000
0
VERTEX
8
0
10
1.600000
20
-0.240000
0
SEQEND
8
0
0
TEXT
8
0
10
1.640000
20
-0.510000
40
0.080000
41
1.000000
50
90.000000
1
QD
0
TEXT
8
0
10
1.590000
20
-0.200000
40
0.080000
41
1.000000
50
90.000000
1
10
0
CIRCLE
8
0
10
1.700000
20
-1.130000
40
0.030000
0
POLYLINE
8
0
66
1
40
0.016000
41
0.016000
0
VERTEX
8
0
10
1.700000
20
-1.300000
0
VERTEX
8
0
10
1.700000
20
-1.160000
0
SEQEND
8
0
0
TEXT
8
0
10
1.740000
20
-1.050000
40
0.080000
41
1.000000
50
90.000000
1
BI/RBO
0
TEXT
8
0
10
1.690000
20
-1.280000
40
0.080000
41
1.000000
50
90.000000
1
4
0
CIRCLE
8
0
10
1.700000
20
-0.270000
40
0.030000
0
POLYLINE
8
0
66
1
40
0.016000
41
0.016000
0
VERTEX
8
0
10
1.700000
20
-0.100000
0
VERTEX
8
0
10
1.700000
20
-0.240000
0
SEQEND
8
0
0
TEXT
8
0
10
1.740000
20
-0.510000
40
0.080000
41
1.000000
50
90.000000
1
QE
0
TEXT
8
0
10
1.690000
20
-0.200000
40
0.080000
41
1.000000
50
90.000000
1
9
0
CIRCLE
8
0
10
1.800000
20
-1.130000
40
0.030000
0
POLYLINE
8
0
66
1
40
0.016000
41
0.016000
0
VERTEX
8
0
10
1.800000
20
-1.300000
0
VERTEX
8
0
10
1.800000
20
-1.160000
0
SEQEND
8
0
0
TEXT
8
0
10
1.840000
20
-1.050000
40
0.080000
41
1.000000
50
90.000000
1
RBI
0
TEXT
8
0
10
1.790000
20
-1.280000
40
0.080000
41
1.000000
50
90.000000
1
5
0
CIRCLE
8
0
10
1.800000
20
-0.270000
40
0.030000
0
POLYLINE
8
0
66
1
40
0.016000
41
0.016000
0
VERTEX
8
0
10
1.800000
20
-0.100000
0
VERTEX
8
0
10
1.800000
20
-0.240000
0
SEQEND
8
0
0
TEXT
8
0
10
1.840000
20
-0.510000
40
0.080000
41
1.000000
50
90.000000
1
QF
0
TEXT
8
0
10
1.790000
20
-0.200000
40
0.080000
41
1.000000
50
90.000000
1
15
0
CIRCLE
8
0
10
1.900000
20
-1.130000
40
0.030000
0
POLYLINE
8
0
66
1
40
0.016000
41
0.016000
0
VERTEX
8
0
10
1.900000
20
-1.300000
0
VERTEX
8
0
10
1.900000
20
-1.160000
0
SEQEND
8
0
0
TEXT
8
0
10
1.940000
20
-1.050000
40
0.080000
41
1.000000
50
90.000000
1
LT
0
TEXT
8
0
10
1.890000
20
-1.280000
40
0.080000
41
1.000000
50
90.000000
1
3
0
CIRCLE
8
0
10
1.900000
20
-0.270000
40
0.030000
0
POLYLINE
8
0
66
1
40
0.016000
41
0.016000
0
VERTEX
8
0
10
1.900000
20
-0.100000
0
VERTEX
8
0
10
1.900000
20
-0.240000
0
SEQEND
8
0
0
TEXT
8
0
10
1.940000
20
-0.510000
40
0.080000
41
1.000000
50
90.000000
1
QG
0
TEXT
8
0
10
1.890000
20
-0.200000
40
0.080000
41
1.000000
50
90.000000
1
14
0
TEXT
8
0
10
2.058000
20
-0.427000
40
0.120000
41
0.666667
1
U2
0
TEXT
8
0
10
2.058000
20
-0.532000
40
0.080000
41
1.000000
1
74247
0
POLYLINE
8
0
66
1
40
0.016000
41
0.016000
0
VERTEX
8
0
10
0.100000
20
-1.100000
0
VERTEX
8
0
10
0.900000
20
-1.100000
0
VERTEX
8
0
10
0.900000
20
-0.300000
0
VERTEX
8
0
10
0.100000
20
-0.300000
0
VERTEX
8
0
10
0.100000
20
-1.100000
0
SEQEND
8
0
0
POLYLINE
8
0
66
1
40
0.016000
41
0.016000
0
VERTEX
8
0
10
0.200000
20
-1.300000
0
VERTEX
8
0
10
0.200000
20
-1.100000
0
SEQEND
8
0
0
TEXT
8
0
10
0.240000
20
-1.050000
40
0.080000
41
1.000000
50
90.000000
1
A
0
TEXT
8
0
10
0.190000
20
-1.280000
40
0.080000
41
1.000000
50
90.000000
1
7
0
CIRCLE
8
0
10
0.200000
20
-0.270000
40
0.030000
0
POLYLINE
8
0
66
1
40
0.016000
41
0.016000
0
VERTEX
8
0
10
0.200000
20
-0.100000
0
VERTEX
8
0
10
0.200000
20
-0.240000
0
SEQEND
8
0
0
TEXT
8
0
10
0.240000
20
-0.510000
40
0.080000
41
1.000000
50
90.000000
1
QA
0
TEXT
8
0
10
0.190000
20
-0.200000
40
0.080000
41
1.000000
50
90.000000
1
13
0
POLYLINE
8
0
66
1
40
0.016000
41
0.016000
0
VERTEX
8
0
10
0.300000
20
-1.300000
0
VERTEX
8
0
10
0.300000
20
-1.100000
0
SEQEND
8
0
0
TEXT
8
0
10
0.340000
20
-1.050000
40
0.080000
41
1.000000
50
90.000000
1
B
0
TEXT
8
0
10
0.290000
20
-1.280000
40
0.080000
41
1.000000
50
90.000000
1
1
0
CIRCLE
8
0
10
0.300000
20
-0.270000
40
0.030000
0
POLYLINE
8
0
66
1
40
0.016000
41
0.016000
0
VERTEX
8
0
10
0.300000
20
-0.100000
0
VERTEX
8
0
10
0.300000
20
-0.240000
0
SEQEND
8
0
0
TEXT
8
0
10
0.340000
20
-0.510000
40
0.080000
41
1.000000
50
90.000000
1
QB
0
TEXT
8
0
10
0.290000
20
-0.200000
40
0.080000
41
1.000000
50
90.000000
1
12
0
POLYLINE
8
0
66
1
40
0.016000
41
0.016000
0
VERTEX
8
0
10
0.400000
20
-1.300000
0
VERTEX
8
0
10
0.400000
20
-1.100000
0
SEQEND
8
0
0
TEXT
8
0
10
0.440000
20
-1.050000
40
0.080000
41
1.000000
50
90.000000
1
C
0
TEXT
8
0
10
0.390000
20
-1.280000
40
0.080000
41
1.000000
50
90.000000
1
2
0
CIRCLE
8
0
10
0.400000
20
-0.270000
40
0.030000
0
POLYLINE
8
0
66
1
40
0.016000
41
0.016000
0
VERTEX
8
0
10
0.400000
20
-0.100000
0
VERTEX
8
0
10
0.400000
20
-0.240000
0
SEQEND
8
0
0
TEXT
8
0
10
0.440000
20
-0.510000
40
0.080000
41
1.000000
50
90.000000
1
QC
0
TEXT
8
0
10
0.390000
20
-0.200000
40
0.080000
41
1.000000
50
90.000000
1
11
0
POLYLINE
8
0
66
1
40
0.016000
41
0.016000
0
VERTEX
8
0
10
0.500000
20
-1.300000
0
VERTEX
8
0
10
0.500000
20
-1.100000
0
SEQEND
8
0
0
TEXT
8
0
10
0.540000
20
-1.050000
40
0.080000
41
1.000000
50
90.000000
1
D
0
TEXT
8
0
10
0.490000
20
-1.280000
40
0.080000
41
1.000000
50
90.000000
1
6
0
CIRCLE
8
0
10
0.500000
20
-0.270000
40
0.030000
0
POLYLINE
8
0
66
1
40
0.016000
41
0.016000
0
VERTEX
8
0
10
0.500000
20
-0.100000
0
VERTEX
8
0
10
0.500000
20
-0.240000
0
SEQEND
8
0
0
TEXT
8
0
10
0.540000
20
-0.510000
40
0.080000
41
1.000000
50
90.000000
1
QD
0
TEXT
8
0
10
0.490000
20
-0.200000
40
0.080000
41
1.000000
50
90.000000
1
10
0
CIRCLE
8
0
10
0.600000
20
-1.130000
40
0.030000
0
POLYLINE
8
0
66
1
40
0.016000
41
0.016000
0
VERTEX
8
0
10
0.600000
20
-1.300000
0
VERTEX
8
0
10
0.600000
20
-1.160000
0
SEQEND
8
0
0
TEXT
8
0
10
0.640000
20
-1.050000
40
0.080000
41
1.000000
50
90.000000
1
BI/RBO
0
TEXT
8
0
10
0.590000
20
-1.280000
40
0.080000
41
1.000000
50
90.000000
1
4
0
CIRCLE
8
0
10
0.600000
20
-0.270000
40
0.030000
0
POLYLINE
8
0
66
1
40
0.016000
41
0.016000
0
VERTEX
8
0
10
0.600000
20
-0.100000
0
VERTEX
8
0
10
0.600000
20
-0.240000
0
SEQEND
8
0
0
TEXT
8
0
10
0.640000
20
-0.510000
40
0.080000
41
1.000000
50
90.000000
1
QE
0
TEXT
8
0
10
0.590000
20
-0.200000
40
0.080000
41
1.000000
50
90.000000
1
9
0
CIRCLE
8
0
10
0.700000
20
-1.130000
40
0.030000
0
POLYLINE
8
0
66
1
40
0.016000
41
0.016000
0
VERTEX
8
0
10
0.700000
20
-1.300000
0
VERTEX
8
0
10
0.700000
20
-1.160000
0
SEQEND
8
0
0
TEXT
8
0
10
0.740000
20
-1.050000
40
0.080000
41
1.000000
50
90.000000
1
RBI
0
TEXT
8
0
10
0.690000
20
-1.280000
40
0.080000
41
1.000000
50
90.000000
1
5
0
CIRCLE
8
0
10
0.700000
20
-0.270000
40
0.030000
0
POLYLINE
8
0
66
1
40
0.016000
41
0.016000
0
VERTEX
8
0
10
0.700000
20
-0.100000
0
VERTEX
8
0
10
0.700000
20
-0.240000
0
SEQEND
8
0
0
TEXT
8
0
10
0.740000
20
-0.510000
40
0.080000
41
1.000000
50
90.000000
1
QF
0
TEXT
8
0
10
0.690000
20
-0.200000
40
0.080000
41
1.000000
50
90.000000
1
15
0
CIRCLE
8
0
10
0.800000
20
-1.130000
40
0.030000
0
POLYLINE
8
0
66
1
40
0.016000
41
0.016000
0
VERTEX
8
0
10
0.800000
20
-1.300000
0
VERTEX
8
0
10
0.800000
20
-1.160000
0
SEQEND
8
0
0
TEXT
8
0
10
0.840000
20
-1.050000
40
0.080000
41
1.000000
50
90.000000
1
LT
0
TEXT
8
0
10
0.790000
20
-1.280000
40
0.080000
41
1.000000
50
90.000000
1
3
0
CIRCLE
8
0
10
0.800000
20
-0.270000
40
0.030000
0
POLYLINE
8
0
66
1
40
0.016000
41
0.016000
0
VERTEX
8
0
10
0.800000
20
-0.100000
0
VERTEX
8
0
10
0.800000
20
-0.240000
0
SEQEND
8
0
0
TEXT
8
0
10
0.840000
20
-0.510000
40
0.080000
41
1.000000
50
90.000000
1
QG
0
TEXT
8
0
10
0.790000
20
-0.200000
40
0.080000
41
1.000000
50
90.000000
1
14
0
TEXT
8
0
10
0.958000
20
-0.427000
40
0.120000
41
0.666667
1
U3
0
TEXT
8
0
10
0.958000
20
-0.532000
40
0.080000
41
1.000000
1
74247
0
POLYLINE
8
0
66
1
40
0.016000
41
0.016000
0
VERTEX
8
0
10
-1.000000
20
-1.100000
0
VERTEX
8
0
10
-0.200000
20
-1.100000
0
VERTEX
8
0
10
-0.200000
20
-0.300000
0
VERTEX
8
0
10
-1.000000
20
-0.300000
0
VERTEX
8
0
10
-1.000000
20
-1.100000
0
SEQEND
8
0
0
POLYLINE
8
0
66
1
40
0.016000
41
0.016000
0
VERTEX
8
0
10
-0.900000
20
-1.300000
0
VERTEX
8
0
10
-0.900000
20
-1.100000
0
SEQEND
8
0
0
TEXT
8
0
10
-0.860000
20
-1.050000
40
0.080000
41
1.000000
50
90.000000
1
A
0
TEXT
8
0
10
-0.910000
20
-1.280000
40
0.080000
41
1.000000
50
90.000000
1
7
0
CIRCLE
8
0
10
-0.900000
20
-0.270000
40
0.030000
0
POLYLINE
8
0
66
1
40
0.016000
41
0.016000
0
VERTEX
8
0
10
-0.900000
20
-0.100000
0
VERTEX
8
0
10
-0.900000
20
-0.240000
0
SEQEND
8
0
0
TEXT
8
0
10
-0.860000
20
-0.510000
40
0.080000
41
1.000000
50
90.000000
1
QA
0
TEXT
8
0
10
-0.910000
20
-0.200000
40
0.080000
41
1.000000
50
90.000000
1
13
0
POLYLINE
8
0
66
1
40
0.016000
41
0.016000
0
VERTEX
8
0
10
-0.800000
20
-1.300000
0
VERTEX
8
0
10
-0.800000
20
-1.100000
0
SEQEND
8
0
0
TEXT
8
0
10
-0.760000
20
-1.050000
40
0.080000
41
1.000000
50
90.000000
1
B
0
TEXT
8
0
10
-0.810000
20
-1.280000
40
0.080000
41
1.000000
50
90.000000
1
1
0
CIRCLE
8
0
10
-0.800000
20
-0.270000
40
0.030000
0
POLYLINE
8
0
66
1
40
0.016000
41
0.016000
0
VERTEX
8
0
10
-0.800000
20
-0.100000
0
VERTEX
8
0
10
-0.800000
20
-0.240000
0
SEQEND
8
0
0
TEXT
8
0
10
-0.760000
20
-0.510000
40
0.080000
41
1.000000
50
90.000000
1
QB
0
TEXT
8
0
10
-0.810000
20
-0.200000
40
0.080000
41
1.000000
50
90.000000
1
12
0
POLYLINE
8
0
66
1
40
0.016000
41
0.016000
0
VERTEX
8
0
10
-0.700000
20
-1.300000
0
VERTEX
8
0
10
-0.700000
20
-1.100000
0
SEQEND
8
0
0
TEXT
8
0
10
-0.660000
20
-1.050000
40
0.080000
41
1.000000
50
90.000000
1
C
0
TEXT
8
0
10
-0.710000
20
-1.280000
40
0.080000
41
1.000000
50
90.000000
1
2
0
CIRCLE
8
0
10
-0.700000
20
-0.270000
40
0.030000
0
POLYLINE
8
0
66
1
40
0.016000
41
0.016000
0
VERTEX
8
0
10
-0.700000
20
-0.100000
0
VERTEX
8
0
10
-0.700000
20
-0.240000
0
SEQEND
8
0
0
TEXT
8
0
10
-0.660000
20
-0.510000
40
0.080000
41
1.000000
50
90.000000
1
QC
0
TEXT
8
0
10
-0.710000
20
-0.200000
40
0.080000
41
1.000000
50
90.000000
1
11
0
POLYLINE
8
0
66
1
40
0.016000
41
0.016000
0
VERTEX
8
0
10
-0.600000
20
-1.300000
0
VERTEX
8
0
10
-0.600000
20
-1.100000
0
SEQEND
8
0
0
TEXT
8
0
10
-0.560000
20
-1.050000
40
0.080000
41
1.000000
50
90.000000
1
D
0
TEXT
8
0
10
-0.610000
20
-1.280000
40
0.080000
41
1.000000
50
90.000000
1
6
0
CIRCLE
8
0
10
-0.600000
20
-0.270000
40
0.030000
0
POLYLINE
8
0
66
1
40
0.016000
41
0.016000
0
VERTEX
8
0
10
-0.600000
20
-0.100000
0
VERTEX
8
0
10
-0.600000
20
-0.240000
0
SEQEND
8
0
0
TEXT
8
0
10
-0.560000
20
-0.510000
40
0.080000
41
1.000000
50
90.000000
1
QD
0
TEXT
8
0
10
-0.610000
20
-0.200000
40
0.080000
41
1.000000
50
90.000000
1
10
0
CIRCLE
8
0
10
-0.500000
20
-1.130000
40
0.030000
0
POLYLINE
8
0
66
1
40
0.016000
41
0.016000
0
VERTEX
8
0
10
-0.500000
20
-1.300000
0
VERTEX
8
0
10
-0.500000
20
-1.160000
0
SEQEND
8
0
0
TEXT
8
0
10
-0.460000
20
-1.050000
40
0.080000
41
1.000000
50
90.000000
1
BI/RBO
0
TEXT
8
0
10
-0.510000
20
-1.280000
40
0.080000
41
1.000000
50
90.000000
1
4
0
CIRCLE
8
0
10
-0.500000
20
-0.270000
40
0.030000
0
POLYLINE
8
0
66
1
40
0.016000
41
0.016000
0
VERTEX
8
0
10
-0.500000
20
-0.100000
0
VERTEX
8
0
10
-0.500000
20
-0.240000
0
SEQEND
8
0
0
TEXT
8
0
10
-0.460000
20
-0.510000
40
0.080000
41
1.000000
50
90.000000
1
QE
0
TEXT
8
0
10
-0.510000
20
-0.200000
40
0.080000
41
1.000000
50
90.000000
1
9
0
CIRCLE
8
0
10
-0.400000
20
-1.130000
40
0.030000
0
POLYLINE
8
0
66
1
40
0.016000
41
0.016000
0
VERTEX
8
0
10
-0.400000
20
-1.300000
0
VERTEX
8
0
10
-0.400000
20
-1.160000
0
SEQEND
8
0
0
TEXT
8
0
10
-0.360000
20
-1.050000
40
0.080000
41
1.000000
50
90.000000
1
RBI
0
TEXT
8
0
10
-0.410000
20
-1.280000
40
0.080000
41
1.000000
50
90.000000
1
5
0
CIRCLE
8
0
10
-0.400000
20
-0.270000
40
0.030000
0
POLYLINE
8
0
66
1
40
0.016000
41
0.016000
0
VERTEX
8
0
10
-0.400000
20
-0.100000
0
VERTEX
8
0
10
-0.400000
20
-0.240000
0
SEQEND
8
0
0
TEXT
8
0
10
-0.360000
20
-0.510000
40
0.080000
41
1.000000
50
90.000000
1
QF
0
TEXT
8
0
10
-0.410000
20
-0.200000
40
0.080000
41
1.000000
50
90.000000
1
15
0
CIRCLE
8
0
10
-0.300000
20
-1.130000
40
0.030000
0
POLYLINE
8
0
66
1
40
0.016000
41
0.016000
0
VERTEX
8
0
10
-0.300000
20
-1.300000
0
VERTEX
8
0
10
-0.300000
20
-1.160000
0
SEQEND
8
0
0
TEXT
8
0
10
-0.260000
20
-1.050000
40
0.080000
41
1.000000
50
90.000000
1
LT
0
TEXT
8
0
10
-0.310000
20
-1.280000
40
0.080000
41
1.000000
50
90.000000
1
3
0
CIRCLE
8
0
10
-0.300000
20
-0.270000
40
0.030000
0
POLYLINE
8
0
66
1
40
0.016000
41
0.016000
0
VERTEX
8
0
10
-0.300000
20
-0.100000
0
VERTEX
8
0
10
-0.300000
20
-0.240000
0
SEQEND
8
0
0
TEXT
8
0
10
-0.260000
20
-0.510000
40
0.080000
41
1.000000
50
90.000000
1
QG
0
TEXT
8
0
10
-0.310000
20
-0.200000
40
0.080000
41
1.000000
50
90.000000
1
14
0
TEXT
8
0
10
-0.142000
20
-0.427000
40
0.120000
41
0.666667
1
U4
0
TEXT
8
0
10
-0.142000
20
-0.532000
40
0.080000
41
1.000000
1
74247
0
POLYLINE
8
0
66
1
40
0.016000
41
0.016000
0
VERTEX
8
0
10
-2.100000
20
-1.100000
0
VERTEX
8
0
10
-1.300000
20
-1.100000
0
VERTEX
8
0
10
-1.300000
20
-0.300000
0
VERTEX
8
0
10
-2.100000
20
-0.300000
0
VERTEX
8
0
10
-2.100000
20
-1.100000
0
SEQEND
8
0
0
POLYLINE
8
0
66
1
40
0.016000
41
0.016000
0
VERTEX
8
0
10
-2.000000
20
-1.300000
0
VERTEX
8
0
10
-2.000000
20
-1.100000
0
SEQEND
8
0
0
TEXT
8
0
10
-1.960000
20
-1.050000
40
0.080000
41
1.000000
50
90.000000
1
A
0
TEXT
8
0
10
-2.010000
20
-1.280000
40
0.080000
41
1.000000
50
90.000000
1
7
0
CIRCLE
8
0
10
-2.000000
20
-0.270000
40
0.030000
0
POLYLINE
8
0
66
1
40
0.016000
41
0.016000
0
VERTEX
8
0
10
-2.000000
20
-0.100000
0
VERTEX
8
0
10
-2.000000
20
-0.240000
0
SEQEND
8
0
0
TEXT
8
0
10
-1.960000
20
-0.510000
40
0.080000
41
1.000000
50
90.000000
1
QA
0
TEXT
8
0
10
-2.010000
20
-0.200000
40
0.080000
41
1.000000
50
90.000000
1
13
0
POLYLINE
8
0
66
1
40
0.016000
41
0.016000
0
VERTEX
8
0
10
-1.900000
20
-1.300000
0
VERTEX
8
0
10
-1.900000
20
-1.100000
0
SEQEND
8
0
0
TEXT
8
0
10
-1.860000
20
-1.050000
40
0.080000
41
1.000000
50
90.000000
1
B
0
TEXT
8
0
10
-1.910000
20
-1.280000
40
0.080000
41
1.000000
50
90.000000
1
1
0
CIRCLE
8
0
10
-1.900000
20
-0.270000
40
0.030000
0
POLYLINE
8
0
66
1
40
0.016000
41
0.016000
0
VERTEX
8
0
10
-1.900000
20
-0.100000
0
VERTEX
8
0
10
-1.900000
20
-0.240000
0
SEQEND
8
0
0
TEXT
8
0
10
-1.860000
20
-0.510000
40
0.080000
41
1.000000
50
90.000000
1
QB
0
TEXT
8
0
10
-1.910000
20
-0.200000
40
0.080000
41
1.000000
50
90.000000
1
12
0
POLYLINE
8
0
66
1
40
0.016000
41
0.016000
0
VERTEX
8
0
10
-1.800000
20
-1.300000
0
VERTEX
8
0
10
-1.800000
20
-1.100000
0
SEQEND
8
0
0
TEXT
8
0
10
-1.760000
20
-1.050000
40
0.080000
41
1.000000
50
90.000000
1
C
0
TEXT
8
0
10
-1.810000
20
-1.280000
40
0.080000
41
1.000000
50
90.000000
1
2
0
CIRCLE
8
0
10
-1.800000
20
-0.270000
40
0.030000
0
POLYLINE
8
0
66
1
40
0.016000
41
0.016000
0
VERTEX
8
0
10
-1.800000
20
-0.100000
0
VERTEX
8
0
10
-1.800000
20
-0.240000
0
SEQEND
8
0
0
TEXT
8
0
10
-1.760000
20
-0.510000
40
0.080000
41
1.000000
50
90.000000
1
QC
0
TEXT
8
0
10
-1.810000
20
-0.200000
40
0.080000
41
1.000000
50
90.000000
1
11
0
POLYLINE
8
0
66
1
40
0.016000
41
0.016000
0
VERTEX
8
0
10
-1.700000
20
-1.300000
0
VERTEX
8
0
10
-1.700000
20
-1.100000
0
SEQEND
8
0
0
TEXT
8
0
10
-1.660000
20
-1.050000
40
0.080000
41
1.000000
50
90.000000
1
D
0
TEXT
8
0
10
-1.710000
20
-1.280000
40
0.080000
41
1.000000
50
90.000000
1
6
0
CIRCLE
8
0
10
-1.700000
20
-0.270000
40
0.030000
0
POLYLINE
8
0
66
1
40
0.016000
41
0.016000
0
VERTEX
8
0
10
-1.700000
20
-0.100000
0
VERTEX
8
0
10
-1.700000
20
-0.240000
0
SEQEND
8
0
0
TEXT
8
0
10
-1.660000
20
-0.510000
40
0.080000
41
1.000000
50
90.000000
1
QD
0
TEXT
8
0
10
-1.710000
20
-0.200000
40
0.080000
41
1.000000
50
90.000000
1
10
0
CIRCLE
8
0
10
-1.600000
20
-1.130000
40
0.030000
0
POLYLINE
8
0
66
1
40
0.016000
41
0.016000
0
VERTEX
8
0
10
-1.600000
20
-1.300000
0
VERTEX
8
0
10
-1.600000
20
-1.160000
0
SEQEND
8
0
0
TEXT
8
0
10
-1.560000
20
-1.050000
40
0.080000
41
1.000000
50
90.000000
1
BI/RBO
0
TEXT
8
0
10
-1.610000
20
-1.280000
40
0.080000
41
1.000000
50
90.000000
1
4
0
CIRCLE
8
0
10
-1.600000
20
-0.270000
40
0.030000
0
POLYLINE
8
0
66
1
40
0.016000
41
0.016000
0
VERTEX
8
0
10
-1.600000
20
-0.100000
0
VERTEX
8
0
10
-1.600000
20
-0.240000
0
SEQEND
8
0
0
TEXT
8
0
10
-1.560000
20
-0.510000
40
0.080000
41
1.000000
50
90.000000
1
QE
0
TEXT
8
0
10
-1.610000
20
-0.200000
40
0.080000
41
1.000000
50
90.000000
1
9
0
CIRCLE
8
0
10
-1.500000
20
-1.130000
40
0.030000
0
POLYLINE
8
0
66
1
40
0.016000
41
0.016000
0
VERTEX
8
0
10
-1.500000
20
-1.300000
0
VERTEX
8
0
10
-1.500000
20
-1.160000
0
SEQEND
8
0
0
TEXT
8
0
10
-1.460000
20
-1.050000
40
0.080000
41
1.000000
50
90.000000
1
RBI
0
TEXT
8
0
10
-1.510000
20
-1.280000
40
0.080000
41
1.000000
50
90.000000
1
5
0
CIRCLE
8
0
10
-1.500000
20
-0.270000
40
0.030000
0
POLYLINE
8
0
66
1
40
0.016000
41
0.016000
0
VERTEX
8
0
10
-1.500000
20
-0.100000
0
VERTEX
8
0
10
-1.500000
20
-0.240000
0
SEQEND
8
0
0
TEXT
8
0
10
-1.460000
20
-0.510000
40
0.080000
41
1.000000
50
90.000000
1
QF
0
TEXT
8
0
10
-1.510000
20
-0.200000
40
0.080000
41
1.000000
50
90.000000
1
15
0
CIRCLE
8
0
10
-1.400000
20
-1.130000
40
0.030000
0
POLYLINE
8
0
66
1
40
0.016000
41
0.016000
0
VERTEX
8
0
10
-1.400000
20
-1.300000
0
VERTEX
8
0
10
-1.400000
20
-1.160000
0
SEQEND
8
0
0
TEXT
8
0
10
-1.360000
20
-1.050000
40
0.080000
41
1.000000
50
90.000000
1
LT
0
TEXT
8
0
10
-1.410000
20
-1.280000
40
0.080000
41
1.000000
50
90.000000
1
3
0
CIRCLE
8
0
10
-1.400000
20
-0.270000
40
0.030000
0
POLYLINE
8
0
66
1
40
0.016000
41
0.016000
0
VERTEX
8
0
10
-1.400000
20
-0.100000
0
VERTEX
8
0
10
-1.400000
20
-0.240000
0
SEQEND
8
0
0
TEXT
8
0
10
-1.360000
20
-0.510000
40
0.080000
41
1.000000
50
90.000000
1
QG
0
TEXT
8
0
10
-1.410000
20
-0.200000
40
0.080000
41
1.000000
50
90.000000
1
14
0
TEXT
8
0
10
-1.242000
20
-0.427000
40
0.120000
41
0.666667
1
U5
0
TEXT
8
0
10
-1.242000
20
-0.532000
40
0.080000
41
1.000000
1
74247
0
POLYLINE
8
0
66
1
40
0.016000
41
0.016000
0
VERTEX
8
0
10
-3.200000
20
-1.100000
0
VERTEX
8
0
10
-2.400000
20
-1.100000
0
VERTEX
8
0
10
-2.400000
20
-0.300000
0
VERTEX
8
0
10
-3.200000
20
-0.300000
0
VERTEX
8
0
10
-3.200000
20
-1.100000
0
SEQEND
8
0
0
POLYLINE
8
0
66
1
40
0.016000
41
0.016000
0
VERTEX
8
0
10
-3.100000
20
-1.300000
0
VERTEX
8
0
10
-3.100000
20
-1.100000
0
SEQEND
8
0
0
TEXT
8
0
10
-3.060000
20
-1.050000
40
0.080000
41
1.000000
50
90.000000
1
A
0
TEXT
8
0
10
-3.110000
20
-1.280000
40
0.080000
41
1.000000
50
90.000000
1
7
0
CIRCLE
8
0
10
-3.100000
20
-0.270000
40
0.030000
0
POLYLINE
8
0
66
1
40
0.016000
41
0.016000
0
VERTEX
8
0
10
-3.100000
20
-0.100000
0
VERTEX
8
0
10
-3.100000
20
-0.240000
0
SEQEND
8
0
0
TEXT
8
0
10
-3.060000
20
-0.510000
40
0.080000
41
1.000000
50
90.000000
1
QA
0
TEXT
8
0
10
-3.110000
20
-0.200000
40
0.080000
41
1.000000
50
90.000000
1
13
0
POLYLINE
8
0
66
1
40
0.016000
41
0.016000
0
VERTEX
8
0
10
-3.000000
20
-1.300000
0
VERTEX
8
0
10
-3.000000
20
-1.100000
0
SEQEND
8
0
0
TEXT
8
0
10
-2.960000
20
-1.050000
40
0.080000
41
1.000000
50
90.000000
1
B
0
TEXT
8
0
10
-3.010000
20
-1.280000
40
0.080000
41
1.000000
50
90.000000
1
1
0
CIRCLE
8
0
10
-3.000000
20
-0.270000
40
0.030000
0
POLYLINE
8
0
66
1
40
0.016000
41
0.016000
0
VERTEX
8
0
10
-3.000000
20
-0.100000
0
VERTEX
8
0
10
-3.000000
20
-0.240000
0
SEQEND
8
0
0
TEXT
8
0
10
-2.960000
20
-0.510000
40
0.080000
41
1.000000
50
90.000000
1
QB
0
TEXT
8
0
10
-3.010000
20
-0.200000
40
0.080000
41
1.000000
50
90.000000
1
12
0
POLYLINE
8
0
66
1
40
0.016000
41
0.016000
0
VERTEX
8
0
10
-2.900000
20
-1.300000
0
VERTEX
8
0
10
-2.900000
20
-1.100000
0
SEQEND
8
0
0
TEXT
8
0
10
-2.860000
20
-1.050000
40
0.080000
41
1.000000
50
90.000000
1
C
0
TEXT
8
0
10
-2.910000
20
-1.280000
40
0.080000
41
1.000000
50
90.000000
1
2
0
CIRCLE
8
0
10
-2.900000
20
-0.270000
40
0.030000
0
POLYLINE
8
0
66
1
40
0.016000
41
0.016000
0
VERTEX
8
0
10
-2.900000
20
-0.100000
0
VERTEX
8
0
10
-2.900000
20
-0.240000
0
SEQEND
8
0
0
TEXT
8
0
10
-2.860000
20
-0.510000
40
0.080000
41
1.000000
50
90.000000
1
QC
0
TEXT
8
0
10
-2.910000
20
-0.200000
40
0.080000
41
1.000000
50
90.000000
1
11
0
POLYLINE
8
0
66
1
40
0.016000
41
0.016000
0
VERTEX
8
0
10
-2.800000
20
-1.300000
0
VERTEX
8
0
10
-2.800000
20
-1.100000
0
SEQEND
8
0
0
TEXT
8
0
10
-2.760000
20
-1.050000
40
0.080000
41
1.000000
50
90.000000
1
D
0
TEXT
8
0
10
-2.810000
20
-1.280000
40
0.080000
41
1.000000
50
90.000000
1
6
0
CIRCLE
8
0
10
-2.800000
20
-0.270000
40
0.030000
0
POLYLINE
8
0
66
1
40
0.016000
41
0.016000
0
VERTEX
8
0
10
-2.800000
20
-0.100000
0
VERTEX
8
0
10
-2.800000
20
-0.240000
0
SEQEND
8
0
0
TEXT
8
0
10
-2.760000
20
-0.510000
40
0.080000
41
1.000000
50
90.000000
1
QD
0
TEXT
8
0
10
-2.810000
20
-0.200000
40
0.080000
41
1.000000
50
90.000000
1
10
0
CIRCLE
8
0
10
-2.700000
20
-1.130000
40
0.030000
0
POLYLINE
8
0
66
1
40
0.016000
41
0.016000
0
VERTEX
8
0
10
-2.700000
20
-1.300000
0
VERTEX
8
0
10
-2.700000
20
-1.160000
0
SEQEND
8
0
0
TEXT
8
0
10
-2.660000
20
-1.050000
40
0.080000
41
1.000000
50
90.000000
1
BI/RBO
0
TEXT
8
0
10
-2.710000
20
-1.280000
40
0.080000
41
1.000000
50
90.000000
1
4
0
CIRCLE
8
0
10
-2.700000
20
-0.270000
40
0.030000
0
POLYLINE
8
0
66
1
40
0.016000
41
0.016000
0
VERTEX
8
0
10
-2.700000
20
-0.100000
0
VERTEX
8
0
10
-2.700000
20
-0.240000
0
SEQEND
8
0
0
TEXT
8
0
10
-2.660000
20
-0.510000
40
0.080000
41
1.000000
50
90.000000
1
QE
0
TEXT
8
0
10
-2.710000
20
-0.200000
40
0.080000
41
1.000000
50
90.000000
1
9
0
CIRCLE
8
0
10
-2.600000
20
-1.130000
40
0.030000
0
POLYLINE
8
0
66
1
40
0.016000
41
0.016000
0
VERTEX
8
0
10
-2.600000
20
-1.300000
0
VERTEX
8
0
10
-2.600000
20
-1.160000
0
SEQEND
8
0
0
TEXT
8
0
10
-2.560000
20
-1.050000
40
0.080000
41
1.000000
50
90.000000
1
RBI
0
TEXT
8
0
10
-2.610000
20
-1.280000
40
0.080000
41
1.000000
50
90.000000
1
5
0
CIRCLE
8
0
10
-2.600000
20
-0.270000
40
0.030000
0
POLYLINE
8
0
66
1
40
0.016000
41
0.016000
0
VERTEX
8
0
10
-2.600000
20
-0.100000
0
VERTEX
8
0
10
-2.600000
20
-0.240000
0
SEQEND
8
0
0
TEXT
8
0
10
-2.560000
20
-0.510000
40
0.080000
41
1.000000
50
90.000000
1
QF
0
TEXT
8
0
10
-2.610000
20
-0.200000
40
0.080000
41
1.000000
50
90.000000
1
15
0
CIRCLE
8
0
10
-2.500000
20
-1.130000
40
0.030000
0
POLYLINE
8
0
66
1
40
0.016000
41
0.016000
0
VERTEX
8
0
10
-2.500000
20
-1.300000
0
VERTEX
8
0
10
-2.500000
20
-1.160000
0
SEQEND
8
0
0
TEXT
8
0
10
-2.460000
20
-1.050000
40
0.080000
41
1.000000
50
90.000000
1
LT
0
TEXT
8
0
10
-2.510000
20
-1.280000
40
0.080000
41
1.000000
50
90.000000
1
3
0
CIRCLE
8
0
10
-2.500000
20
-0.270000
40
0.030000
0
POLYLINE
8
0
66
1
40
0.016000
41
0.016000
0
VERTEX
8
0
10
-2.500000
20
-0.100000
0
VERTEX
8
0
10
-2.500000
20
-0.240000
0
SEQEND
8
0
0
TEXT
8
0
10
-2.460000
20
-0.510000
40
0.080000
41
1.000000
50
90.000000
1
QG
0
TEXT
8
0
10
-2.510000
20
-0.200000
40
0.080000
41
1.000000
50
90.000000
1
14
0
TEXT
8
0
10
-2.342000
20
-0.427000
40
0.120000
41
0.666667
1
U10
0
TEXT
8
0
10
-2.342000
20
-0.532000
40
0.080000
41
1.000000
1
74247
0
POLYLINE
8
0
66
1
40
0.016000
41
0.016000
0
VERTEX
8
0
10
-4.400000
20
-1.100000
0
VERTEX
8
0
10
-3.600000
20
-1.100000
0
VERTEX
8
0
10
-3.600000
20
-0.300000
0
VERTEX
8
0
10
-4.400000
20
-0.300000
0
VERTEX
8
0
10
-4.400000
20
-1.100000
0
SEQEND
8
0
0
POLYLINE
8
0
66
1
40
0.016000
41
0.016000
0
VERTEX
8
0
10
-4.300000
20
-1.300000
0
VERTEX
8
0
10
-4.300000
20
-1.100000
0
SEQEND
8
0
0
TEXT
8
0
10
-4.260000
20
-1.050000
40
0.080000
41
1.000000
50
90.000000
1
A
0
TEXT
8
0
10
-4.310000
20
-1.280000
40
0.080000
41
1.000000
50
90.000000
1
7
0
CIRCLE
8
0
10
-4.300000
20
-0.270000
40
0.030000
0
POLYLINE
8
0
66
1
40
0.016000
41
0.016000
0
VERTEX
8
0
10
-4.300000
20
-0.100000
0
VERTEX
8
0
10
-4.300000
20
-0.240000
0
SEQEND
8
0
0
TEXT
8
0
10
-4.260000
20
-0.510000
40
0.080000
41
1.000000
50
90.000000
1
QA
0
TEXT
8
0
10
-4.310000
20
-0.200000
40
0.080000
41
1.000000
50
90.000000
1
13
0
POLYLINE
8
0
66
1
40
0.016000
41
0.016000
0
VERTEX
8
0
10
-4.200000
20
-1.300000
0
VERTEX
8
0
10
-4.200000
20
-1.100000
0
SEQEND
8
0
0
TEXT
8
0
10
-4.160000
20
-1.050000
40
0.080000
41
1.000000
50
90.000000
1
B
0
TEXT
8
0
10
-4.210000
20
-1.280000
40
0.080000
41
1.000000
50
90.000000
1
1
0
CIRCLE
8
0
10
-4.200000
20
-0.270000
40
0.030000
0
POLYLINE
8
0
66
1
40
0.016000
41
0.016000
0
VERTEX
8
0
10
-4.200000
20
-0.100000
0
VERTEX
8
0
10
-4.200000
20
-0.240000
0
SEQEND
8
0
0
TEXT
8
0
10
-4.160000
20
-0.510000
40
0.080000
41
1.000000
50
90.000000
1
QB
0
TEXT
8
0
10
-4.210000
20
-0.200000
40
0.080000
41
1.000000
50
90.000000
1
12
0
POLYLINE
8
0
66
1
40
0.016000
41
0.016000
0
VERTEX
8
0
10
-4.100000
20
-1.300000
0
VERTEX
8
0
10
-4.100000
20
-1.100000
0
SEQEND
8
0
0
TEXT
8
0
10
-4.060000
20
-1.050000
40
0.080000
41
1.000000
50
90.000000
1
C
0
TEXT
8
0
10
-4.110000
20
-1.280000
40
0.080000
41
1.000000
50
90.000000
1
2
0
CIRCLE
8
0
10
-4.100000
20
-0.270000
40
0.030000
0
POLYLINE
8
0
66
1
40
0.016000
41
0.016000
0
VERTEX
8
0
10
-4.100000
20
-0.100000
0
VERTEX
8
0
10
-4.100000
20
-0.240000
0
SEQEND
8
0
0
TEXT
8
0
10
-4.060000
20
-0.510000
40
0.080000
41
1.000000
50
90.000000
1
QC
0
TEXT
8
0
10
-4.110000
20
-0.200000
40
0.080000
41
1.000000
50
90.000000
1
11
0
POLYLINE
8
0
66
1
40
0.016000
41
0.016000
0
VERTEX
8
0
10
-4.000000
20
-1.300000
0
VERTEX
8
0
10
-4.000000
20
-1.100000
0
SEQEND
8
0
0
TEXT
8
0
10
-3.960000
20
-1.050000
40
0.080000
41
1.000000
50
90.000000
1
D
0
TEXT
8
0
10
-4.010000
20
-1.280000
40
0.080000
41
1.000000
50
90.000000
1
6
0
CIRCLE
8
0
10
-4.000000
20
-0.270000
40
0.030000
0
POLYLINE
8
0
66
1
40
0.016000
41
0.016000
0
VERTEX
8
0
10
-4.000000
20
-0.100000
0
VERTEX
8
0
10
-4.000000
20
-0.240000
0
SEQEND
8
0
0
TEXT
8
0
10
-3.960000
20
-0.510000
40
0.080000
41
1.000000
50
90.000000
1
QD
0
TEXT
8
0
10
-4.010000
20
-0.200000
40
0.080000
41
1.000000
50
90.000000
1
10
0
CIRCLE
8
0
10
-3.900000
20
-1.130000
40
0.030000
0
POLYLINE
8
0
66
1
40
0.016000
41
0.016000
0
VERTEX
8
0
10
-3.900000
20
-1.300000
0
VERTEX
8
0
10
-3.900000
20
-1.160000
0
SEQEND
8
0
0
TEXT
8
0
10
-3.860000
20
-1.050000
40
0.080000
41
1.000000
50
90.000000
1
BI/RBO
0
TEXT
8
0
10
-3.910000
20
-1.280000
40
0.080000
41
1.000000
50
90.000000
1
4
0
CIRCLE
8
0
10
-3.900000
20
-0.270000
40
0.030000
0
POLYLINE
8
0
66
1
40
0.016000
41
0.016000
0
VERTEX
8
0
10
-3.900000
20
-0.100000
0
VERTEX
8
0
10
-3.900000
20
-0.240000
0
SEQEND
8
0
0
TEXT
8
0
10
-3.860000
20
-0.510000
40
0.080000
41
1.000000
50
90.000000
1
QE
0
TEXT
8
0
10
-3.910000
20
-0.200000
40
0.080000
41
1.000000
50
90.000000
1
9
0
CIRCLE
8
0
10
-3.800000
20
-1.130000
40
0.030000
0
POLYLINE
8
0
66
1
40
0.016000
41
0.016000
0
VERTEX
8
0
10
-3.800000
20
-1.300000
0
VERTEX
8
0
10
-3.800000
20
-1.160000
0
SEQEND
8
0
0
TEXT
8
0
10
-3.760000
20
-1.050000
40
0.080000
41
1.000000
50
90.000000
1
RBI
0
TEXT
8
0
10
-3.810000
20
-1.280000
40
0.080000
41
1.000000
50
90.000000
1
5
0
CIRCLE
8
0
10
-3.800000
20
-0.270000
40
0.030000
0
POLYLINE
8
0
66
1
40
0.016000
41
0.016000
0
VERTEX
8
0
10
-3.800000
20
-0.100000
0
VERTEX
8
0
10
-3.800000
20
-0.240000
0
SEQEND
8
0
0
TEXT
8
0
10
-3.760000
20
-0.510000
40
0.080000
41
1.000000
50
90.000000
1
QF
0
TEXT
8
0
10
-3.810000
20
-0.200000
40
0.080000
41
1.000000
50
90.000000
1
15
0
CIRCLE
8
0
10
-3.700000
20
-1.130000
40
0.030000
0
POLYLINE
8
0
66
1
40
0.016000
41
0.016000
0
VERTEX
8
0
10
-3.700000
20
-1.300000
0
VERTEX
8
0
10
-3.700000
20
-1.160000
0
SEQEND
8
0
0
TEXT
8
0
10
-3.660000
20
-1.050000
40
0.080000
41
1.000000
50
90.000000
1
LT
0
TEXT
8
0
10
-3.710000
20
-1.280000
40
0.080000
41
1.000000
50
90.000000
1
3
0
CIRCLE
8
0
10
-3.700000
20
-0.270000
40
0.030000
0
POLYLINE
8
0
66
1
40
0.016000
41
0.016000
0
VERTEX
8
0
10
-3.700000
20
-0.100000
0
VERTEX
8
0
10
-3.700000
20
-0.240000
0
SEQEND
8
0
0
TEXT
8
0
10
-3.660000
20
-0.510000
40
0.080000
41
1.000000
50
90.000000
1
QG
0
TEXT
8
0
10
-3.710000
20
-0.200000
40
0.080000
41
1.000000
50
90.000000
1
14
0
TEXT
8
0
10
-3.542000
20
-0.427000
40
0.120000
41
0.666667
1
U11
0
TEXT
8
0
10
-3.542000
20
-0.532000
40
0.080000
41
1.000000
1
74247
0
CIRCLE
8
0
10
-3.800000
20
-1.400000
40
0.020000
0
CIRCLE
8
0
10
1.800000
20
-1.400000
40
0.020000
0
CIRCLE
8
0
10
1.700000
20
-1.400000
40
0.020000
0
POLYLINE
8
0
66
1
40
0.016000
41
0.016000
0
VERTEX
8
0
10
-4.940000
20
-1.200000
0
VERTEX
8
0
10
-4.860000
20
-1.200000
0
VERTEX
8
0
10
-4.860000
20
-0.900000
0
VERTEX
8
0
10
-4.940000
20
-0.900000
0
VERTEX
8
0
10
-4.940000
20
-1.200000
0
SEQEND
8
0
0
POLYLINE
8
0
66
1
40
0.016000
41
0.016000
0
VERTEX
8
0
10
-4.900000
20
-1.300000
0
VERTEX
8
0
10
-4.900000
20
-1.200000
0
SEQEND
8
0
0
POLYLINE
8
0
66
1
40
0.016000
41
0.016000
0
VERTEX
8
0
10
-4.900000
20
-0.800000
0
VERTEX
8
0
10
-4.900000
20
-0.900000
0
SEQEND
8
0
0
TEXT
8
0
10
-4.802000
20
-1.027000
40
0.120000
41
0.666667
1
R4
0
TEXT
8
0
10
-4.802000
20
-1.132000
40
0.080000
41
1.000000
1
100
0
POLYLINE
8
0
66
1
40
0.016000
41
0.016000
0
VERTEX
8
0
10
-4.950000
20
-0.600000
0
VERTEX
8
0
10
-4.900000
20
-0.500000
0
VERTEX
8
0
10
-4.850000
20
-0.600000
0
VERTEX
8
0
10
-4.950000
20
-0.600000
0
SEQEND
8
0
0
POLYLINE
8
0
66
1
40
0.016000
41
0.016000
0
VERTEX
8
0
10
-4.900000
20
-0.700000
0
VERTEX
8
0
10
-4.900000
20
-0.500000
0
SEQEND
8
0
0
CIRCLE
8
0
10
-4.900000
20
-1.500000
40
0.020000
0
CIRCLE
8
0
10
0.800000
20
-1.500000
40
0.020000
0
CIRCLE
8
0
10
-0.300000
20
-1.500000
40
0.020000
0
CIRCLE
8
0
10
-1.400000
20
-1.500000
40
0.020000
0
CIRCLE
8
0
10
-2.500000
20
-1.500000
40
0.020000
0
CIRCLE
8
0
10
-3.700000
20
-1.500000
40
0.020000
0
CIRCLE
8
0
10
1.300000
20
0.100000
40
0.020000
0
CIRCLE
8
0
10
1.400000
20
0.100000
40
0.020000
0
CIRCLE
8
0
10
1.500000
20
0.100000
40
0.020000
0
CIRCLE
8
0
10
1.600000
20
0.100000
40
0.020000
0
CIRCLE
8
0
10
1.700000
20
0.100000
40
0.020000
0
CIRCLE
8
0
10
1.800000
20
0.100000
40
0.020000
0
CIRCLE
8
0
10
1.900000
20
0.100000
40
0.020000
0
CIRCLE
8
0
10
-4.300000
20
0.100000
40
0.020000
0
CIRCLE
8
0
10
-4.200000
20
0.100000
40
0.020000
0
CIRCLE
8
0
10
-4.100000
20
0.100000
40
0.020000
0
CIRCLE
8
0
10
-4.000000
20
0.100000
40
0.020000
0
CIRCLE
8
0
10
-3.900000
20
0.100000
40
0.020000
0
CIRCLE
8
0
10
-3.800000
20
0.100000
40
0.020000
0
CIRCLE
8
0
10
-3.700000
20
0.100000
40
0.020000
0
CIRCLE
8
0
10
-3.100000
20
0.100000
40
0.020000
0
CIRCLE
8
0
10
-3.000000
20
0.100000
40
0.020000
0
CIRCLE
8
0
10
-2.900000
20
0.100000
40
0.020000
0
CIRCLE
8
0
10
-2.800000
20
0.100000
40
0.020000
0
CIRCLE
8
0
10
-2.700000
20
0.100000
40
0.020000
0
CIRCLE
8
0
10
-2.600000
20
0.100000
40
0.020000
0
CIRCLE
8
0
10
-2.500000
20
0.100000
40
0.020000
0
CIRCLE
8
0
10
-2.000000
20
0.100000
40
0.020000
0
CIRCLE
8
0
10
-1.900000
20
0.100000
40
0.020000
0
CIRCLE
8
0
10
-1.800000
20
0.100000
40
0.020000
0
CIRCLE
8
0
10
-1.700000
20
0.100000
40
0.020000
0
CIRCLE
8
0
10
-1.600000
20
0.100000
40
0.020000
0
CIRCLE
8
0
10
-1.500000
20
0.100000
40
0.020000
0
CIRCLE
8
0
10
-1.400000
20
0.100000
40
0.020000
0
CIRCLE
8
0
10
-0.900000
20
0.100000
40
0.020000
0
CIRCLE
8
0
10
-0.800000
20
0.100000
40
0.020000
0
CIRCLE
8
0
10
-0.700000
20
0.100000
40
0.020000
0
CIRCLE
8
0
10
-0.600000
20
0.100000
40
0.020000
0
CIRCLE
8
0
10
-0.500000
20
0.100000
40
0.020000
0
CIRCLE
8
0
10
-0.400000
20
0.100000
40
0.020000
0
CIRCLE
8
0
10
-0.300000
20
0.100000
40
0.020000
0
CIRCLE
8
0
10
0.200000
20
0.100000
40
0.020000
0
CIRCLE
8
0
10
0.300000
20
0.100000
40
0.020000
0
CIRCLE
8
0
10
0.400000
20
0.100000
40
0.020000
0
CIRCLE
8
0
10
0.500000
20
0.100000
40
0.020000
0
CIRCLE
8
0
10
0.600000
20
0.100000
40
0.020000
0
CIRCLE
8
0
10
0.700000
20
0.100000
40
0.020000
0
CIRCLE
8
0
10
0.800000
20
0.100000
40
0.020000
0
POLYLINE
8
0
66
1
40
0.016000
41
0.016000
0
VERTEX
8
0
10
2.900000
20
1.960000
0
VERTEX
8
0
10
3.200000
20
1.960000
0
VERTEX
8
0
10
3.200000
20
2.040000
0
VERTEX
8
0
10
2.900000
20
2.040000
0
VERTEX
8
0
10
2.900000
20
1.960000
0
SEQEND
8
0
0
POLYLINE
8
0
66
1
40
0.016000
41
0.016000
0
VERTEX
8
0
10
2.800000
20
2.000000
0
VERTEX
8
0
10
2.900000
20
2.000000
0
SEQEND
8
0
0
POLYLINE
8
0
66
1
40
0.016000
41
0.016000
0
VERTEX
8
0
10
3.300000
20
2.000000
0
VERTEX
8
0
10
3.200000
20
2.000000
0
SEQEND
8
0
0
TEXT
8
0
10
2.892000
20
2.063000
40
0.120000
41
0.666667
1
R13
0
TEXT
8
0
10
2.892000
20
1.862000
40
0.080000
41
1.000000
1
330
0
POLYLINE
8
0
66
1
40
0.016000
41
0.016000
0
VERTEX
8
0
10
3.350000
20
2.200000
0
VERTEX
8
0
10
3.400000
20
2.300000
0
VERTEX
8
0
10
3.450000
20
2.200000
0
VERTEX
8
0
10
3.350000
20
2.200000
0
SEQEND
8
0
0
POLYLINE
8
0
66
1
40
0.016000
41
0.016000
0
VERTEX
8
0
10
3.400000
20
2.100000
0
VERTEX
8
0
10
3.400000
20
2.300000
0
SEQEND
8
0
0
POLYLINE
8
0
66
1
40
0.016000
41
0.016000
0
VERTEX
8
0
10
-3.340000
20
1.000000
0
VERTEX
8
0
10
-3.260000
20
1.000000
0
VERTEX
8
0
10
-3.260000
20
1.300000
0
VERTEX
8
0
10
-3.340000
20
1.300000
0
VERTEX
8
0
10
-3.340000
20
1.000000
0
SEQEND
8
0
0
POLYLINE
8
0
66
1
40
0.016000
41
0.016000
0
VERTEX
8
0
10
-3.300000
20
1.400000
0
VERTEX
8
0
10
-3.300000
20
1.300000
0
SEQEND
8
0
0
POLYLINE
8
0
66
1
40
0.016000
41
0.016000
0
VERTEX
8
0
10
-3.300000
20
0.900000
0
VERTEX
8
0
10
-3.300000
20
1.000000
0
SEQEND
8
0
0
TEXT
8
0
10
-3.202000
20
1.173000
40
0.120000
41
0.666667
1
R14
0
TEXT
8
0
10
-3.202000
20
1.068000
40
0.080000
41
1.000000
1
100
0
POLYLINE
8
0
66
1
40
0.016000
41
0.016000
0
VERTEX
8
0
10
-2.840000
20
1.000000
0
VERTEX
8
0
10
-2.760000
20
1.000000
0
VERTEX
8
0
10
-2.760000
20
1.300000
0
VERTEX
8
0
10
-2.840000
20
1.300000
0
VERTEX
8
0
10
-2.840000
20
1.000000
0
SEQEND
8
0
0
POLYLINE
8
0
66
1
40
0.016000
41
0.016000
0
VERTEX
8
0
10
-2.800000
20
1.400000
0
VERTEX
8
0
10
-2.800000
20
1.300000
0
SEQEND
8
0
0
POLYLINE
8
0
66
1
40
0.016000
41
0.016000
0
VERTEX
8
0
10
-2.800000
20
0.900000
0
VERTEX
8
0
10
-2.800000
20
1.000000
0
SEQEND
8
0
0
TEXT
8
0
10
-2.702000
20
1.173000
40
0.120000
41
0.666667
1
R15
0
TEXT
8
0
10
-2.702000
20
1.068000
40
0.080000
41
1.000000
1
100
0
POLYLINE
8
0
66
1
40
0.016000
41
0.016000
0
VERTEX
8
0
10
-2.340000
20
1.000000
0
VERTEX
8
0
10
-2.260000
20
1.000000
0
VERTEX
8
0
10
-2.260000
20
1.300000
0
VERTEX
8
0
10
-2.340000
20
1.300000
0
VERTEX
8
0
10
-2.340000
20
1.000000
0
SEQEND
8
0
0
POLYLINE
8
0
66
1
40
0.016000
41
0.016000
0
VERTEX
8
0
10
-2.300000
20
1.400000
0
VERTEX
8
0
10
-2.300000
20
1.300000
0
SEQEND
8
0
0
POLYLINE
8
0
66
1
40
0.016000
41
0.016000
0
VERTEX
8
0
10
-2.300000
20
0.900000
0
VERTEX
8
0
10
-2.300000
20
1.000000
0
SEQEND
8
0
0
TEXT
8
0
10
-2.202000
20
1.173000
40
0.120000
41
0.666667
1
R16
0
TEXT
8
0
10
-2.202000
20
1.068000
40
0.080000
41
1.000000
1
100
0
POLYLINE
8
0
66
1
40
0.016000
41
0.016000
0
VERTEX
8
0
10
-1.840000
20
1.000000
0
VERTEX
8
0
10
-1.760000
20
1.000000
0
VERTEX
8
0
10
-1.760000
20
1.300000
0
VERTEX
8
0
10
-1.840000
20
1.300000
0
VERTEX
8
0
10
-1.840000
20
1.000000
0
SEQEND
8
0
0
POLYLINE
8
0
66
1
40
0.016000
41
0.016000
0
VERTEX
8
0
10
-1.800000
20
1.400000
0
VERTEX
8
0
10
-1.800000
20
1.300000
0
SEQEND
8
0
0
POLYLINE
8
0
66
1
40
0.016000
41
0.016000
0
VERTEX
8
0
10
-1.800000
20
0.900000
0
VERTEX
8
0
10
-1.800000
20
1.000000
0
SEQEND
8
0
0
TEXT
8
0
10
-1.702000
20
1.173000
40
0.120000
41
0.666667
1
R17
0
TEXT
8
0
10
-1.702000
20
1.068000
40
0.080000
41
1.000000
1
100
0
POLYLINE
8
0
66
1
40
0.016000
41
0.016000
0
VERTEX
8
0
10
-1.340000
20
1.000000
0
VERTEX
8
0
10
-1.260000
20
1.000000
0
VERTEX
8
0
10
-1.260000
20
1.300000
0
VERTEX
8
0
10
-1.340000
20
1.300000
0
VERTEX
8
0
10
-1.340000
20
1.000000
0
SEQEND
8
0
0
POLYLINE
8
0
66
1
40
0.016000
41
0.016000
0
VERTEX
8
0
10
-1.300000
20
1.400000
0
VERTEX
8
0
10
-1.300000
20
1.300000
0
SEQEND
8
0
0
POLYLINE
8
0
66
1
40
0.016000
41
0.016000
0
VERTEX
8
0
10
-1.300000
20
0.900000
0
VERTEX
8
0
10
-1.300000
20
1.000000
0
SEQEND
8
0
0
TEXT
8
0
10
-1.202000
20
1.173000
40
0.120000
41
0.666667
1
R18
0
TEXT
8
0
10
-1.202000
20
1.068000
40
0.080000
41
1.000000
1
100
0
POLYLINE
8
0
66
1
40
0.016000
41
0.016000
0
VERTEX
8
0
10
-0.840000
20
1.000000
0
VERTEX
8
0
10
-0.760000
20
1.000000
0
VERTEX
8
0
10
-0.760000
20
1.300000
0
VERTEX
8
0
10
-0.840000
20
1.300000
0
VERTEX
8
0
10
-0.840000
20
1.000000
0
SEQEND
8
0
0
POLYLINE
8
0
66
1
40
0.016000
41
0.016000
0
VERTEX
8
0
10
-0.800000
20
1.400000
0
VERTEX
8
0
10
-0.800000
20
1.300000
0
SEQEND
8
0
0
POLYLINE
8
0
66
1
40
0.016000
41
0.016000
0
VERTEX
8
0
10
-0.800000
20
0.900000
0
VERTEX
8
0
10
-0.800000
20
1.000000
0
SEQEND
8
0
0
TEXT
8
0
10
-0.702000
20
1.173000
40
0.120000
41
0.666667
1
R19
0
TEXT
8
0
10
-0.702000
20
1.068000
40
0.080000
41
1.000000
1
100
0
POLYLINE
8
0
66
1
40
0.016000
41
0.016000
0
VERTEX
8
0
10
-0.600000
20
0.700000
0
VERTEX
8
0
10
-0.600000
20
0.600000
0
SEQEND
8
0
0
POLYLINE
8
0
66
1
40
0.016000
41
0.016000
0
VERTEX
8
0
10
-0.700000
20
0.600000
0
VERTEX
8
0
10
-0.500000
20
0.600000
0
SEQEND
8
0
0
POLYLINE
8
0
66
1
40
0.016000
41
0.016000
0
VERTEX
8
0
10
-0.650000
20
0.550000
0
VERTEX
8
0
10
-0.550000
20
0.550000
0
SEQEND
8
0
0
POLYLINE
8
0
66
1
40
0.016000
41
0.016000
0
VERTEX
8
0
10
-0.610000
20
0.500000
0
VERTEX
8
0
10
-0.590000
20
0.500000
0
SEQEND
8
0
0
CIRCLE
8
0
10
-0.800000
20
0.800000
40
0.020000
0
CIRCLE
8
0
10
-1.300000
20
0.800000
40
0.020000
0
CIRCLE
8
0
10
-1.800000
20
0.800000
40
0.020000
0
CIRCLE
8
0
10
-2.300000
20
0.800000
40
0.020000
0
CIRCLE
8
0
10
-2.800000
20
0.800000
40
0.020000
0
CIRCLE
8
0
10
-3.300000
20
1.600000
40
0.020000
0
CIRCLE
8
0
10
-2.800000
20
1.600000
40
0.020000
0
CIRCLE
8
0
10
-2.300000
20
1.600000
40
0.020000
0
CIRCLE
8
0
10
-1.800000
20
1.600000
40
0.020000
0
CIRCLE
8
0
10
-1.300000
20
1.600000
40
0.020000
0
CIRCLE
8
0
10
-0.800000
20
1.600000
40
0.020000
0
CIRCLE
8
0
10
1.300000
20
-1.600000
40
0.020000
0
CIRCLE
8
0
10
1.600000
20
-2.100000
40
0.020000
0
CIRCLE
8
0
10
0.500000
20
-2.000000
40
0.020000
0
CIRCLE
8
0
10
-0.600000
20
-1.900000
40
0.020000
0
CIRCLE
8
0
10
-1.700000
20
-1.800000
40
0.020000
0
CIRCLE
8
0
10
-2.800000
20
-1.700000
40
0.020000
0
ENDSEC
0
EOF

